<ttFont>
          <CharString index="0">
            7 -5 -9 2 -6 hhcurveto
            -30 -24 -44 -39 -75 hvcurveto
            -11 -6 -3 -8 -8 vvcurveto
            -10 7 -16 19 3 4 1 1 3 vhcurveto
            109 36 46 -20 44 vvcurveto
            2 0 3 -1 2 vhcurveto
            12 5 9 13 12 vvcurveto
            16 -17 11 -15 -5 -6 -1 -3 -5 vhcurveto
            return
          </CharString>
          <CharString index="1">
            2 -4 -2 0 -3 hhcurveto
            -44 16 -48 -39 -83 hvcurveto
            -6 -4 0 -7 -5 vvcurveto
            -15 11 -11 14 6 7 2 5 6 vhcurveto
            53 25 40 36 15 9 15 -9 41 -36 53 -25 rrcurveto
            -5 6 5 -2 5 hhcurveto
            13 15 7 18 7 -2 8 -4 2 hvcurveto
            39 -82 15 48 -44 hhcurveto
            -3 -2 0 -2 -4 hvcurveto
            endchar
          </CharString>
          <CharString index="2">
            rmoveto
            -2 4 2 0 3 hhcurveto
            44 -15 70 57 82 hvcurveto
            5 4 1 7 5 vvcurveto
            12 -6 14 -19 -6 -7 -2 -5 -6 vhcurveto
            -53 -41 -41 -56 -15 -13 -15 13 -40 56 -53 41 rrcurveto
            5 -6 -7 2 -6 hhcurveto
            -14 -11 -12 -14 -5 0 -7 6 -4 hvcurveto
            -57 83 -16 -70 44 hhcurveto
            3 2 0 2 4 hvcurveto
            -10 3 10 -8 12 hhcurveto
            13 12 7 11 3 hvcurveto
            endchar
          </CharString>
          <CharString index="3">
            18 -15 7 -13 -5 -5 -2 -5 -6 vhcurveto
            -53 -25 -41 -36 -15 -9 -15 9 -40 36 -53 25 rrcurveto
            5 -6 -7 2 -6 hhcurveto
            -14 -11 -11 -15 -5 0 -7 6 -4 hvcurveto
            -39 83 -16 -48 44 hhcurveto
            3 2 0 2 4 hvcurveto
            -10 3 10 -8 12 hhcurveto
            13 12 7 11 3 hvcurveto
            endchar
          </CharString>
          <CharString index="4">
            405 226 rmoveto
            -110 -51 -83 -75 -64 -45 51 163 -54 callsubr
            63 1 -15 -144 2 hvcurveto
            -155 2 53 -85 133 hhcurveto
            77 32 36 44 28 hvcurveto
            -56 vlineto
            10 -10 rlineto
            return
          </CharString>
          <CharString index="5">
            -25 -36 -24 -18 -66 hhcurveto
            -30 vlineto
            return
          </CharString>
          <CharString index="6">
            -36 29 -28 35 35 29 28 36 37 -29 28 -35 -35 -29 -28 -37 vhcurveto
            return
          </CharString>
          <CharString index="7">
            -30 vlineto
            -102 callsubr
            return
          </CharString>
          <CharString index="8">
            492 -7 callsubr
            -88 callsubr
            -203 vlineto
            44 -39 -40 15 -56 hhcurveto
            -113 -112 -70 -167 -144 76 -101 144 45 51 11 44 45 hvcurveto
            -55 3 13 -29 39 hhcurveto
            -33 30 -26 52 27 34 7 28 17 vhcurveto
            -3 5 rlineto
            -3 -6 -16 -1 -9 hhcurveto
            -75 -17 64 123 hvcurveto
            -225 -89 rmoveto
            -100 -30 95 104 107 32 82 97 95 42 -87 -104 -108 -44 -89 -92 hvcurveto
            return
          </CharString>
          <CharString index="9">
            695 hmoveto
            714 vlineto
            -70 callgsubr
            23 -15 19 -38 -27 -19 -10 -21 -17 vhcurveto
            21 -17 -19 10 -27 hhcurveto
            -38 -15 -5 callsubr
            -529 vlineto
            -276 400 rlineto
            166 -115 -34 6 -49 hhcurveto
            40 -38 23 -45 return
          </CharString>
          <CharString index="10">
            42 vlineto
            -39 -65 4 39 10 4 20 6 23 hvcurveto
            36 130 rlineto
            -3 22 22 -1 19 hhcurveto
            51 59 7 28 79 hvcurveto
            48 -184 6 -20 -10 vvcurveto
            -39 -58 -4 -39 vhcurveto
            return
          </CharString>
          <CharString index="11">
            rmoveto
            -30 20 -23 29 -4 vhcurveto
            -5 -21 -10 -20 -18 -23 23 -19 rcurveline
            58 56 28 45 37 vvcurveto
            -45 callgsubr
          </CharString>
          <CharString index="12">
            -20 7 15 0 15 hhcurveto
            173 hlineto
            60 45 7 53 hvcurveto
            11 6 18 19 27 -23 15 -30 4 hvcurveto
            -62 -18 -31 -70 vhcurveto
            -124 hlineto
            124 216 rlineto
            100 58 27 58 21 hhcurveto
            return
          </CharString>
          <CharString index="13">
            23 -14 -16 callgsubr
            -28 -100 callgsubr
            return
          </CharString>
          <CharString index="14">
            rmoveto
            3 -5 -6 1 -5 hhcurveto
            -15 -17 -11 -16 -12 9 -13 12 -5 hvcurveto
            -1 -2 0 -3 -2 vvcurveto
            -44 46 20 109 -36 vhcurveto
            -1 3 4 -1 3 hhcurveto
            19 7 16 10 8 -3 8 -11 6 hvcurveto
            return
          </CharString>
          <CharString index="15">
            vlineto
            -32 -37 17 52 hvcurveto
            return
          </CharString>
          <CharString index="16">
            805 -149 48 87 56 -32 -7 callgsubr
            408 50 173 35 106 48 -13 callgsubr
            444 53 hintmask 1010111100111000
            389 709 -73 callgsubr
            hintmask 1001111100111000
            -42 vlineto
            hintmask 1010111100111000
            -35 callsubr
            hintmask 1001111100111000
            -44 callsubr
            hintmask 1100111001111000
            -42 callsubr
            hintmask 1001111100111000
            -87 callgsubr
            hintmask 1100111010111000
            -51 callsubr
            870 -362 rmoveto
            -283 hlineto
            -54 -25 2 9 -12 hvcurveto
            -75 callgsubr
            hintmask 1001111100111000
            -95 callsubr
            return
          </CharString>
          <CharString index="17">
            rmoveto
            -32 26 -26 32 32 26 26 32 33 -26 26 -32 -32 -26 -26 -33 vhcurveto
            endchar
          </CharString>
          <CharString index="18">
            -20 -2 callgsubr
            183 90 hintmask 1001101001100000
            -51 callgsubr
            hintmask 1001101010100000
            -79 callgsubr
            hintmask 1001011100100000
            -85 callsubr
            hintmask 0011101100100000
            -53 vlineto
            hintmask 0101101100100000
            17 callgsubr
            hintmask 0011101100100000
            -34 callgsubr
            hintmask 1001101100100000
            -72 callgsubr
            return
          </CharString>
          <CharString index="19">
            61 5 -24 -100 hvcurveto
            return
          </CharString>
          <CharString index="20">
            272 31 rmoveto
            -98 -35 81 113 hvcurveto
            4 vlineto
            -9 26 40 -8 44 hhcurveto
            78 107 26 99 69 -51 30 -39 hvcurveto
            return
          </CharString>
          <CharString index="21">
            -35 11 48 0 23 hhcurveto
            205 hlineto
            90 68 30 65 hvcurveto
            17 9 32 28 57 -39 20 -41 7 hvcurveto
            -102 -28 -70 -105 vhcurveto
            -187 hlineto
            201 407 rlineto
            207 102 27 69 32 hhcurveto
            59 -401 vlineto
            -84 -50 -21 -44 hvcurveto
            -24 -16 -30 -33 -52 40 -23 40 -6 hvcurveto
            84 26 65 97 vhcurveto
            return
          </CharString>
          <CharString index="22">
            50 53 15 35 81 14 -77 -69 vhcurveto
            -37 vlineto
            20 -31 -39 18 -57 hhcurveto
            -100 -71 -56 -91 -88 66 -56 99 61 42 32 35 30 hvcurveto
            return
          </CharString>
          <CharString index="23">
            50 9 75 70 119 -64 78 -119 -24 -65 -4 -45 hvcurveto
            -53 -17 -83 -58 -139 76 -76 93 hvcurveto
            1 37 rmoveto
            -60 -31 80 90 87 31 74 61 60 32 -73 -88 -90 -32 -80 -61 hvcurveto
            return
          </CharString>
          <CharString index="24">
            -24 callsubr
            hintmask 1011100110000000
            -23 callgsubr
            hintmask 1011101001000000
            -77 callgsubr
            hintmask 0101101010000000
            -65 callgsubr
            hintmask 1011101010000000
            -103 callgsubr
            return
          </CharString>
          <CharString index="25">
            689 393 rmoveto
            -25 hlineto
            -18 -34 -28 -20 -69 hhcurveto
            -47 -50 11 21 -33 hvcurveto
            -6 -6 -8 -13 -15 vvcurveto
            -34 38 -27 82 27 25 3 4 22 vhcurveto
            12 -14 4 -24 -42 vvcurveto
            -78 -46 -105 -135 -148 -113 119 234 240 118 141 150 vhcurveto
            return
          </CharString>
          <CharString index="26">
            211 -100 callsubr
            return
          </CharString>
          <CharString index="27">
            -62 callgsubr
            215 hmoveto
            -107 callsubr
            endchar
          </CharString>
          <CharString index="28">
            428 820 rmoveto
            -208 -163 -136 -296 -288 154 -114 202 93 107 24 68 hvcurveto
            57 18 45 38 67 -59 19 -35 hvcurveto
            -117 -4 -35 -94 -134 hhcurveto
            -152 -112 120 231 242 123 141 148 hvcurveto
            return
          </CharString>
          <CharString index="29">
            27 -41 5 -34 -144 -83 -91 -149 -145 77 -97 147 85 78 33 57 31 -22 14 -31 vhcurveto
            return
          </CharString>
          <CharString index="30">
            262 -14 rmoveto
            45 50 8 44 45 hvcurveto
            -65 vlineto
            -132 -55 -46 -80 -91 -33 59 71 vhcurveto
            -30 -48 -20 -46 -24 13 -29 35 hvcurveto
            -32 47 -24 98 161 73 65 152 vhcurveto
            228 vlineto
            219 7 14 35 vhcurveto
            30 vlineto
            -48 -59 0 -58 -15 hvcurveto
            return
          </CharString>
          <CharString index="31">
            -53 -5 -65 -31 -87 vvcurveto
            -77 51 -58 76 vhcurveto
            -34 97 -2 29 169 116 71 150 vhcurveto
            279 -429 -69 222 vvcurveto
            122 130 7 42 100 45 -43 -85 -53 -19 -24 -9 -6 vhcurveto
            return
          </CharString>
          <CharString index="32">
            27 -33 13 -66 -103 -172 -32 -180 vhcurveto
            -277 414 74 -225 vvcurveto
            -129 -139 -15 -43 -65 -85 34 125 19 2 40 16 21 vhcurveto
            -4 5 rlineto
            return
          </CharString>
          <CharString index="33">
            274 468 rmoveto
            -131 -101 -81 -164 -161 97 -76 127 94 64 42 54 31 -22 11 -17 7 hvcurveto
            -4 hlineto
            -63 -11 -33 -36 -63 hhcurveto
            -88 -47 68 126 120 42 75 91 55 24 -28 -40 -29 -12 -17 -18 -6 hvcurveto
            -4 vlineto
            return
          </CharString>
          <CharString index="34">
            -58 callgsubr
            56 return
          </CharString>
          <CharString index="35">
            -25 -36 -29 -18 -66 hhcurveto
            -25 vlineto
            return
          </CharString>
          <CharString index="36">
            64 callsubr
            hintmask 10111110
            -103 callsubr
            hintmask 01111110
            -96 callgsubr
            return
          </CharString>
          <CharString index="37">
            182 241 rmoveto
            132 84 48 62 60 39 -47 -167 vhcurveto
            -153 vlineto
            -104 10 -13 34 -19 vhcurveto
            -36 31 -23 35 35 31 24 36 15 vhcurveto
            -5 4 rlineto
            -11 -14 -11 0 -15 hhcurveto
            -30 -26 27 171 hvcurveto
            119 vlineto
            174 -63 65 -113 -87 -45 -38 -42 -27 vhcurveto
            return
          </CharString>
          <CharString index="38">
            vlineto
            -52 -33 -17 -36 vhcurveto
            return
          </CharString>
          <CharString index="39">
            42 65 -45 60 hhcurveto
            36 37 7 21 hvcurveto
            10 7 4 13 13 vvcurveto
            20 -12 20 -20 11 vhcurveto
            -29 -10 -24 -9 -31 hhcurveto
            return
          </CharString>
          <CharString index="40">
            181 vlineto
            64 8 -48 -55 hvcurveto
            40 hlineto
            65 6 49 15 vvcurveto
            return
          </CharString>
          <CharString index="41">
            91 56 -52 -87 -55 -22 -30 -30 -5 hvcurveto
            -7 vlineto
            -3 14 22 -2 13 hhcurveto
            62 54 40 83 133 -136 35 -114 -225 -153 -137 -289 -295 160 -113 178 hvcurveto
            return
          </CharString>
          <CharString index="42">
            11 -10 rlineto
            1 6 6 1 6 hhcurveto
            35 18 -27 -27 -29 -16 -28 -46 -12 -28 3 11 -8 hvcurveto
            -3 -5 rlineto
            -36 19 46 -9 30 hhcurveto
            39 31 27 33 hvcurveto
            return
          </CharString>
          <CharString index="43">
            -25 -23 -26 -39 -41 25 -26 62 hvcurveto
            144 56 118 215 146 79 -55 -129 -138 -90 -43 -130 -13 vhcurveto
            -34 vlineto
            -39 351 -73 callgsubr
            return
          </CharString>
          <CharString index="44">
            rmoveto
            -25 hlineto
            -25 -36 -29 -18 -66 hhcurveto
            -35 vlineto
            -88 callsubr
            -396 vlineto
            return
          </CharString>
          <CharString index="45">
            52 13 -9 35 hhcurveto
            -29 callgsubr
            105 vlineto
            185 -61 74 -132 -61 -46 -34 -46 -25 vhcurveto
            return
          </CharString>
          <CharString index="46">
            84 226 rmoveto
            -155 2 41 -85 130 hhcurveto
            84 32 36 44 26 hvcurveto
            -93 vlineto
            -134 -47 -44 -71 -79 -32 54 66 vhcurveto
            -30 -48 -20 -46 hvcurveto
            return
          </CharString>
          <CharString index="47">
            54 -40 -45 14 -60 hhcurveto
            -113 -112 -70 -167 -144 76 -101 144 hvcurveto
            15 46 rmoveto
            -108 -32 95 104 107 34 82 105 95 42 -87 -104 -108 -44 -89 -92 hvcurveto
            return
          </CharString>
          <CharString index="48">
            1 -2 -2 0 -2 hhcurveto
            -13 -9 -14 -13 -13 8 -14 20 hvcurveto
            -4 -1 -4 -3 vvcurveto
            -83 124 26 92 -152 vhcurveto
            -6 5 6 0 5 hhcurveto
            13 10 6 13 13 vvcurveto
            67 -147 96 -63 55 vhcurveto
            139 102 75 74 43 vvcurveto
            14 -7 10 -16 8 vhcurveto
            -5 -7 -1 -5 -4 hvcurveto
            -92 -151 -124 24 -82 -3 1 -4 -4 vvcurveto
            return
          </CharString>
          <CharString index="49">
            426 -14 rmoveto
            198 157 155 285 92 -17 121 -51 52 hvcurveto
            27 35 25 33 20 29 -67 53 rcurveline
            -24 -32 -23 -32 -24 -30 rrcurveto
            66 -27 -123 7 -51 hhcurveto
            -248 -133 -162 -244 -128 11 -135 66 -29 hvcurveto
            -29 -39 -29 -40 -28 -40 63 -49 rcurveline
            19 30 24 34 28 37 rrcurveto
            -55 43 103 -14 90 hhcurveto
            -2 49 rmoveto
            -79 -59 34 56 -41 hvcurveto
            118 150 157 180 124 151 rrcurveto
            22 -56 10 -67 -73 vvcurveto
            -200 -75 -175 -177 vhcurveto
            -220 167 rmoveto
            -23 60 -11 73 76 vvcurveto
            201 76 156 177 78 58 -31 -51 41 vhcurveto
            -135 -171 -136 -154 -125 -159 rrcurveto
            return
          </CharString>
          <CharString index="50">
            42 vlineto
            -54 -43 21 59 -47 hvcurveto
            -194 244 rlineto
            151 32 63 78 112 vvcurveto
            222 -250 10 -77 -164 -153 50 callsubr
            vhcurveto
            return
          </CharString>
          <CharString index="51">
            -49 -66 45 -51 hhcurveto
            -38 -25 -24 -42 hvcurveto
            -6 -9 -6 -9 -9 vvcurveto
            -25 13 -13 26 -4 vhcurveto
            endchar
          </CharString>
          <CharString index="52">
            -28 -10 -34 -46 -44 -13 34 28 6 1 6 1 5 vhcurveto
            -89 hlineto
            -101 76 -30 69 68 76 39 92 vhcurveto
            endchar
          </CharString>
          <CharString index="53">
            vhcurveto
            -81 callsubr
            return
          </CharString>
          <CharString index="54">
            rmoveto
            -53 -84 -12 -70 -22 17 -28 43 hvcurveto
            -2 7 -2 9 13 vvcurveto
            35 27 27 49 39 21 -28 -33 -59 -50 -17 -37 vhcurveto
            -36 vlineto
            38 60 -10 -66 -41 -27 -39 -46 -23 -41 14 44 12 4 13 2 12 hvcurveto
            return
          </CharString>
          <CharString index="55">
            rmoveto
            -107 callgsubr
            return
          </CharString>
          <CharString index="56">
            24 callsubr
            -91 144 -50 152 284 165 157 333 269 -109 210 -299 vhcurveto
            return
          </CharString>
          <CharString index="57">
            19 86 -10 18 hhcurveto
            33 vlineto
            -15 -70 6 50 hvcurveto
            45 vlineto
            27 -3 6 -4 -7 vvcurveto
            -19 -5 -5 -3 -2 vhcurveto
            3 -3 rlineto
            35 7 17 15 35 vvcurveto
            -277 15 rmoveto
            39 44 47 81 43 63 rrcurveto
            return
          </CharString>
          <CharString index="58">
            -92 -49 45 -132 hhcurveto
            -134 -162 -46 -119 -44 22 -27 30 hvcurveto
            -40 23 -37 47 15 17 4 8 18 vhcurveto
            return
          </CharString>
          <CharString index="59">
            51 -51 218 -123 42 320 58 327 42 return
          </CharString>
          <CharString index="60">
            99 496 rmoveto
            48 20 38 38 29 vhcurveto
            19 -14 -24 23 -29 hhcurveto
            -31 -46 -28 -50 -21 8 -27 15 -14 hvcurveto
            -16 -16 -4 -16 -14 vvcurveto
            -50 49 -90 168 -3 vhcurveto
            -213 vlineto
            return
          </CharString>
          <CharString index="61">
            191 202 rmoveto
            119 57 94 43 26 27 -22 -48 -9 -1 -10 -3 -11 vhcurveto
            56 10 22 29 34 vvcurveto
            31 -17 18 -26 vhcurveto
            22 -29 9 -29 -47 -47 -36 -78 -32 vhcurveto
            return
          </CharString>
          <CharString index="62">
            -42 -48 3 13 -40 hvcurveto
            -219 -453 rlineto
            -41 20 -31 33 54 vvcurveto
            47 22 47 50 21 vhcurveto
            25 -30 -12 13 -28 hhcurveto
            -52 -36 -44 -46 -18 5 -15 11 -14 hvcurveto
            -9 -8 -5 -7 -21 vvcurveto
            -74 59 -44 70 -24 vhcurveto
            -130 -269 -110 -227 -51 -7 -96 -10 rlinecurve
            -35 24 -13 32 37 41 20 31 3 vhcurveto
            -2 5 4 -2 5 hhcurveto
            38 46 51 97 47 hvcurveto
            168 351 rlineto
            -6 31 31 -2 27 hhcurveto
            36 46 3 13 52 hvcurveto
            -172 vlineto
            -86 -53 0 -36 vhcurveto
            -42 31 vlineto
            return
          </CharString>
          <CharString index="63">
            31 -33 callgsubr
            return
          </CharString>
          <CharString index="64">
            rmoveto
            -51 41 -39 49 47 41 39 51 51 -41 39 -47 -49 -41 -39 -51 vhcurveto
            49 hmoveto
            21 19 17 21 20 18 -17 -21 -21 -18 -19 -20 -21 -19 19 21 vhcurveto
            return
          </CharString>
          <CharString index="65">
            11 callsubr
            709 rmoveto
            -144 -169 -38 -91 -11 2 -21 10 -11 hvcurveto
            return
          </CharString>
          <CharString index="66">
            -27 -14 46 -24 24 -11 -21 238 39 49 142 -46 46 return
          </CharString>
          <CharString index="67">
            -39 callgsubr
            hintmask 10011100
            16 84 10 17 hhcurveto
            hintmask 01111100
            -50 callsubr
            hintmask 10011100
            -168 vlineto
            -66 -1 -53 -15 -10 -4 rrcurveto
            endchar
          </CharString>
          <CharString index="68">
            rmoveto
            53 41 148 78 112 vvcurveto
            -21 callsubr
            hintmask 00101110
            -21 callgsubr
            hintmask 01010101
            30 callsubr
            hintmask 01010110
            30 callgsubr
            hintmask 10010101
            21 callgsubr
            hintmask 00110110
            -39 -58 36 -48 hhcurveto
            endchar
          </CharString>
          <CharString index="69">
            7 -6 -14 4 -19 hhcurveto
            -44 -27 -21 -35 -30 20 -29 30 -12 hvcurveto
            -43 44 -31 90 162 64 101 260 vhcurveto
            return
          </CharString>
          <CharString index="70">
            -4 callgsubr
            31 hhcurveto
            return
          </CharString>
          <CharString index="71">
            6 1 6 1 5 vhcurveto
            -83 hlineto
            -90 54 -31 84 84 55 31 90 vhcurveto
            endchar
          </CharString>
          <CharString index="72">
            31 72 10 31 hhcurveto
            return
          </CharString>
          <CharString index="73">
            vlineto
            -64 -63 -5 -36 vhcurveto
            return
          </CharString>
          <CharString index="74">
            -15 -4 -9 -19 -25 vvcurveto
            -41 22 -13 15 -82 vhcurveto
            -17 1 11 -8 10 hhcurveto
            10 7 8 16 3 hvcurveto
            15 82 24 11 43 vvcurveto
            26 -9 22 -15 1 vhcurveto
            22 -14 15 -21 -21 -14 -14 -23 vhcurveto
            return
          </CharString>
          <CharString index="75">
            -14 -15 -32 -5 -48 -1 rrcurveto
            142 -25 vlineto
            -69 -25 -27 -73 -73 hhcurveto
            -6 return
          </CharString>
          <CharString index="76">
            39 -75 -24 44 -30 hhcurveto
            -6 -9 -2 -7 -5 hvcurveto
            endchar
          </CharString>
          <CharString index="77">
            -88 callsubr
            -172 -69 callsubr
            hintmask 01111100
            -30 vlineto
            hintmask 10111100
            -37 callsubr
            hintmask 01111100
            -52 callgsubr
            hintmask 10111100
            30 -92 callsubr
            return
          </CharString>
          <CharString index="78">
            10 -7 callgsubr
            778 42 return
          </CharString>
          <CharString index="79">
            426 187 rmoveto
            -64 0 -88 -19 -18 vhcurveto
            9 -17 rlineto
            return
          </CharString>
          <CharString index="80">
            56 -14 -6 callgsubr
            return
          </CharString>
          <CharString index="81">
            32 -41 -53 17 -59 hhcurveto
            -132 -103 -85 -152 -63 18 -54 31 -41 hvcurveto
            -72 -74 rlineto
            259 33 rmoveto
            -50 -35 23 36 -23 hvcurveto
            233 235 rlineto
            9 -28 5 -33 -34 vvcurveto
            70 callgsubr
            vhcurveto
            -141 199 rmoveto
            107 42 83 98 47 35 -20 -32 22 vhcurveto
            -230 -235 rlineto
            -10 29 -4 33 35 vvcurveto
            return
          </CharString>
          <CharString index="82">
            31 hhcurveto
            30 -92 callsubr
            return
          </CharString>
          <CharString index="83">
            -31 -117 10 -31 hhcurveto
            -42 vlineto
            return
          </CharString>
          <CharString index="84">
            -51 -20 callsubr
            return
          </CharString>
          <CharString index="85">
            244 -10 callsubr
            8 352 44 callgsubr
            return
          </CharString>
          <CharString index="86">
            82 -79 27 -47 -110 -26 -43 -29 -40 37 -20 47 vhcurveto
            2 6 rlineto
            -4 1 -27 13 25 vvcurveto
            return
          </CharString>
          <CharString index="87">
            -82 callgsubr
            40 20 34 return
          </CharString>
          <CharString index="88">
            16 19 6 5 8 hvcurveto
            -211 vlineto
            -52 -60 -3 -29 vhcurveto
            -35 vlineto
            26 74 9 25 25 71 -9 26 hhcurveto
            35 vlineto
            -26 -63 3 52 hvcurveto
            return
          </CharString>
          <CharString index="89">
            35 -250 45 1 237 -47 43 callsubr
            return
          </CharString>
          <CharString index="90">
            352 -2 callsubr
            return
          </CharString>
          <CharString index="91">
            179 -90 90 return
          </CharString>
          <CharString index="92">
            -70 callgsubr
            -94 callsubr
            return
          </CharString>
          <CharString index="93">
            -18 -150 -10 -107 hhcurveto
            return
          </CharString>
          <CharString index="94">
            30 -92 callsubr
            142 vlineto
            return
          </CharString>
          <CharString index="95">
            44 hvcurveto
            9 7 5 13 13 vvcurveto
            20 -12 20 -20 11 vhcurveto
            -51 -9 -25 -17 -31 hhcurveto
            return
          </CharString>
          <CharString index="96">
            -39 vvcurveto
            -51 23 -50 12 -7 vhcurveto
            return
          </CharString>
          <CharString index="97">
            -27 -99 callgsubr
            return
          </CharString>
          <CharString index="98">
            65 callsubr
            -10 -11 -15 -9 -18 hhcurveto
            -30 -26 25 151 hvcurveto
            return
          </CharString>
          <CharString index="99">
            -5 -29 -36 -2 return
          </CharString>
          <CharString index="100">
            809 rmoveto
            -30 hlineto
            -102 callsubr
            return
          </CharString>
          <CharString index="101">
            rmoveto
            -42 hlineto
            -44 -16 -42 -16 -66 hhcurveto
            -34 22 -21 32 vhcurveto
            return
          </CharString>
          <CharString index="102">
            -19 -23 hvcurveto
            73 callgsubr
            return
          </CharString>
          <CharString index="103">
            rmoveto
            hintmask 10000000
            51 46 -12 51 -95 callgsubr
            hintmask 01000000
            -48 -46 12 -66 hhcurveto
            -80 callgsubr
            endchar
          </CharString>
          <CharString index="104">
            178 51 43 59 55 23 -38 -41 -26 -9 -19 -16 -6 vhcurveto
            -4 vlineto
            return
          </CharString>
          <CharString index="105">
            30 43 -20 return
          </CharString>
          <CharString index="106">
            291 10 32 -30 -21 30 -21 760 60 -42 42 return
          </CharString>
          <CharString index="107">
            70 -25 vlineto
            -72 callsubr
            -88 callsubr
            -172 -69 callsubr
            -25 -40 callgsubr
            25 -92 callsubr
            endchar
          </CharString>
          <CharString index="108">
            -23 -10 -29 -46 -44 -13 29 23 vhcurveto
            return
          </CharString>
          <CharString index="109">
            50 53 14 35 81 15 -76 -69 vhcurveto
            -37 vlineto
            20 -31 -39 18 -58 hhcurveto
            -100 -71 -56 -91 -88 66 -56 99 81 51 37 57 28 hvcurveto
            -58 29 54 -36 93 hhcurveto
            88 77 33 57 hvcurveto
            return
          </CharString>
          <CharString index="110">
            -76 -23 -41 -14 -36 hhcurveto
            -322 199 rmoveto
            38 40 -15 -23 31 hvcurveto
            1 -29 4 -26 7 -24 rrcurveto
            -48 -23 -43 -33 -53 hhcurveto
            -60 -39 43 61 64 44 30 53 hvcurveto
            return
          </CharString>
          <CharString index="111">
            73 callgsubr
            -248 vlineto
            -114 -9 -137 -48 -116 -18 rrcurveto
            323 vlineto
            return
          </CharString>
          <CharString index="112">
            -72 callsubr
            -88 callsubr
            -518 -69 callsubr
            return
          </CharString>
          <CharString index="113">
            2 -12 -10 1 -8 hhcurveto
            -22 -30 -8 -30 -14 hvcurveto
            2 -52 rlineto
            12 14 9 15 38 53 112 -114 125 hhcurveto
            54 120 18 75 26 -10 17 -16 hvcurveto
            return
          </CharString>
          <CharString index="114">
            -2 11 10 -1 8 hhcurveto
            46 31 31 36 25 -15 35 -30 5 hvcurveto
            32 -30 21 -74 return
          </CharString>
          <CharString index="115">
            164 rmoveto
            48 54 85 -116 rlineto
            4 -6 16 -21 -16 vvcurveto
            -25 -29 -4 -15 vhcurveto
            return
          </CharString>
          <CharString index="116">
            274 -14 51 348 -2 callsubr
            30 -20 return
          </CharString>
          <CharString index="117">
            300 -14 49 733 52 return
          </CharString>
          <CharString index="118">
            -54 callgsubr
            15 return
          </CharString>
          <CharString index="119">
            rmoveto
            -178 -76 175 201 201 76 156 177 178 75 -159 -199 -200 -75 -175 -177 hvcurveto
            endchar
          </CharString>
          <CharString index="120">
            -77 -29 36 61 15 3 12 6 12 hvcurveto
            return
          </CharString>
          <CharString index="121">
            rmoveto
            23 1 18 8 26 hhcurveto
            return
          </CharString>
          <CharString index="122">
            74 -29 29 -29 74 return
          </CharString>
          <CharString index="123">
            -6 -21 58 37 287 37 7 37 287 37 55 -20 hstemhm
            35 79 184 20 -20 79 238 79 184 20 -20 79 return
          </CharString>
          <CharString index="124">
            vlineto
            -43 callgsubr
            return
          </CharString>
          <CharString index="125">
            -14 46 389 47 return
          </CharString>
          <CharString index="126">
            15 callsubr
            23 -20 hstemhm
            return
          </CharString>
          <CharString index="127">
            -14 callsubr
            -90 -444 rmoveto
            -15 -47 -43 -4 -32 hhcurveto
            -23 -27 2 5 -27 hvcurveto
            199 414 rlineto
            return
          </CharString>
          <CharString index="128">
            hstemhm
            52 109 -87 87 327 85 -85 102 return
          </CharString>
          <CharString index="129">
            401 rmoveto
            -2 14 16 -1 13 hhcurveto
            return
          </CharString>
          <CharString index="130">
            rmoveto
            1 -5 1 -7 -5 vvcurveto
            return
          </CharString>
          <CharString index="131">
            -10 -3 -5 -9 -17 vvcurveto
            return
          </CharString>
          <CharString index="132">
            31 82 10 31 hhcurveto
            return
          </CharString>
          <CharString index="133">
            549 31 rmoveto
            -89 -27 83 107 -1 hvcurveto
            -13 23 35 -11 48 hhcurveto
            75 111 27 106 72 -51 34 -39 hvcurveto
            return
          </CharString>
          <CharString index="134">
            vvcurveto
            40 -1 37 -2 33 vhcurveto
            -83 hlineto
            2 -54 1 -50 -48 return
          </CharString>
          <CharString index="135">
            73 callgsubr
            -329 vlineto
            -105 5 -29 55 51 vvcurveto
            return
          </CharString>
          <CharString index="136">
            -76 -102 65 -78 hhcurveto
            -38 -25 -24 -42 hvcurveto
            75 callsubr
            endchar
          </CharString>
          <CharString index="137">
            55 44 -33 58 hhcurveto
            70 29 31 40 hvcurveto
            return
          </CharString>
          <CharString index="138">
            8 31 21 1 17 hhcurveto
            return
          </CharString>
          <CharString index="139">
            35 -35 133 -133 218 return
          </CharString>
          <CharString index="140">
            69 callsubr
            36 callsubr
            return
          </CharString>
          <CharString index="141">
            50 512 232 -12 52 return
          </CharString>
          <CharString index="142">
            52 -52 130 1 -20 hstemhm
            return
          </CharString>
          <CharString index="143">
            56 33 -23 -41 return
          </CharString>
          <CharString index="144">
            -7 callgsubr
            324 61 22 59 312 42 hstemhm
            13 86 45 179 85 callgsubr
            return
          </CharString>
          <CharString index="145">
            19 120 25 4 29 9 23 hvcurveto
            -5 4 rlineto
            -81 -24 -50 -41 -35 17 -19 8 -5 hvcurveto
            return
          </CharString>
          <CharString index="146">
            -48 callsubr
            10 -20 31 callgsubr
            return
          </CharString>
          <CharString index="147">
            -42 33 -33 41 -2 vhcurveto
            -12 -49 -28 -30 0 vvcurveto
            23 -19 rlineto
            69 68 27 69 38 vvcurveto
            return
          </CharString>
          <CharString index="148">
            -107 88 callsubr
            390 25 0 53 -10 -20 return
          </CharString>
          <CharString index="149">
            163 -29 callsubr
            return
          </CharString>
          <CharString index="150">
            47 -17 callsubr
            return
          </CharString>
          <CharString index="151">
            27 72 -10 27 hhcurveto
            return
          </CharString>
          <CharString index="152">
            31 86 10 51 hhcurveto
            return
          </CharString>
          <CharString index="153">
            22 -9 -21 414 44 278 -2 callsubr
            hstemhm
            26 71 callgsubr
            0 153 return
          </CharString>
          <CharString index="154">
            68 -56 56 hstemhm
            return
          </CharString>
          <CharString index="155">
            -66 callgsubr
            endchar
          </CharString>
          <CharString index="156">
            hstemhm
            160 54 427 54 return
          </CharString>
          <CharString index="157">
            -46 -91 -11 2 -21 10 -11 return
          </CharString>
          <CharString index="158">
            hstemhm
            36 94 -63 84 return
          </CharString>
          <CharString index="159">
            -42 0 50 -43 -21 422 50 return
          </CharString>
          <CharString index="160">
            -53 -28 -66 -14 -51 hhcurveto
            return
          </CharString>
          <CharString index="161">
            40 12 23 30 30 -20 11 -22 27 hvcurveto
            return
          </CharString>
          <CharString index="162">
            hstemhm
            52 54 -54 89 157 80 -63 82 return
          </CharString>
          <CharString index="163">
            -16 callsubr
            -90 return
          </CharString>
          <CharString index="164">
            42 -22 29 -28 11 vhcurveto
            51 -66 23 -83 -142 -79 -82 -184 return
          </CharString>
          <CharString index="165">
            vvcurveto
            119 37 62 90 86 19 -63 -38 -16 0 -32 -10 -16 vhcurveto
            return
          </CharString>
          <CharString index="166">
            90 235 90 return
          </CharString>
          <CharString index="167">
            -20 7 -15 12 -3 vhcurveto
            -23 14 -14 21 21 14 15 22 vhcurveto
            return
          </CharString>
          <CharString index="168">
            hstemhm
            50 51 callgsubr
            return
          </CharString>
          <CharString index="169">
            36 52 46 388 48 268 30 return
          </CharString>
          <CharString index="170">
            hintmask 01110100
            -42 vlineto
            hintmask 10110100
            return
          </CharString>
          <CharString index="171">
            -20 67 callgsubr
            return
          </CharString>
          <CharString index="172">
            86 callgsubr
            -5 4 rlineto
            return
          </CharString>
          <CharString index="173">
            hstemhm
            42 97 202 93 return
          </CharString>
          <CharString index="174">
            -240 54 -54 201 return
          </CharString>
          <CharString index="175">
            43 40 22 51 hvcurveto
            return
          </CharString>
          <CharString index="176">
            -13 -19 -23 hvcurveto
            return
          </CharString>
          <CharString index="177">
            -68 3 -76 5 -76 vhcurveto
            80 hlineto
            -6 52 -2 65 70 vvcurveto
            return
          </CharString>
          <CharString index="178">
            34 callsubr
            hstemhm
            52 109 -87 87 return
          </CharString>
          <CharString index="179">
            -20 34 callgsubr
            return
          </CharString>
          <CharString index="180">
            -21 505 -20 hstem
            return
          </CharString>
          <CharString index="181">
            hstemhm
            121 90 return
          </CharString>
          <CharString index="182">
            -8 -9 -4 -9 -9 vvcurveto
            -25 13 -13 26 -4 vhcurveto
            return
          </CharString>
          <CharString index="183">
            85 callgsubr
            189 56 callsubr
            return
          </CharString>
          <CharString index="184">
            10 51 hhcurveto
            hintmask 01111000
            51 return
          </CharString>
          <CharString index="185">
            -177 866 -21 145 -20 hstem
            203 return
          </CharString>
          <CharString index="186">
            hstemhm
            23 86 331 90 253 40 -24 77 return
          </CharString>
          <CharString index="187">
            43 -35 34 -41 -42 -35 -34 -43 vhcurveto
            endchar
          </CharString>
          <CharString index="188">
            -47 callgsubr
            hintmask 10111100
            42 vlineto
            return
          </CharString>
          <CharString index="189">
            42 hstemhm
            47 -16 callsubr
            return
          </CharString>
          <CharString index="190">
            60 -47 47 142 -20 hstemhm
            return
          </CharString>
          <CharString index="191">
            59 105 506 105 return
          </CharString>
          <CharString index="192">
            130 -80 80 return
          </CharString>
          <CharString index="193">
            vlineto
            -90 10 -48 46 vhcurveto
            -36 30 -23 38 return
          </CharString>
          <CharString index="194">
            247 -80 68 -68 248 -236 68 return
          </CharString>
          <CharString index="195">
            10 20 -9 -21 return
          </CharString>
        <CharString name="---Money---">
          -532 endchar
        </CharString>
        <CharString name=".notdef">
          180 -259 70 273 90 318 174 -13 42 223 71 hstemhm
          30 70 113 67 11 233 -215 88 -69 49 70 77 88 70 hintmask 1110111001110000
          682 -259 rmoveto
          1248 -652 -1248 vlineto
          70 1177 rmoveto
          512 -1107 -512 hlineto
          277 433 rmoveto
          hintmask 1101111100010000
          159 147 31 123 vvcurveto
          115 -103 23 -70 vhcurveto
          hintmask 1110111100010000
          -24 -36 -2 -27 hvcurveto
          -46 -32 -24 -58 -82 64 -10 37 hvcurveto
          6 vlineto
          0 -34 14 62 vvcurveto
          hintmask 1101111001110000
          45 37 34 46 54 30 -40 -55 vhcurveto
          -110 -119 -30 -174 vvcurveto
          hintmask 1110111010110000
          -19 -115 rmoveto
          -25 20 -20 24 25 19 20 25 25 -19 20 -25 -24 -20 -20 -25 vhcurveto
          endchar
        </CharString>
        <CharString name="A">
          -20 callgsubr
          504 -20 hstemhm
          47 86 hintmask 10111000
          -106 callgsubr
          10 callgsubr
          52 77 callsubr
          72 -10 31 hhcurveto
          hintmask 10111000
          -97 callsubr
          10 callgsubr
          86 77 callsubr
          68 -10 31 hhcurveto
          hintmask 10111000
          -17 callgsubr
          endchar
        </CharString>
        <CharString name="AE">
          39 callgsubr
          16 -20 79 callsubr
          hintmask 1010111011100000
          530 799 rmoveto
          hintmask 1101110111100000
          -45 callsubr
          hintmask 1010111011010000
          18 callgsubr
          -1 callgsubr
          hintmask 1101111011100000
          -19 callgsubr
          20 callsubr
          endchar
        </CharString>
        <CharString name="AEacute">
          39 callgsubr
          -42 233 79 callsubr
          hintmask 1101111011100000
          530 799 rmoveto
          -45 callsubr
          hintmask 1010110111010000
          18 callgsubr
          -1 callgsubr
          hintmask 1101110111100000
          -19 callgsubr
          hintmask 1010111011100000
          20 callsubr
          132 224 rmoveto
          hintmask 1010110111100000
          -107 callsubr
          endchar
        </CharString>
        <CharString name="Aacute">
          -20 callgsubr
          674 -20 hstemhm
          47 86 hintmask 10111000
          -106 callgsubr
          10 callgsubr
          52 77 callsubr
          72 -10 31 hhcurveto
          hintmask 10111000
          -97 callsubr
          10 callgsubr
          86 77 callsubr
          68 -10 31 hhcurveto
          hintmask 10111000
          -17 callgsubr
          -130 882 -62 callgsubr
          endchar
        </CharString>
        <CharString name="Abreve">
          -20 callgsubr
          553 52 -52 121 hstemhm
          47 86 112 81 0 113 0 83 hintmask 1011011010000000
          -106 callgsubr
          hintmask 0111011010000000
          -42 vlineto
          hintmask 1011011010000000
          68 callgsubr
          hintmask 0111011010000000
          69 callgsubr
          hintmask 1011011010000000
          -97 callsubr
          hintmask 0111011010000000
          -42 vlineto
          hintmask 1011011010000000
          45 callsubr
          hintmask 0111011010000000
          51 68 -47 callgsubr
          hintmask 1010110100000000
          -17 callgsubr
          -222 891 23 callsubr
          hintmask 1011011010000000
          1 callsubr
          hintmask 1010111010000000
          -36 callsubr
        </CharString>
        <CharString name="Acircumflex">
          -20 callgsubr
          674 -20 hstemhm
          47 86 hintmask 10111000
          -106 callgsubr
          10 callgsubr
          52 77 callsubr
          72 -10 31 hhcurveto
          hintmask 10111000
          -97 callsubr
          10 callgsubr
          86 77 callsubr
          68 -10 31 hhcurveto
          hintmask 10111000
          -17 callgsubr
          -248 873 rmoveto
          11 -3 -12 7 -13 hhcurveto
          -12 -10 -8 -10 -3 hvcurveto
          -106 callsubr
        </CharString>
        <CharString name="Adieresis">
          -20 callgsubr
          545 129 hstemhm
          47 86 77 57 callgsubr
          hintmask 10111110
          -106 callgsubr
          hintmask 01111110
          -42 vlineto
          hintmask 10111110
          68 callgsubr
          hintmask 01111110
          69 callgsubr
          hintmask 10111110
          -97 callsubr
          hintmask 01111110
          -42 vlineto
          hintmask 10111110
          45 callsubr
          hintmask 01111110
          51 68 -47 callgsubr
          hintmask 10111110
          -17 callgsubr
          -449 826 rmoveto
          -101 callsubr
          218 hmoveto
          -101 callsubr
          endchar
        </CharString>
        <CharString name="Agrave">
          -20 callgsubr
          674 -20 hstemhm
          47 86 hintmask 10111000
          -106 callgsubr
          10 callgsubr
          52 77 callsubr
          72 -10 31 hhcurveto
          hintmask 10111000
          -97 callsubr
          10 callgsubr
          86 77 callsubr
          68 -10 31 hhcurveto
          hintmask 10111000
          -17 callgsubr
          -386 882 -93 callsubr
          -31 callsubr
        </CharString>
        <CharString name="Amacron">
          -20 callgsubr
          574 47 callsubr
          47 86 hintmask 10110100
          -106 callgsubr
          63 callsubr
          68 callgsubr
          hintmask 01110100
          69 callgsubr
          hintmask 10110100
          -97 callsubr
          63 callsubr
          45 callsubr
          hintmask 01110100
          51 68 -47 callgsubr
          hintmask 10101100
          -17 callgsubr
          -335 803 rmoveto
          hintmask 10110100
          58 26 -12 62 hhcurveto
          55 29 10 26 13 -7 18 -7 8 hvcurveto
          -5 -29 -30 -2 -23 hhcurveto
          hintmask 10101100
          -74 callgsubr
        </CharString>
        <CharString name="Aogonek">
          222 -235 36 209 -7 callgsubr
          264 52 504 -20 hstemhm
          47 86 374 77 hintmask 11011110
          659 99 rmoveto
          -136 509 -14 77 41 vvcurveto
          38 12 10 56 11 vhcurveto
          -20 35 rlineto
          -16 -64 -73 -18 -68 hhcurveto
          -150 -452 rlineto
          -38 17 -31 34 64 vvcurveto
          47 22 47 50 21 vhcurveto
          25 -30 -12 13 -28 hhcurveto
          -52 -36 -44 -46 -18 5 -15 11 -14 hvcurveto
          -9 -8 -5 -7 -21 vvcurveto
          -79 61 -48 75 -22 vhcurveto
          -57 -181 rlineto
          -38 -12 -39 -19 -60 hhcurveto
          hintmask 10111110
          -42 vlineto
          hintmask 11011110
          68 callgsubr
          hintmask 10111110
          69 callgsubr
          hintmask 11011110
          -97 callsubr
          hintmask 10111110
          -42 vlineto
          24 59 6 3 49 hvcurveto
          -46 -46 -35 -26 -61 -82 callgsubr
          47 28 37 33 58 hvcurveto
          -2 47 55 -7 27 hhcurveto
          hintmask 11011110
          -17 callgsubr
          -174 255 rmoveto
          -32 -66 -54 -6 -43 hhcurveto
          -17 -21 1 3 -22 hvcurveto
          121 410 9 -21 17 -73 76 -282 rlinecurve
          endchar
        </CharString>
        <CharString name="Aring">
          -20 callgsubr
          538 136 hstemhm
          47 86 184 134 hintmask 10111100
          -106 callgsubr
          81 callgsubr
          52 10 51 hhcurveto
          hintmask 01111100
          51 72 -10 31 hhcurveto
          hintmask 10111100
          -97 callsubr
          81 callgsubr
          86 10 51 hhcurveto
          hintmask 01111100
          51 68 -10 31 hhcurveto
          hintmask 10111100
          -17 callgsubr
          -342 823 -42 callgsubr
          endchar
        </CharString>
        <CharString name="Aringacute">
          -20 callgsubr
          538 136 hstemhm
          47 86 134 38 hintmask 10111100
          -106 callgsubr
          81 callgsubr
          52 10 51 hhcurveto
          hintmask 01111100
          51 72 -10 31 hhcurveto
          hintmask 10111100
          -97 callsubr
          81 callgsubr
          86 10 51 hhcurveto
          hintmask 01111100
          51 68 -10 31 hhcurveto
          hintmask 10111100
          -17 callgsubr
          -392 823 -42 callgsubr
          283 59 -62 callgsubr
          endchar
        </CharString>
        <CharString name="Atilde">
          -20 callgsubr
          555 54 callgsubr
          47 86 hintmask 10110010
          -106 callgsubr
          hintmask 01110010
          -42 vlineto
          hintmask 10110010
          68 callgsubr
          hintmask 01110010
          69 callgsubr
          hintmask 10110010
          -97 callsubr
          hintmask 01110010
          -42 vlineto
          hintmask 10110010
          45 callsubr
          hintmask 01110010
          51 68 -47 callgsubr
          hintmask 10101010
          -17 callgsubr
          -406 786 14 callsubr
          hintmask 10110010
          -68 callsubr
          hintmask 10100110
          -56 callgsubr
        </CharString>
        <CharString name="B">
          279 -149 48 111 -7 callgsubr
          379 34 218 35 104 50 hstemhm
          42 87 -69 69 -33 51 147 90 191 100 -15 105 hintmask 1101111001100000
          384 709 -63 callsubr
          -52 -53 -17 -36 vhcurveto
          hintmask 1011111001100000
          -42 vlineto
          hintmask 1101111001100000
          -35 callsubr
          hintmask 1011111001100000
          -44 callsubr
          hintmask 1101110011100000
          42 vlineto
          -32 -57 17 52 hvcurveto
          13 709 rmoveto
          -140 -161 50 callsubr
          hvcurveto
          hintmask 1101110101100000
          -25 -23 -26 -39 hvcurveto
          hintmask 1101110011100000
          -41 25 -26 62 vhcurveto
          127 41 135 189 139 59 -71 -97 -96 -58 -87 -89 vhcurveto
          -40 vlineto
          hintmask 1101111001010000
          102 130 -72 -179 -168 -145 -61 -141 -76 -169 20 224 hvcurveto
          hintmask 1101110011100000
          35 4 40 14 33 vhcurveto
          -6 5 rlineto
          hintmask 1011111001010000
          -86 -15 -13 -73 -11 callsubr
          24 callsubr
          -91 151 -50 154 195 203 72 216 191 -129 83 -104 vhcurveto
          4 vlineto
          hintmask 1101111001100000
          63 6 80 52 128 vvcurveto
          200 -193 17 -85 vhcurveto
          endchar
        </CharString>
        <CharString name="C">
          0 callgsubr
          53 callgsubr
          hintmask 11111010
          -79 callsubr
          hintmask 11111100
          -59 callgsubr
          endchar
        </CharString>
        <CharString name="CR">
          -532 endchar
        </CharString>
        <CharString name="Cacute">
          0 callgsubr
          -50 220 53 callgsubr
          hintmask 11110101
          -79 callsubr
          hintmask 11110110
          -59 callgsubr
          57 161 rmoveto
          hintmask 11101110
          -107 callsubr
          endchar
        </CharString>
        <CharString name="Ccaron">
          0 callgsubr
          -50 220 53 callgsubr
          hintmask 11110101
          -79 callsubr
          hintmask 11110110
          -59 callgsubr
          27 43 -63 callgsubr
          hintmask 11101110
          -104 callsubr
        </CharString>
        <CharString name="Ccedilla">
          196 -239 36 111 39 40 49 42 169 272 246 5 50 hstemhm
          57 100 304 52 -52 77 44 106 -94 94 hintmask 1111111101000000
          428 820 rmoveto
          -208 -163 -136 -296 -279 144 -115 192 -7 hvcurveto
          -14 -71 -65 callsubr
          hintmask 1111111010100000
          -32 callgsubr
          46 vlineto
          85 4 87 26 61 vvcurveto
          57 18 45 38 67 -59 19 -35 hvcurveto
          -117 -4 -35 -94 -134 hhcurveto
          -152 -112 120 231 242 123 141 148 hvcurveto
          hintmask 1111111101000000
          -59 callgsubr
          endchar
        </CharString>
        <CharString name="Ccircumflex">
          0 callgsubr
          -50 204 16 -20 53 callgsubr
          hintmask 1111011010000000
          -79 callsubr
          hintmask 1111011100000000
          -59 callgsubr
          26 152 -86 callgsubr
          hintmask 1110101100000000
          -106 callsubr
        </CharString>
        <CharString name="Cdotaccent">
          0 callgsubr
          28 142 hstemhm
          57 100 200 141 84 106 -94 94 hintmask 1111111010000000
          -79 callsubr
          hintmask 1111111100000000
          -59 callgsubr
          -71 99 -97 callgsubr
          endchar
        </CharString>
        <CharString name="D">
          340 -149 48 111 -7 callgsubr
          631 35 106 48 -13 callgsubr
          hintmask 1101110011000000
          389 709 -73 callgsubr
          hintmask 1011110011000000
          -42 vlineto
          hintmask 1101110011000000
          -35 callsubr
          hintmask 1011110011000000
          -44 callsubr
          hintmask 1101100111000000
          -42 callsubr
          hintmask 1011110011000000
          -87 callgsubr
          hintmask 1101101011000000
          -51 callsubr
          endchar
        </CharString>
        <CharString name="Dcaron">
          340 -149 48 111 -7 callgsubr
          631 35 106 48 -48 218 -13 callgsubr
          hintmask 1101011001100000
          389 709 -73 callgsubr
          hintmask 1011011001100000
          -42 vlineto
          hintmask 1101011001100000
          -35 callsubr
          hintmask 1011011001100000
          -44 callsubr
          hintmask 1101100011100000
          -42 callsubr
          hintmask 1011101001100000
          -87 callgsubr
          hintmask 1101100101100000
          -51 callsubr
          27 43 -63 callgsubr
          hintmask 1101011001100000
          -104 callsubr
        </CharString>
        <CharString name="Dcroat">
          -85 callgsubr
        </CharString>
        <CharString name="Ddotbelow">
          337 37 callgsubr
          23 48 111 32 529 35 106 48 hstemhm
          56 79 -67 67 -43 43 165 90 -90 114 294 105 hintmask 1111110001100000
          298 -171 rmoveto
          -32 26 -26 32 32 26 26 32 33 -26 26 -32 -32 -26 -26 -33 vhcurveto
          hintmask 1111100110100000
          92 880 rmoveto
          -25 hlineto
          -25 -36 -29 -18 -66 hhcurveto
          -35 vlineto
          -88 callsubr
          -336 17 callsubr
          -42 vlineto
          31 72 10 31 -44 callsubr
          11 callsubr
          649 rmoveto
          -144 -169 -38 -91 -11 2 -21 10 -11 hvcurveto
          hintmask 1111110010100000
          -25 -23 -29 -39 -41 25 -33 62 hvcurveto
          135 51 131 199 235 80 -196 -206 -260 -94 -151 -240 -77 -162 20 224 35 4 40 14 33 vhcurveto
          -6 5 rlineto
          -86 -14 -13 -74 -11 callsubr
          hintmask 1111101010100000
          -10 -5 0 -29 -91 144 -50 152 284 165 147 313 252 -109 197 -299 hvcurveto
          endchar
        </CharString>
        <CharString name="E">
          72 -85 39 callsubr
          259 34 -34 92 hintmask 1011101010000000
          227 799 rmoveto
          hintmask 1011011010000000
          -83 callsubr
          hintmask 1011011010000000
          2 callgsubr
          hintmask 1011101010000000
          -14 callsubr
          endchar
        </CharString>
        <CharString name="Eacute">
          72 -85 -48 callsubr
          -42 233 79 callgsubr
          hintmask 1011101010000000
          227 799 rmoveto
          -83 callsubr
          2 callgsubr
          -18 -150 -10 -107 hhcurveto
          137 182 rmoveto
          hintmask 1011011010000000
          -107 callsubr
          endchar
        </CharString>
        <CharString name="Ebreve">
          72 -85 -48 callsubr
          70 52 -52 121 31 callgsubr
          -59 81 113 83 41 34 -34 92 hintmask 1011110100110000
          -24 callgsubr
          hintmask 1011110010110000
          -23 callgsubr
          hintmask 1011110100101000
          -77 callgsubr
          hintmask 0101110100110000
          -65 callgsubr
          hintmask 1011101100110000
          -98 callgsubr
          133 191 23 callsubr
          hintmask 1011110001110000
          1 callsubr
          hintmask 1011101001110000
          -36 callsubr
        </CharString>
        <CharString name="Ecaron">
          72 -85 -48 callsubr
          -42 233 79 callgsubr
          hintmask 1011101010000000
          227 799 rmoveto
          -83 callsubr
          2 callgsubr
          -18 -150 -10 -107 hhcurveto
          107 64 -63 callgsubr
          hintmask 1011011010000000
          -104 callsubr
        </CharString>
        <CharString name="Ecircumflex">
          72 -85 -48 callsubr
          -42 217 16 -20 79 callgsubr
          hintmask 1011101101000000
          -24 callgsubr
          hintmask 1011101011000000
          -23 callgsubr
          hintmask 1011101100100000
          -77 callgsubr
          hintmask 0101101101000000
          -65 callgsubr
          hintmask 1011101101000000
          -98 callgsubr
          106 173 -86 callgsubr
          hintmask 1011010101000000
          -106 callsubr
        </CharString>
        <CharString name="Edieresis">
          72 -85 -48 callsubr
          62 129 31 callgsubr
          -90 125 90 128 6 34 -34 92 hintmask 1011111001100000
          -24 callgsubr
          hintmask 1011110101100000
          -23 callgsubr
          hintmask 1011111001010000
          -77 callgsubr
          hintmask 0101111001100000
          -65 callgsubr
          hintmask 1011111001100000
          -98 callgsubr
          -93 126 rmoveto
          -36 29 -28 35 vhcurveto
          hintmask 1011110011100000
          9 callgsubr
        </CharString>
        <CharString name="Edotaccent">
          72 -85 -48 callsubr
          49 142 31 callgsubr
          9 141 109 34 -34 92 hintmask 1011111011000000
          -24 callgsubr
          hintmask 1011110111000000
          -23 callgsubr
          hintmask 1011111010100000
          -77 callgsubr
          hintmask 0101111011000000
          -65 callgsubr
          hintmask 1011111011000000
          -98 callgsubr
          9 120 -97 callgsubr
          endchar
        </CharString>
        <CharString name="Edotbelow">
          72 37 callgsubr
          27 39 callsubr
          47 116 96 34 -34 92 hintmask 1101110101100000
          227 799 rmoveto
          hintmask 1101101101100000
          -24 callsubr
          hintmask 1101110011100000
          -23 callgsubr
          hintmask 1101110101010000
          -77 callgsubr
          hintmask 1010110101100000
          -65 callgsubr
          hintmask 1101110101100000
          -103 callgsubr
          hintmask 1101101101100000
          2 callgsubr
          hintmask 1101110101100000
          -14 callsubr
          47 -970 -90 callsubr
        </CharString>
        <CharString name="Egrave">
          72 -85 -48 callsubr
          -42 233 79 callgsubr
          hintmask 1011101001000000
          -24 callgsubr
          hintmask 1011100101000000
          -23 callgsubr
          hintmask 1011101001000000
          -77 callgsubr
          hintmask 0101101010000000
          -65 callgsubr
          hintmask 1011101010000000
          -98 callgsubr
          22 182 -93 callsubr
          hintmask 1011011001000000
          -31 callsubr
        </CharString>
        <CharString name="Emacron">
          72 -85 -48 callsubr
          91 68 -56 56 79 callgsubr
          hintmask 1011110101000000
          -24 callgsubr
          hintmask 1011110011000000
          -23 callgsubr
          hintmask 1011110100100000
          -77 callgsubr
          hintmask 0101110101000000
          -65 callgsubr
          hintmask 1011101101000000
          -98 callgsubr
          7 103 rmoveto
          hintmask 1011110101000000
          58 26 -12 62 hhcurveto
          55 29 10 26 13 -7 18 -7 8 hvcurveto
          -5 -29 -30 -2 -23 hhcurveto
          hintmask 1011101101000000
          -74 callgsubr
        </CharString>
        <CharString name="Eng">
          329 -250 55 -55 231 29 -7 callgsubr
          760 60 -42 42 hstemhm
          181 54 103 100 241 55 hintmask 1010011110000000
          733 714 rmoveto
          -70 callgsubr
          23 -15 19 -38 -27 -19 -10 -21 -17 vhcurveto
          21 -17 -19 10 -27 hhcurveto
          -38 -15 -5 callsubr
          -557 vlineto
          -322 428 rlineto
          161 -121 -27 11 -50 hhcurveto
          40 -37 23 -46 vhcurveto
          hintmask 1010101110000000
          -51 -23 -29 -31 hvcurveto
          65 57 -46 -65 57 hvcurveto
          -538 -34 callsubr
          hintmask 1001101110000000
          -42 vlineto
          hintmask 1010101110000000
          45 callgsubr
          hintmask 1001101110000000
          44 callsubr
          hintmask 1010101110000000
          42 vlineto
          -26 callgsubr
          471 vlineto
          9 -13 10 -12 10 -13 353 -467 rcurveline
          28 -37 27 -47 -44 vvcurveto
          -110 -51 -34 -58 -86 -39 63 38 16 0 32 10 16 vhcurveto
          hintmask 0110101110000000
          7 -9 -19 4 -14 hhcurveto
          -35 -33 -23 -52 -42 22 -29 28 -11 hvcurveto
          -51 86 -23 83 166 11 110 261 vhcurveto
          endchar
        </CharString>
        <CharString name="Eogonek">
          72 -242 36 121 39 callsubr
          -4 79 184 34 -34 92 hintmask 1101110100100000
          227 799 rmoveto
          hintmask 1101101100100000
          -24 callsubr
          hintmask 1101110010100000
          -23 callgsubr
          hintmask 1101110100100000
          -86 -53 0 -36 vhcurveto
          -42 31 vlineto
          78 61 -45 -28 83 hvcurveto
          hintmask 1010110001010000
          -46 -25 -32 -39 -28 vvcurveto
          -13 7 -10 18 -4 vhcurveto
          -33 29 -27 44 26 47 9 36 19 vhcurveto
          -3 5 rlineto
          -11 -8 -28 -3 -11 hhcurveto
          -42 -19 27 32 25 12 29 24 19 hvcurveto
          -6 27 30 -5 34 hhcurveto
          110 39 42 49 26 -10 17 -16 hvcurveto
          -65 callgsubr
          hintmask 1101110100100000
          -103 callgsubr
          hintmask 1101101100100000
          2 callgsubr
          hintmask 1101110100100000
          -14 callsubr
          endchar
        </CharString>
        <CharString name="Eth">
          -85 callgsubr
        </CharString>
        <CharString name="Etilde">
          72 -85 -48 callsubr
          72 74 -29 29 -29 74 79 callgsubr
          hintmask 1011110010100000
          -24 callgsubr
          hintmask 1011110001100000
          -23 callgsubr
          hintmask 1011110010010000
          -77 callgsubr
          hintmask 0101110010100000
          -65 callgsubr
          hintmask 1011101010100000
          -98 callgsubr
          -50 86 14 callsubr
          hintmask 1011110010100000
          -68 callsubr
          hintmask 1011100110100000
          -56 callgsubr
        </CharString>
        <CharString name="Euro">
          181 -14 50 -50 221 49 68 98 68 102 173 5 50 hstemhm
          53 145 -100 100 389 69 hintmask 1011111010000000
          422 820 rmoveto
          -180 -111 -102 -218 -27 hvcurveto
          -37 -3 -14 -10 -19 vvcurveto
          -15 8 -18 6 -8 vhcurveto
          10 2 11 1 11 1 rrcurveto
          hintmask 1011110110000000
          -1 -14 0 -14 -15 vvcurveto
          -19 0 -18 1 -17 vhcurveto
          hintmask 0111111010000000
          -33 -4 -13 -10 -18 vvcurveto
          -15 8 -18 6 -8 vhcurveto
          12 2 14 2 13 1 rrcurveto
          -199 32 115 -81 171 hhcurveto
          93 107 24 68 hvcurveto
          17 1 15 28 30 vvcurveto
          33 -18 35 -53 2 vhcurveto
          hintmask 1011111010000000
          -57 -4 -15 -114 -134 hhcurveto
          -123 -77 78 153 -25 hvcurveto
          -3 49 29 -8 77 -95 callgsubr
          -64 -42 6 4 -48 hvcurveto
          -1 17 0 17 19 vvcurveto
          16 0 15 1 15 vhcurveto
          -2 55 27 -9 81 -95 callgsubr
          -62 -41 6 3 -46 hvcurveto
          173 21 73 98 124 hhcurveto
          128 37 -123 -46 hvcurveto
          -4 -1 -2 -3 vvcurveto
          53 22 29 40 47 -34 55 -50 2 hvcurveto
          55 -110 0 -45 vhcurveto
          endchar
        </CharString>
        <CharString name="F">
          118 10 -7 callgsubr
          372 63 176 35 31 100 -15 58 21 -20 hstemhm
          4 84 -65 65 148 90 hintmask 1011101101000000
          420 435 rmoveto
          -31 -32 0 3 -31 hvcurveto
          251 -25 vlineto
          -25 -36 -29 -18 -66 hhcurveto
          -35 vlineto
          -88 callsubr
          -376 17 callsubr
          hintmask 0111101101000000
          -42 vlineto
          hintmask 1011101101000000
          -35 callsubr
          hintmask 0111101101000000
          -44 callsubr
          hintmask 1011011101000000
          -54 callgsubr
          274 vlineto
          -8 41 42 -5 42 hhcurveto
          82 38 27 34 15 -8 13 -6 6 hvcurveto
          -20 -33 -47 -12 -57 hhcurveto
          -188 327 rmoveto
          hintmask 1011101101000000
          102 95 -85 78 hhcurveto
          51 14 36 19 hvcurveto
          50 18 26 27 31 -23 21 -16 4 hvcurveto
          -49 -45 -43 -15 -46 hhcurveto
          hintmask 1011011011000000
          -76 -89 43 -97 hhcurveto
          -103 -79 -48 -75 -17 4 -32 15 -8 hvcurveto
          hintmask 1011011101000000
          -22 -10 -16 -18 -30 vvcurveto
          -42 31 -32 61 vhcurveto
          -3 29 -5 24 33 vvcurveto
          124 70 44 74 vhcurveto
          endchar
        </CharString>
        <CharString name="G">
          1 callgsubr
          hstemhm
          57 100 415 113 -86 86 hintmask 10111101
          -82 callsubr
          hintmask 10111110
          -66 callsubr
          hintmask 11011101
          101 73 36 46 30 hvcurveto
          -24 -84 callgsubr
          endchar
        </CharString>
        <CharString name="Gbreve">
          1 callgsubr
          49 52 -52 121 hstemhm
          57 100 139 81 113 83 -1 113 -86 86 hintmask 1011110111010000
          -82 callsubr
          hintmask 1011110110100000
          -66 callsubr
          hintmask 1101101111010000
          101 73 36 46 30 hvcurveto
          -24 -84 callgsubr
          -201 987 23 callsubr
          hintmask 1101110111010000
          1 callsubr
          hintmask 1101101111010000
          -36 callsubr
        </CharString>
        <CharString name="Gcircumflex">
          1 callgsubr
          -50 204 16 -20 hstemhm
          57 100 415 113 -86 86 hintmask 1011101101000000
          -82 callsubr
          hintmask 1011101110000000
          -66 callsubr
          hintmask 1101101101000000
          101 73 36 46 30 hvcurveto
          -24 -84 callgsubr
          -228 969 -86 callgsubr
          hintmask 1101010110000000
          -106 callsubr
        </CharString>
        <CharString name="Gcommaaccent">
          229 -239 -21 81 36 23 156 -50 50 256 63 415 50 hstemhm
          57 100 117 125 173 113 -86 86 hintmask 1101111101000000
          -82 callsubr
          hintmask 1101111110000000
          -66 callsubr
          hintmask 1110111101000000
          101 73 36 46 30 hvcurveto
          -24 -84 callgsubr
          -415 -123 -96 callsubr
        </CharString>
        <CharString name="Gdotaccent">
          1 callgsubr
          28 142 hstemhm
          57 100 207 141 67 113 -86 86 hintmask 1011111101000000
          -82 callsubr
          hintmask 1011111110000000
          -66 callsubr
          hintmask 1101111101000000
          101 73 36 46 30 hvcurveto
          -24 -84 callgsubr
          -325 916 -97 callgsubr
          endchar
        </CharString>
        <CharString name="H">
          384 10 37 callsubr
          189 179 85 callgsubr
          hintmask 1011110101000000
          -47 callsubr
          hintmask 1011111001000000
          -43 callgsubr
          hintmask 0111111001000000
          -42 vlineto
          hintmask 1011111001000000
          -35 callsubr
          hintmask 0111110011000000
          -44 callsubr
          hintmask 1011110011000000
          42 vlineto
          hintmask 1011111000100000
          -12 callgsubr
          hintmask 1011111001000000
          -43 callgsubr
          hintmask 0111111001000000
          -42 vlineto
          hintmask 1011111001000000
          -35 callsubr
          hintmask 0111111000010000
          -44 callsubr
          hintmask 1011111000010000
          42 vlineto
          hintmask 1011111001000000
          -32 -57 5 64 hvcurveto
          603 vlineto
          hintmask 1011111000010000
          -15 callsubr
          hintmask 1011111001000000
          -40 -14 -19 -23 hvcurveto
          hintmask 1011111000100000
          4 callsubr
          hintmask 1011110011000000
          -15 callsubr
          hintmask 1011111001000000
          -40 -14 -19 -23 hvcurveto
          hintmask 1011110101000000
          28 callsubr
          endchar
        </CharString>
        <CharString name="Hbar">
          387 10 -7 callgsubr
          324 61 22 59 95 80 -68 68 137 42 hstemhm
          13 86 45 179 -139 139 76 callsubr
          169 hintmask 1011101100101000
          -47 callsubr
          hintmask 1011101110001000
          -43 callgsubr
          hintmask 0111101110001000
          -42 vlineto
          hintmask 1011101110001000
          -35 callsubr
          hintmask 0111101100011000
          -44 callsubr
          hintmask 1011101100011000
          42 vlineto
          hintmask 1011101110000100
          -12 callgsubr
          hintmask 1011101110001000
          -43 callgsubr
          hintmask 0111101110001000
          -42 vlineto
          hintmask 1011101110001000
          -35 callsubr
          hintmask 0111101110001000
          -44 callsubr
          hintmask 1011101110001000
          -54 callgsubr
          450 vlineto
          hintmask 1011101110000010
          51 28 11 25 13 -7 18 -7 8 hvcurveto
          hintmask 1011101110001000
          -22 -4 -23 -2 -20 -1 rrcurveto
          85 -8 callgsubr
          hintmask 1011011110000100
          73 callgsubr
          -84 vlineto
          -98 2 -133 7 -136 2 rrcurveto
          73 vlineto
          hintmask 1011101100011000
          -15 callsubr
          hintmask 1011101110001000
          -40 -14 -19 -23 hvcurveto
          hintmask 1011101100101000
          73 callgsubr
          -74 vlineto
          hintmask 1011101101001000
          -33 -3 -16 -11 -19 vvcurveto
          -15 7 -18 7 -8 vhcurveto
          hintmask 1011011100101000
          35 4 rlineto
          -185 vlineto
          -105 5 -29 55 51 vvcurveto
          224 77 rmoveto
          hintmask 1011101110000100
          141 -2 91 -7 135 -3 rrcurveto
          -95 vlineto
          -114 -9 -137 -48 -116 -18 rrcurveto
          endchar
        </CharString>
        <CharString name="Hcircumflex">
          384 10 -7 callgsubr
          324 61 22 59 312 42 170 -20 hstemhm
          13 86 45 179 76 callsubr
          179 hintmask 1011111010100000
          -47 callsubr
          hintmask 1011111100100000
          -43 callgsubr
          hintmask 0111111100100000
          -42 vlineto
          hintmask 1011111100100000
          -35 callsubr
          hintmask 0111111001100000
          -44 callsubr
          hintmask 1011111001100000
          42 vlineto
          hintmask 1011111100010000
          -12 callgsubr
          hintmask 1011111100100000
          -43 callgsubr
          hintmask 0111111100100000
          -42 vlineto
          hintmask 1011111100100000
          -35 callsubr
          hintmask 0111111100001000
          -44 callsubr
          hintmask 1011111100001000
          42 vlineto
          hintmask 1011111100100000
          -32 -57 5 64 hvcurveto
          603 vlineto
          hintmask 1011111100001000
          -15 callsubr
          hintmask 1011111100100000
          -40 -14 -19 -23 hvcurveto
          hintmask 1011111100010000
          4 callsubr
          hintmask 1011111001100000
          -15 callsubr
          hintmask 1011111100100000
          -40 -14 -19 -23 hvcurveto
          hintmask 1011111010100000
          28 callsubr
          436 476 rmoveto
          11 -3 -12 7 -13 hhcurveto
          -12 -10 -8 -10 -3 hvcurveto
          -106 callsubr
        </CharString>
        <CharString name="Hdotbelow">
          384 37 callgsubr
          122 37 callsubr
          39 116 34 179 85 callgsubr
          hintmask 1101111010110000
          -47 callsubr
          hintmask 1101111100110000
          -43 callgsubr
          hintmask 1011111100110000
          -42 vlineto
          hintmask 1101111100110000
          -35 callsubr
          hintmask 1011111001110000
          -44 callsubr
          hintmask 1101111001110000
          42 vlineto
          hintmask 1101111100101000
          -12 callgsubr
          hintmask 1101111100110000
          -43 callgsubr
          hintmask 1011111100110000
          -42 vlineto
          hintmask 1101111100110000
          -35 callsubr
          hintmask 1011111100100100
          -44 callsubr
          hintmask 1101111100100100
          42 vlineto
          hintmask 1101111100110000
          -32 -57 5 64 hvcurveto
          603 vlineto
          hintmask 1101111100100100
          -15 callsubr
          hintmask 1101111100110000
          -40 -14 -19 -23 hvcurveto
          hintmask 1101111100101000
          4 callsubr
          hintmask 1101111001110000
          -15 callsubr
          hintmask 1101111100110000
          -40 -14 -19 -23 hvcurveto
          hintmask 1101111010110000
          28 callsubr
          352 -667 -90 callsubr
        </CharString>
        <CharString name="I">
          -164 -29 callsubr
          61 callsubr
          hintmask 10110000
          229 -94 callgsubr
          hintmask 10101000
          -53 callgsubr
          hintmask 01110000
          -42 vlineto
          hintmask 10110000
          25 callsubr
          hintmask 01100100
          31 82 -47 callgsubr
          hintmask 10100100
          42 vlineto
          hintmask 10110000
          88 callgsubr
        </CharString>
        <CharString name="IJ">
          177 67 callsubr
          49 -7 callgsubr
          778 42 61 callsubr
          -157 101 219 90 hintmask 1010110001000000
          229 -94 callgsubr
          hintmask 1010101001000000
          -53 callgsubr
          hintmask 1001110001000000
          -42 vlineto
          hintmask 1010110001000000
          25 callsubr
          hintmask 1001100101000000
          31 82 -47 callgsubr
          hintmask 1010100101000000
          42 vlineto
          hintmask 1010110001000000
          -26 callgsubr
          352 603 -68 callgsubr
          hintmask 0110100011000000
          13 callsubr
          -38 callsubr
          endchar
        </CharString>
        <CharString name="Iacute">
          -164 -29 callsubr
          -42 212 61 callsubr
          hintmask 10101000
          229 -94 callgsubr
          hintmask 10100100
          -53 callgsubr
          hintmask 01101000
          -42 vlineto
          hintmask 10101000
          25 callsubr
          hintmask 01100010
          31 82 -47 callgsubr
          hintmask 10100010
          42 vlineto
          hintmask 10011000
          -26 callgsubr
          12 870 -62 callgsubr
          endchar
        </CharString>
        <CharString name="Ibreve">
          -164 -29 callsubr
          49 52 -52 121 hstemhm
          45 81 13 90 10 83 hintmask 10110111
          229 -94 callgsubr
          -53 callgsubr
          hintmask 01110111
          -42 vlineto
          hintmask 10110111
          25 callsubr
          hintmask 01110111
          31 82 -47 callgsubr
          hintmask 10101111
          42 vlineto
          -26 callgsubr
          8 879 23 callsubr
          hintmask 10110111
          1 callsubr
          hintmask 10101111
          -36 callsubr
        </CharString>
        <CharString name="Icircumflex">
          -164 -29 callsubr
          -42 196 16 -20 hstemhm
          49 51 callgsubr
          hintmask 10101100
          228 -94 callgsubr
          hintmask 10101010
          -53 callgsubr
          hintmask 01101100
          -42 vlineto
          hintmask 10101100
          25 callsubr
          hintmask 01101001
          31 82 -47 callgsubr
          hintmask 10101001
          42 vlineto
          hintmask 10101100
          -26 callgsubr
          -19 861 -86 callgsubr
          hintmask 10010100
          -106 callsubr
        </CharString>
        <CharString name="Idieresis">
          -164 -29 callsubr
          41 129 hstemhm
          11 128 -89 179 -90 189 -99 128 hintmask 10110100
          229 -94 callgsubr
          hintmask 10111001
          -53 callgsubr
          hintmask 01111001
          -42 vlineto
          hintmask 10111001
          25 callsubr
          hintmask 01110010
          31 82 -47 callgsubr
          hintmask 10110010
          42 vlineto
          hintmask 10110100
          -26 callgsubr
          hintmask 10111001
          -218 814 rmoveto
          -101 callsubr
          218 hmoveto
          -101 callsubr
          endchar
        </CharString>
        <CharString name="Idotaccent">
          -164 -29 callsubr
          28 142 hstemhm
          50 179 -116 141 -115 90 -90 189 hintmask 10111000
          229 -94 callgsubr
          hintmask 10110010
          -53 callgsubr
          10 callgsubr
          82 10 31 hhcurveto
          hintmask 01110001
          31 82 -47 callgsubr
          hintmask 10110001
          42 vlineto
          hintmask 10111000
          -26 callgsubr
          hintmask 10110100
          -116 808 -97 callgsubr
          endchar
        </CharString>
        <CharString name="Idotbelow">
          -164 37 callgsubr
          122 -7 callgsubr
          778 42 hstemhm
          50 179 -103 116 -103 90 -90 189 hintmask 11011000
          229 -94 callgsubr
          hintmask 11010010
          -53 callgsubr
          hintmask 10111000
          -42 vlineto
          hintmask 11011000
          25 callsubr
          hintmask 10110001
          31 82 -47 callgsubr
          hintmask 11010001
          42 vlineto
          hintmask 11011000
          -26 callgsubr
          hintmask 11010100
          -103 -282 -90 callsubr
        </CharString>
        <CharString name="Igrave">
          -164 -29 callsubr
          -42 212 hstemhm
          50 179 -90 189 hintmask 10101000
          229 -94 callgsubr
          hintmask 10100100
          -53 callgsubr
          hintmask 01101000
          -42 vlineto
          hintmask 10101000
          25 callsubr
          hintmask 01100100
          31 82 -47 callgsubr
          hintmask 10100100
          42 vlineto
          hintmask 10011000
          -26 callgsubr
          -103 870 -93 callsubr
          -31 callsubr
        </CharString>
        <CharString name="Imacron">
          -164 -29 callsubr
          70 68 -56 56 61 callsubr
          hintmask 10110100
          229 -94 callgsubr
          hintmask 10110010
          -53 callgsubr
          63 callsubr
          25 callsubr
          hintmask 01110001
          31 82 -47 callgsubr
          hintmask 10110001
          42 vlineto
          hintmask 10101100
          -26 callgsubr
          -114 791 rmoveto
          hintmask 10110100
          58 26 -12 62 hhcurveto
          55 29 10 26 13 -7 18 -7 8 hvcurveto
          -5 -29 -30 -2 -23 hhcurveto
          hintmask 10101100
          -74 callgsubr
        </CharString>
        <CharString name="Iogonek">
          -164 -235 36 208 33 -21 -21 778 42 hstemhm
          50 179 -147 77 -20 90 -90 189 hintmask 11011000
          229 -94 callgsubr
          hintmask 11010010
          -53 callgsubr
          hintmask 10111000
          -42 vlineto
          hintmask 11010100
          25 61 7 2 37 hvcurveto
          -47 -45 -34 -34 -54 -82 callgsubr
          46 27 37 33 58 hvcurveto
          hintmask 10110001
          -3 37 49 -5 23 hhcurveto
          hintmask 11010001
          42 vlineto
          hintmask 11011000
          88 callgsubr
        </CharString>
        <CharString name="Itilde">
          -164 -29 callsubr
          51 74 -29 29 -29 74 61 callsubr
          hintmask 1011001000000000
          229 -94 callgsubr
          hintmask 1011000100000000
          -53 callgsubr
          hintmask 0111001000000000
          -42 vlineto
          hintmask 1011001000000000
          25 callsubr
          hintmask 0111000010000000
          31 82 -47 callgsubr
          hintmask 1011000010000000
          42 vlineto
          hintmask 1010101000000000
          -26 callgsubr
          -175 774 14 callsubr
          hintmask 1011001000000000
          -68 callsubr
          hintmask 1010011000000000
          -56 callgsubr
        </CharString>
        <CharString name="J">
          -187 67 callsubr
          817 42 hstemhm
          -193 101 219 90 hintmask 10111000
          217 714 -68 callgsubr
          13 callsubr
          hintmask 01111000
          -38 callsubr
          endchar
        </CharString>
        <CharString name="Jcircumflex">
          -187 67 callsubr
          817 42 -42 196 16 -20 hstemhm
          -193 101 219 90 hintmask 10101110
          217 714 -68 callgsubr
          13 callsubr
          hintmask 01101110
          -38 callsubr
          -19 851 -86 callgsubr
          hintmask 10010110
          -106 callsubr
        </CharString>
        <CharString name="K">
          10 -7 callgsubr
          779 40 1 -20 hstemhm
          50 -16 callsubr
          99 198 -198 229 hintmask 10101001
          29 callgsubr
          hintmask 01101001
          -42 vlineto
          hintmask 10101001
          31 97 10 31 hhcurveto
          hintmask 01101001
          31 107 -10 32 hhcurveto
          hintmask 10101010
          -30 callgsubr
          hintmask 10011001
          -58 callgsubr
          hintmask 10100101
          -53 callgsubr
          hintmask 01101001
          -42 vlineto
          hintmask 10101001
          25 callsubr
          hintmask 01101001
          31 82 -47 callgsubr
          hintmask 10101001
          42 vlineto
          88 callgsubr
        </CharString>
        <CharString name="Kcommaaccent">
          36 callgsubr
          74 0 -7 callgsubr
          779 40 1 -20 hstemhm
          50 -16 callsubr
          99 198 -198 229 -201 125 hintmask 1010101001000000
          29 callgsubr
          hintmask 1001101000100000
          -42 vlineto
          hintmask 1010101000100000
          31 97 10 31 hhcurveto
          hintmask 1001101000100000
          31 107 -10 32 hhcurveto
          hintmask 1010101010000000
          -30 callgsubr
          hintmask 1100011000100000
          -58 callgsubr
          hintmask 1010100100100000
          -53 callgsubr
          hintmask 1001101000100000
          -42 vlineto
          hintmask 1010101000100000
          25 callsubr
          hintmask 1001101001000000
          31 82 -47 callgsubr
          hintmask 1010101001000000
          42 vlineto
          -26 callgsubr
          hintmask 1100101000100000
          127 -231 -96 callsubr
        </CharString>
        <CharString name="L">
          11 43 callgsubr
          hstemhm
          47 179 -90 90 hintmask 11110000
          226 714 rmoveto
          -61 callgsubr
          hintmask 11101000
          20 callgsubr
          hintmask 11110000
          -78 callgsubr
          endchar
        </CharString>
        <CharString name="Lacute">
          11 43 callgsubr
          -42 212 hstemhm
          47 -16 callsubr
          hintmask 11101000
          226 714 rmoveto
          -61 callgsubr
          hintmask 11100100
          20 callgsubr
          hintmask 11011000
          -78 callgsubr
          3 880 -62 callgsubr
          endchar
        </CharString>
        <CharString name="Lcaron">
          11 43 callgsubr
          -42 212 hstemhm
          46 -16 callsubr
          hintmask 11101000
          225 714 rmoveto
          -61 callgsubr
          hintmask 11100100
          20 callgsubr
          hintmask 11011000
          -78 callgsubr
          -27 762 -63 callgsubr
          -104 callsubr
        </CharString>
        <CharString name="Lcommaaccent">
          11 -239 -21 67 86 -86 129 85 -21 778 42 hstemhm
          47 179 -154 125 -61 90 hintmask 11011100
          226 714 rmoveto
          -61 callgsubr
          hintmask 11011001
          20 callgsubr
          hintmask 11011100
          -78 callgsubr
          hintmask 10111010
          -154 -221 -96 callsubr
        </CharString>
        <CharString name="Ldot">
          11 -193 86 128 -21 281 154 343 82 callsubr
          44 153 hintmask 11111010
          226 714 rmoveto
          -61 callgsubr
          hintmask 11110110
          20 callgsubr
          hintmask 11111010
          -78 callgsubr
          44 257 rmoveto
          48 callsubr
        </CharString>
        <CharString name="Lslash">
          19 43 callgsubr
          hstemhm
          6 228 -179 -16 callsubr
          hintmask 11110000
          234 388 rmoveto
          79 39 75 36 33 vvcurveto
          16 -22 19 -14 6 vhcurveto
          -35 -29 -40 -27 -43 -19 rrcurveto
          252 vlineto
          -15 callsubr
          hintmask 11101000
          -40 -14 -19 -23 hvcurveto
          hintmask 11100100
          73 callgsubr
          -295 vlineto
          hintmask 11110000
          -70 -34 -68 -38 -28 vvcurveto
          -18 25 -18 12 -5 vhcurveto
          hintmask 11100100
          31 26 34 20 36 19 rrcurveto
          -215 vlineto
          hintmask 11110000
          -78 callgsubr
          endchar
        </CharString>
        <CharString name="M">
          436 -29 callsubr
          hstemhm
          48 143 -54 54 459 179 -91 91 -91 190 hintmask 10110100
          829 -94 callgsubr
          38 28 -11 -20 14 hvcurveto
          -17 -25 -17 -32 -16 -43 -191 -504 rcurveline
          -185 482 -13 35 -26 62 -28 26 rlinecurve
          19 15 28 11 36 hhcurveto
          23 -13 19 -44 -31 -29 -14 -17 -17 vhcurveto
          17 -17 -29 14 -31 hhcurveto
          -44 69 callsubr
          hintmask 10101100
          -53 callgsubr
          63 callsubr
          45 callgsubr
          hintmask 01110100
          44 callsubr
          hintmask 10110100
          42 vlineto
          -26 callgsubr
          523 vlineto
          hintmask 01110010
          249 -634 rlineto
          46 hlineto
          252 633 rlineto
          -522 vlineto
          hintmask 10110100
          -64 -63 -5 -36 vhcurveto
          63 callsubr
          27 89 10 27 hhcurveto
          hintmask 01110001
          27 92 -10 27 hhcurveto
          hintmask 10110001
          42 vlineto
          hintmask 10110100
          88 callgsubr
        </CharString>
        <CharString name="N">
          -1 callsubr
          49 callsubr
          hintmask 00101110
          -98 callsubr
          vhcurveto
          hintmask 10010110
          -51 -23 -29 -31 hvcurveto
          54 49 -29 -47 47 hvcurveto
          -573 -34 callsubr
          hintmask 00110110
          -42 vlineto
          hintmask 10010110
          45 callgsubr
          hintmask 00110110
          44 callsubr
          hintmask 10010110
          -36 callgsubr
          rrcurveto
          hintmask 01010110
          388 -553 rlineto
          endchar
        </CharString>
        <CharString name="NULL">
          -266 endchar
        </CharString>
        <CharString name="Nacute">
          -1 callsubr
          170 -20 49 callsubr
          hintmask 00101111
          -98 callsubr
          vhcurveto
          hintmask 10010111
          -51 -23 -29 -31 hvcurveto
          54 49 -29 -47 47 hvcurveto
          -573 -34 callsubr
          hintmask 00110111
          -42 vlineto
          hintmask 10010111
          45 callgsubr
          hintmask 00110111
          44 callsubr
          hintmask 10010111
          -36 callgsubr
          rrcurveto
          hintmask 01010111
          388 -553 rlineto
          hintmask 00110111
          -174 990 -62 callgsubr
          endchar
        </CharString>
        <CharString name="Ncaron">
          -1 callsubr
          -42 212 49 callsubr
          hintmask 00101011
          -98 callsubr
          vhcurveto
          hintmask 10010011
          -51 -23 -29 -31 hvcurveto
          54 49 -29 -47 47 hvcurveto
          -573 -34 callsubr
          hintmask 00110011
          -42 vlineto
          hintmask 10010011
          45 callgsubr
          hintmask 00110011
          44 callsubr
          hintmask 10010011
          -36 callgsubr
          rrcurveto
          hintmask 01010011
          388 -553 rlineto
          hintmask 00100111
          -223 872 -63 callgsubr
          -104 callsubr
        </CharString>
        <CharString name="Ncommaaccent">
          291 -239 -21 270 -7 callgsubr
          778 42 hstemhm
          160 54 180 125 122 54 hintmask 10111110
          -98 callsubr
          -51 -23 -29 -31 vhcurveto
          54 49 -29 -47 47 hvcurveto
          -573 vlineto
          hintmask 11011110
          -64 -63 -5 -36 vhcurveto
          hintmask 10111110
          -42 vlineto
          hintmask 11011110
          45 callgsubr
          hintmask 10111110
          44 callsubr
          hintmask 11011110
          -36 callgsubr
          388 -553 rcurveline
          hintmask 10111110
          -266 -111 -96 callsubr
        </CharString>
        <CharString name="Ndotaccent">
          -1 callsubr
          28 142 hstemhm
          160 54 134 141 152 54 hintmask 0010111110000000
          -98 callsubr
          vhcurveto
          hintmask 1001011110000000
          -51 -23 -29 -31 hvcurveto
          54 49 -29 -47 47 hvcurveto
          -573 -34 callsubr
          hintmask 0011011110000000
          -42 vlineto
          hintmask 1001011110000000
          45 callgsubr
          hintmask 0011011110000000
          44 callsubr
          hintmask 1001011110000000
          -36 callgsubr
          rrcurveto
          hintmask 0101011110000000
          388 -553 rlineto
          hintmask 0011011110000000
          -312 928 -97 callgsubr
          endchar
        </CharString>
        <CharString name="Ntilde">
          -1 callsubr
          51 74 -29 29 -29 74 49 callsubr
          hintmask 0010110011000000
          -98 callsubr
          vhcurveto
          hintmask 1001010011000000
          -51 -23 -29 -31 hvcurveto
          54 49 -29 -47 47 hvcurveto
          -573 -34 callsubr
          hintmask 0011010011000000
          -42 vlineto
          hintmask 1001010011000000
          45 callgsubr
          hintmask 0011010011000000
          44 callsubr
          hintmask 1001010011000000
          -36 callgsubr
          rrcurveto
          hintmask 0101010011000000
          388 -553 rlineto
          hintmask 0011001011000000
          -401 894 14 callsubr
          hintmask 1001010011000000
          -68 callsubr
          hintmask 1001000111000000
          -56 callgsubr
        </CharString>
        <CharString name="O">
          10 callsubr
          hstem
          84 callsubr
          vstem
          -105 callgsubr
          endchar
        </CharString>
        <CharString name="OE">
          450 -95 51 -51 215 -120 42 330 58 338 41 hstemhm
          60 105 354 90 253 40 -24 77 hintmask 1011111010000000
          609 799 rmoveto
          -28 -95 10 -43 hhcurveto
          -254 -129 -155 -240 -144 15 -153 90 hvcurveto
          -107 139 -10 117 vhcurveto
          40 hlineto
          18 callgsubr
          hintmask 0101111010000000
          -1 callgsubr
          hintmask 1011111100000000
          -44 -18 -43 -69 -64 -118 38 107 vhcurveto
          293 vlineto
          -11 43 60 -11 55 hhcurveto
          82 38 27 34 15 -8 13 -6 6 hvcurveto
          -29 -33 -50 -8 -47 hhcurveto
          -42 -55 6 4 -37 52 callgsubr
          2 callgsubr
          -14 callsubr
          -90 -671 rmoveto
          -86 -53 0 -47 -178 -76 168 201 201 76 156 177 52 49 -18 -52 vhcurveto
          endchar
        </CharString>
        <CharString name="Oacute">
          10 callsubr
          -52 222 hstemhm
          84 callsubr
          hintmask 11011000
          -105 callgsubr
          67 946 rmoveto
          hintmask 10111000
          -107 callsubr
          endchar
        </CharString>
        <CharString name="Obreve">
          10 callsubr
          49 52 -52 121 hstemhm
          59 105 125 81 113 83 104 105 hintmask 11011111
          -105 callgsubr
          63 955 23 callsubr
          hintmask 11101111
          1 callsubr
          hintmask 11011111
          -36 callsubr
        </CharString>
        <CharString name="Ocircumflex">
          10 callsubr
          -52 206 16 -20 hstemhm
          84 callsubr
          hintmask 11011100
          -105 callgsubr
          36 937 -86 callgsubr
          hintmask 10101100
          -106 callsubr
        </CharString>
        <CharString name="Odieresis">
          10 callsubr
          41 129 hstem
          59 105 91 57 callgsubr
          69 105 vstem
          -105 callgsubr
          -163 890 rmoveto
          -101 callsubr
          218 hmoveto
          -101 callsubr
          endchar
        </CharString>
        <CharString name="Odotbelow">
          300 37 callgsubr
          98 49 733 52 hstem
          59 105 200 116 190 105 vstem
          -105 callgsubr
          -54 -206 -90 callsubr
        </CharString>
        <CharString name="Ograve">
          10 callsubr
          -52 222 hstemhm
          84 callsubr
          hintmask 11011000
          -105 callgsubr
          -48 946 -93 callsubr
          hintmask 10111000
          -31 callsubr
        </CharString>
        <CharString name="Ohungarumlaut">
          10 callsubr
          39 131 hstem
          84 callsubr
          vstem
          -105 callgsubr
          6 946 -80 callsubr
        </CharString>
        <CharString name="Omacron">
          10 callsubr
          70 47 callsubr
          84 callsubr
          hintmask 11011100
          -105 callgsubr
          -59 867 rmoveto
          hintmask 11101100
          58 26 -12 62 hhcurveto
          55 29 10 26 13 -7 18 -7 8 hvcurveto
          -5 -29 -30 -2 -23 hhcurveto
          hintmask 11011100
          -74 callgsubr
        </CharString>
        <CharString name="Oogonek">
          300 -235 36 186 48 733 52 hstem
          59 105 156 77 273 105 vstem
          775 426 rmoveto
          122 -29 170 -99 vhcurveto
          93 -149 9 -58 -248 -133 -162 -244 -144 15 -153 90 vhcurveto
          -95 108 -29 106 -6 vhcurveto
          -35 -34 -23 -27 -50 -20 callsubr
          28 46 hvcurveto
          186 13 144 153 273 vvcurveto
          -357 -391 12 callsubr
        </CharString>
        <CharString name="Oslash">
          312 -25 -21 32 49 733 52 21 -20 hstem
          65 105 506 105 vstem
          -58 callsubr
          endchar
        </CharString>
        <CharString name="Oslashacute">
          311 -25 -21 32 49 733 52 -52 222 hstemhm
          65 105 506 105 hintmask 11101100
          -58 callsubr
          280 779 rmoveto
          hintmask 11011100
          -107 callsubr
          endchar
        </CharString>
        <CharString name="Otilde">
          10 callsubr
          83 callgsubr
          84 callsubr
          hintmask 11010110
          -105 callgsubr
          -120 850 14 callsubr
          hintmask 11100110
          -68 callsubr
          hintmask 11001110
          -56 callgsubr
        </CharString>
        <CharString name="P">
          180 10 -7 callgsubr
          314 48 269 35 106 47 hstemhm
          -2 88 -50 50 158 90 249 100 hintmask 1011110110000000
          334 709 -73 callgsubr
          hintmask 0111110110000000
          -42 vlineto
          hintmask 1011110110000000
          -35 callsubr
          hintmask 0111110110000000
          -44 callsubr
          hintmask 1011101110000000
          -54 callgsubr
          18 277 rmoveto
          -24 3 27 -50 94 hhcurveto
          147 60 123 113 137 -88 132 -263 -138 -158 -36 -92 -13 3 -23 10 -8 hvcurveto
          hintmask 1011110110000000
          -33 -18 -33 -31 -54 53 -26 35 hvcurveto
          172 68 97 186 219 24 -134 -97 -59 -9 -120 -126 -50 -30 19 11 -16 vhcurveto
          endchar
        </CharString>
        <CharString name="Q">
          301 -141 73 -8 111 -48 48 733 52 hstemhm
          59 105 133 39 334 55 -55 105 hintmask 01011110
          336 -137 66 callgsubr
          hintmask 10111110
          69 92 -65 96 hhcurveto
          36 37 13 -12 callsubr
          -57 -71 36 19 -65 hvcurveto
          hintmask 10111101
          191 8 149 153 278 vvcurveto
          122 -29 170 -99 vhcurveto
          93 -149 9 -58 -248 -133 -162 -244 -144 15 -153 90 vhcurveto
          -83 84 -33 92 -10 vhcurveto
          -19 -10 -12 -20 -29 vvcurveto
          75 callsubr
          hintmask 01011110
          82 172 12 callsubr
        </CharString>
        <CharString name="R">
          261 -2 44 -21 -21 631 35 104 50 33 callgsubr
          259 97 hintmask 10111011
          14 callgsubr
          hintmask 01111011
          17 38 1 1 38 hvcurveto
          hintmask 10110111
          -57 callsubr
          hintmask 10111011
          -64 callsubr
          hintmask 01111011
          -42 vlineto
          31 72 10 31 -44 callsubr
          hintmask 10111011
          -54 callgsubr
          endchar
        </CharString>
        <CharString name="Racute">
          -64 callgsubr
          154 870 -62 callgsubr
          endchar
        </CharString>
        <CharString name="Rcaron">
          -64 callgsubr
          94 752 -63 callgsubr
          -104 callsubr
        </CharString>
        <CharString name="Rcommaaccent">
          261 36 callgsubr
          62 0 44 -21 -21 631 35 0 104 0 50 33 callgsubr
          95 125 39 97 hintmask 1010010101110000
          14 callgsubr
          hintmask 1101010101110000
          17 38 1 1 38 hvcurveto
          hintmask 1010101011110000
          -57 callsubr
          hintmask 1101010101110000
          -25 -23 -26 -39 -41 25 -26 62 hvcurveto
          144 56 118 215 146 79 -55 -129 -138 -90 -43 -130 -13 vhcurveto
          -34 vlineto
          -39 351 rmoveto
          -25 hlineto
          -25 -36 -29 -18 -66 hhcurveto
          hintmask 1010101101110000
          -35 vlineto
          -88 callsubr
          -396 17 callsubr
          hintmask 1101010101110000
          -42 vlineto
          31 72 10 31 -44 callsubr
          hintmask 1010010101110000
          -54 callgsubr
          95 -231 rmoveto
          -30 20 -23 29 -4 vhcurveto
          -5 -21 -10 -20 -18 -23 23 -19 rcurveline
          58 56 28 45 37 vvcurveto
          hintmask 1101010101110000
          -45 callgsubr
        </CharString>
        <CharString name="Rdotbelow">
          261 37 callgsubr
          110 44 -21 -21 631 35 104 50 33 callgsubr
          100 116 43 97 hintmask 1101110111000000
          14 callgsubr
          hintmask 1011110111000000
          17 38 1 1 38 hvcurveto
          hintmask 1101101111000000
          -57 callsubr
          hintmask 1101110111000000
          -64 callsubr
          hintmask 1011110111000000
          -42 vlineto
          31 72 10 31 -44 callsubr
          hintmask 1101110111000000
          -54 callgsubr
          100 -282 -90 callsubr
        </CharString>
        <CharString name="S">
          113 -14 71 callsubr
          327 85 -85 102 hintmask 11010100
          -5 callgsubr
          hintmask 10101010
          -75 callsubr
          hintmask 10110010
          -76 callsubr
          hintmask 11010100
          11 callgsubr
          endchar
        </CharString>
        <CharString name="Sacute">
          113 -14 34 callsubr
          -52 222 21 callsubr
          hintmask 11001010
          -5 callgsubr
          hintmask 10100101
          -75 callsubr
          hintmask 10011001
          -76 callsubr
          hintmask 11001010
          11 callgsubr
          -184 313 rmoveto
          hintmask 10011010
          -107 callsubr
          endchar
        </CharString>
        <CharString name="Scaron">
          113 -14 34 callsubr
          -52 222 21 callsubr
          hintmask 11001010
          -5 callgsubr
          hintmask 10100101
          -75 callsubr
          hintmask 10011001
          -76 callsubr
          hintmask 11001010
          11 callgsubr
          -214 195 -63 callgsubr
          hintmask 10011010
          -104 callsubr
        </CharString>
        <CharString name="Schwa">
          226 -14 60 300 70 181 215 -64 64 hstemhm
          58 94 440 109 hintmask 11101100
          333 748 rmoveto
          179 74 -131 -201 6 hvcurveto
          -361 hlineto
          -99 -74 -41 -146 -152 81 -40 62 hvcurveto
          -43 74 -8 54 240 132 157 255 205 -85 209 -272 -140 -144 -55 -90 -45 35 -25 42 vhcurveto
          7 hlineto
          hintmask 11011100
          133 41 82 18 66 hhcurveto
          -181 -508 rmoveto
          71 24 35 48 vhcurveto
          369 hlineto
          -177 -3 -85 -123 -153 hhcurveto
          -89 -111 41 153 hvcurveto
          endchar
        </CharString>
        <CharString name="Scircumflex">
          113 -14 34 callsubr
          -52 206 16 -20 21 callsubr
          hintmask 1100110100000000
          -5 callgsubr
          hintmask 1010101010000000
          -75 callsubr
          hintmask 1001010010000000
          -76 callsubr
          hintmask 1100110100000000
          11 callgsubr
          -215 304 -86 callgsubr
          hintmask 1001010100000000
          -106 callsubr
        </CharString>
        <CharString name="Sdotbelow">
          113 37 callgsubr
          98 71 callsubr
          114 116 97 85 -85 102 hintmask 1110101100000000
          -5 callgsubr
          hintmask 1101011010000000
          -75 callsubr
          hintmask 1101101010000000
          -76 callsubr
          hintmask 1110101100000000
          11 callgsubr
          -298 -839 -90 callsubr
        </CharString>
        <CharString name="T">
          219 10 32 5 callgsubr
          hintmask 1010001110000000
          324 111 rmoveto
          -43 callgsubr
          hintmask 0110001110000000
          -42 vlineto
          hintmask 1010001110000000
          -35 callsubr
          hintmask 0110001110000000
          -44 callsubr
          hintmask 1000101110000000
          -9 callgsubr
          hintmask 1001011110000000
          -46 callgsubr
          hintmask 1000101110000000
          53 callsubr
          hintmask 1010001110000000
          -49 callsubr
          endchar
        </CharString>
        <CharString name="Tbar">
          223 10 -7 callgsubr
          290 68 -56 68 214 22 callgsubr
          22 -20 hstemhm
          11 99 216 90 hintmask 1010100011100000
          326 111 rmoveto
          -43 callgsubr
          hintmask 0110100011100000
          -42 vlineto
          hintmask 1010100011100000
          -35 callsubr
          hintmask 0110100011100000
          -44 callsubr
          hintmask 1010001011100000
          -54 callgsubr
          181 vlineto
          -1 24 27 -1 33 hhcurveto
          55 29 10 26 13 -7 18 -7 8 hvcurveto
          -5 -28 -31 -2 -23 hhcurveto
          -20 -25 1 2 -27 hvcurveto
          268 vlineto
          39 10 35 48 vhcurveto
          hintmask 1001010111100000
          35 callgsubr
          -192 vlineto
          2 -30 -32 1 -30 hhcurveto
          -51 -24 -10 -24 -15 7 -18 7 -8 hvcurveto
          4 35 7 3 39 hhcurveto
          27 23 -1 -1 22 hvcurveto
          -143 225 rmoveto
          -41 -32 25 65 107 87 39 104 hvcurveto
          155 90 -86 84 hhcurveto
          40 25 19 38 hvcurveto
          55 12 29 22 26 -18 20 -19 13 hvcurveto
          hintmask 1010001011100000
          53 callsubr
          hintmask 1010100011100000
          -49 callsubr
          endchar
        </CharString>
        <CharString name="Tcaron">
          219 10 -7 callgsubr
          584 22 callgsubr
          -59 229 hstemhm
          9 99 216 90 hintmask 1010000110000000
          324 111 rmoveto
          -43 callgsubr
          hintmask 0110000110000000
          -42 vlineto
          hintmask 1010000110000000
          -35 callsubr
          hintmask 0110000110000000
          -44 callsubr
          hintmask 1000100110000000
          -9 callgsubr
          hintmask 1001010110000000
          -46 callgsubr
          hintmask 1000100110000000
          53 callsubr
          hintmask 1010000110000000
          -49 callsubr
          217 344 -63 callgsubr
          hintmask 1001001110000000
          -104 callsubr
        </CharString>
        <CharString name="Tdotbelow">
          219 37 callgsubr
          122 32 5 callgsubr
          -90 110 hintmask 1101000111000000
          324 111 rmoveto
          -43 callgsubr
          hintmask 1011000111000000
          -42 vlineto
          hintmask 1101000111000000
          -35 callsubr
          hintmask 1011000111000000
          -44 callsubr
          hintmask 1100010111000000
          -9 callgsubr
          hintmask 1100101111000000
          -46 callgsubr
          hintmask 1100010111000000
          53 callsubr
          hintmask 1101000110100000
          -49 callsubr
          137 -690 -90 callsubr
        </CharString>
        <CharString name="Thorn">
          102 -240 20 -9 -21 268 47 464 47 155 35 43 -20 hstemhm
          55 159 -93 93 274 109 hintmask 1011111010000000
          214 18 rmoveto
          20 hlineto
          266 97 141 150 126 -97 141 -266 hvcurveto
          -20 233 -28 hlineto
          -25 -36 -29 -18 -66 hhcurveto
          -35 vlineto
          hintmask 1011110110000000
          -88 callsubr
          -758 vlineto
          hintmask 1011111010000000
          -52 -30 -17 -36 vhcurveto
          hintmask 0111111010000000
          -30 vlineto
          hintmask 1011111010000000
          -37 callsubr
          hintmask 0111111010000000
          -52 callgsubr
          hintmask 1011111010000000
          30 -92 callsubr
          216 vmoveto
          463 vlineto
          1 8 7 0 9 hhcurveto
          198 52 -116 -106 -143 -72 -99 -178 hvcurveto
          endchar
        </CharString>
        <CharString name="U">
          -14 52 740 42 1 72 callsubr
          hintmask 11011000
          568 296 rmoveto
          -196 -54 -62 -122 -123 -58 64 194 vhcurveto
          418 -8 callgsubr
          36 callsubr
          hvcurveto
          -414 vlineto
          -237 99 -77 167 162 109 73 253 vhcurveto
          403 vlineto
          -70 callgsubr
          hintmask 10111000
          -73 callsubr
          33 -23 -41 hvcurveto
          endchar
        </CharString>
        <CharString name="Uacute">
          -14 52 740 42 -42 212 -169 72 callsubr
          hintmask 11001100
          568 296 rmoveto
          -196 -54 -62 -122 -123 -58 64 194 vhcurveto
          418 -8 callgsubr
          36 callsubr
          hvcurveto
          -414 vlineto
          -237 99 -77 167 162 109 73 253 vhcurveto
          403 vlineto
          -70 callgsubr
          hintmask 10011100
          -73 callsubr
          33 -23 -41 hvcurveto
          -86 266 rmoveto
          hintmask 10101100
          -107 callsubr
          endchar
        </CharString>
        <CharString name="Ubreve">
          24 callgsubr
          68 52 -52 121 74 callsubr
          43 81 113 83 37 90 hintmask 1101011110000000
          568 296 rmoveto
          -196 -54 -62 -122 -123 -58 64 194 vhcurveto
          418 -8 callgsubr
          36 callsubr
          hvcurveto
          -414 vlineto
          -237 99 -77 167 162 109 73 253 vhcurveto
          403 vlineto
          -70 callgsubr
          hintmask 1010111110000000
          -73 callsubr
          33 -23 -41 hvcurveto
          -122 275 23 callsubr
          hintmask 1101011110000000
          1 callsubr
          hintmask 1100111110000000
          -36 callsubr
        </CharString>
        <CharString name="Ucircumflex">
          -14 52 740 42 -42 196 -153 -20 189 72 callsubr
          hintmask 11001110
          568 296 rmoveto
          -196 -54 -62 -122 -123 -58 64 194 vhcurveto
          418 -8 callgsubr
          36 callsubr
          hvcurveto
          -414 vlineto
          -237 99 -77 167 162 109 73 253 vhcurveto
          403 vlineto
          -70 callgsubr
          hintmask 10011110
          -73 callsubr
          33 -23 -41 hvcurveto
          -149 257 -86 callgsubr
          hintmask 10100110
          -106 callsubr
        </CharString>
        <CharString name="Udieresis">
          24 callgsubr
          60 129 74 callsubr
          9 57 callgsubr
          2 90 hintmask 11011111
          568 296 rmoveto
          -196 -54 -62 -122 -123 -58 64 194 vhcurveto
          418 -8 callgsubr
          36 callsubr
          hvcurveto
          -414 vlineto
          -237 99 -77 167 162 109 73 253 vhcurveto
          403 vlineto
          -70 callgsubr
          hintmask 10111111
          -73 callsubr
          33 -23 -41 hvcurveto
          -348 210 rmoveto
          -101 callsubr
          218 hmoveto
          -101 callsubr
          endchar
        </CharString>
        <CharString name="Udotbelow">
          37 callgsubr
          98 52 740 42 1 -20 74 callsubr
          125 116 116 90 hintmask 11101110
          568 296 rmoveto
          -196 -54 -62 -122 -123 -58 64 194 vhcurveto
          418 -8 callgsubr
          36 callsubr
          hvcurveto
          -414 vlineto
          -237 99 -77 167 162 109 73 253 vhcurveto
          403 vlineto
          -70 callgsubr
          hintmask 11011110
          -73 callsubr
          33 -23 -41 hvcurveto
          -232 -886 -90 callsubr
        </CharString>
        <CharString name="Ugrave">
          -14 52 740 42 -42 212 -169 72 callsubr
          hintmask 11001100
          568 296 rmoveto
          -196 -54 -62 -122 -123 -58 64 194 vhcurveto
          418 -8 callgsubr
          36 callsubr
          hvcurveto
          -414 vlineto
          -237 99 -77 167 162 109 73 253 vhcurveto
          403 vlineto
          -70 callgsubr
          hintmask 10011100
          -73 callsubr
          33 -23 -41 hvcurveto
          -263 266 -93 callsubr
          hintmask 10101100
          -31 callsubr
        </CharString>
        <CharString name="Uhungarumlaut">
          24 callgsubr
          58 131 34 callgsubr
          hintmask 11011100
          568 296 rmoveto
          -196 -54 -62 -122 -123 -58 64 194 vhcurveto
          418 -8 callgsubr
          36 callsubr
          hvcurveto
          -414 vlineto
          -237 99 -77 167 162 109 73 253 vhcurveto
          403 vlineto
          -70 callgsubr
          hintmask 10111100
          -73 callsubr
          33 -23 -41 hvcurveto
          -182 266 -80 callsubr
        </CharString>
        <CharString name="Umacron">
          24 callgsubr
          89 68 -56 56 34 callgsubr
          hintmask 11010110
          568 296 rmoveto
          -196 -54 -62 -122 -123 -58 64 194 vhcurveto
          418 -8 callgsubr
          36 callsubr
          hvcurveto
          -414 vlineto
          -237 99 -77 167 162 109 73 253 vhcurveto
          403 vlineto
          -70 callgsubr
          hintmask 10101110
          -73 callsubr
          33 -23 -41 hvcurveto
          -244 187 rmoveto
          hintmask 11010110
          58 26 -12 62 hhcurveto
          55 29 10 26 13 -7 18 -7 8 hvcurveto
          -5 -29 -30 -2 -23 hhcurveto
          hintmask 11001110
          -74 callgsubr
        </CharString>
        <CharString name="Uogonek">
          -235 36 186 51 740 42 1 -20 74 callsubr
          90 77 190 90 hintmask 11101110
          568 296 rmoveto
          -196 -54 -62 -122 -123 -58 64 194 vhcurveto
          418 -8 callgsubr
          36 callsubr
          hvcurveto
          -414 vlineto
          -224 88 -80 150 -9 vhcurveto
          -35 -34 -23 -27 -50 -82 callgsubr
          39 21 36 27 46 hvcurveto
          140 12 92 80 232 vvcurveto
          403 vlineto
          -70 callgsubr
          hintmask 11011110
          -73 callsubr
          33 -23 -41 hvcurveto
          endchar
        </CharString>
        <CharString name="Uring">
          24 callgsubr
          53 136 74 callsubr
          116 134 107 90 hintmask 11011110
          568 296 rmoveto
          -196 -54 -62 -122 -123 -58 64 194 vhcurveto
          418 -8 callgsubr
          36 callsubr
          hvcurveto
          -414 vlineto
          -237 99 -77 167 162 109 73 253 vhcurveto
          403 vlineto
          -70 callgsubr
          hintmask 10111110
          -73 callsubr
          33 -23 -41 hvcurveto
          -241 207 -42 callgsubr
          endchar
        </CharString>
        <CharString name="Utilde">
          24 callgsubr
          70 74 -29 29 -29 74 34 callgsubr
          hintmask 11010011
          568 296 rmoveto
          -196 -54 -62 -122 -123 -58 64 194 vhcurveto
          418 -8 callgsubr
          36 callsubr
          hvcurveto
          -414 vlineto
          -237 99 -77 167 162 109 73 253 vhcurveto
          403 vlineto
          -70 callgsubr
          hintmask 10101011
          -73 callsubr
          33 -23 -41 hvcurveto
          -305 170 14 callsubr
          hintmask 11010011
          -68 callsubr
          hintmask 11000111
          -56 callgsubr
        </CharString>
        <CharString name="V">
          159 6 -21 793 42 hstem
          613 714 rmoveto
          40 12 21 24 56 hhcurveto
          23 -15 19 -44 -31 -24 -14 -17 -15 vhcurveto
          17 -14 -32 14 -29 hhcurveto
          -40 -14 -19 -23 hvcurveto
          50 41 -13 -38 -47 -112 -393 -59 -211 hvcurveto
          -147 523 rlineto
          -23 81 -11 29 18 vvcurveto
          38 41 13 50 vhcurveto
          23 -14 -16 callgsubr
          -38 -100 callgsubr
          -40 -14 -19 -23 hvcurveto
          56 22 -24 -40 11 hvcurveto
          192 -729 130 15 rlineto
          endchar
        </CharString>
        <CharString name="W">
          49 callgsubr
          hstem
          -104 callgsubr
          endchar
        </CharString>
        <CharString name="Wacute">
          49 callgsubr
          -42 212 hstemhm
          hintmask 11000000
          -104 callgsubr
          -114 902 rmoveto
          hintmask 10100000
          -107 callsubr
          endchar
        </CharString>
        <CharString name="Wcircumflex">
          49 callgsubr
          -42 196 16 -20 hstemhm
          hintmask 11010000
          -104 callgsubr
          -145 893 -86 callgsubr
          hintmask 10100000
          -106 callsubr
        </CharString>
        <CharString name="Wdieresis">
          49 callgsubr
          41 129 hstem
          494 90 vstem
          -104 callgsubr
          -344 846 rmoveto
          -101 callsubr
          218 hmoveto
          -101 callsubr
          endchar
        </CharString>
        <CharString name="Wgrave">
          49 callgsubr
          -42 212 hstemhm
          hintmask 11000000
          -104 callgsubr
          -229 902 -93 callsubr
          hintmask 10100000
          -31 callsubr
        </CharString>
        <CharString name="X">
          258 -10 52 -52 74 -54 -7 callgsubr
          743 72 -47 47 hstemhm
          hintmask 10001000
          449 423 rmoveto
          122 222 rlineto
          73 40 27 25 39 hhcurveto
          32 28 -19 -31 15 hvcurveto
          5 13 3 17 15 vvcurveto
          47 -37 30 -60 -59 -25 -25 -119 -66 vhcurveto
          -104 -186 -118 185 rlineto
          -11 18 -7 18 13 vvcurveto
          hintmask 01000100
          30 31 19 49 vhcurveto
          27 -18 15 -35 -39 -57 -16 -15 -15 vhcurveto
          15 -15 -55 16 -39 hhcurveto
          -35 -20 -15 -27 hvcurveto
          47 41 -22 -42 29 hvcurveto
          208 -305 -146 -239 rlineto
          -69 -42 -32 -27 -38 hhcurveto
          -31 -28 19 30 -12 hvcurveto
          -6 -18 -1 -8 -13 vvcurveto
          -52 35 -32 56 55 24 22 122 77 vhcurveto
          129 206 120 -175 rlineto
          18 -26 9 -24 -19 vvcurveto
          hintmask 00101000
          -32 -33 -22 -48 vhcurveto
          hintmask 00011000
          -42 vlineto
          hintmask 00101000
          31 97 10 31 hhcurveto
          hintmask 00011000
          31 107 -10 32 hhcurveto
          hintmask 10001000
          42 vlineto
          -52 -59 31 38 -25 hvcurveto
          endchar
        </CharString>
        <CharString name="Y">
          42 callsubr
          -1 -20 hstemhm
          hintmask 10100000
          -81 callgsubr
          hintmask 01100000
          -42 vlineto
          hintmask 10100000
          -35 callsubr
          hintmask 01100000
          -44 callsubr
          hintmask 10100000
          -54 callgsubr
          251 vlineto
          143 300 rlineto
          52 25 39 64 57 hhcurveto
          5 6 -1 -1 6 hvcurveto
          hintmask 10010000
          30 -3 -27 13 -30 hhcurveto
          -29 -31 -12 -18 -14 hvcurveto
          22 -14 -23 8 -23 hhcurveto
          hintmask 10100000
          -37 -37 -21 -20 hvcurveto
          3 9 9 2 8 hhcurveto
          33 24 -24 -21 -21 -11 -25 -15 -32 hvcurveto
          -102 -218 -145 238 rlineto
          -12 20 -6 17 13 vvcurveto
          endchar
        </CharString>
        <CharString name="Yacute">
          42 callsubr
          -42 212 hstemhm
          hintmask 10100000
          -81 callgsubr
          hintmask 01100000
          -42 vlineto
          hintmask 10100000
          -35 callsubr
          hintmask 01100000
          -44 callsubr
          hintmask 10100000
          -93 callgsubr
          247 251 rmoveto
          hintmask 10010000
          -107 callsubr
          endchar
        </CharString>
        <CharString name="Ycircumflex">
          42 callsubr
          -42 196 16 -20 hstemhm
          hintmask 10101000
          -81 callgsubr
          hintmask 01101000
          -42 vlineto
          hintmask 10101000
          -35 callsubr
          hintmask 01101000
          -44 callsubr
          hintmask 10101000
          -93 callgsubr
          176 242 -86 callgsubr
          hintmask 10010000
          -106 callsubr
        </CharString>
        <CharString name="Ydieresis">
          42 callsubr
          41 129 hstemhm
          186 128 0 90 0 128 hintmask 10111010
          -81 callgsubr
          hintmask 01111010
          -42 vlineto
          hintmask 10111010
          -35 callsubr
          hintmask 01111010
          -44 callsubr
          hintmask 10110100
          -93 callgsubr
          hintmask 10111010
          -23 195 rmoveto
          -101 callsubr
          218 hmoveto
          -101 callsubr
          endchar
        </CharString>
        <CharString name="Ygrave">
          42 callsubr
          -42 212 hstemhm
          hintmask 10100000
          -81 callgsubr
          hintmask 01100000
          -42 vlineto
          hintmask 10100000
          -35 callsubr
          hintmask 01100000
          -44 callsubr
          hintmask 10100000
          -93 callgsubr
          42 251 -93 callsubr
          hintmask 10010000
          -31 callsubr
        </CharString>
        <CharString name="Ytilde">
          42 callsubr
          83 callgsubr
          314 90 hintmask 10110010
          -81 callgsubr
          hintmask 01110010
          -42 vlineto
          hintmask 10110010
          -35 callsubr
          hintmask 01110010
          -44 callsubr
          hintmask 10101010
          -93 callgsubr
          20 155 14 callsubr
          hintmask 10110010
          -68 callsubr
          hintmask 10100110
          -56 callgsubr
        </CharString>
        <CharString name="Z">
          42 callgsubr
          hstemhm
          43 80 453 80 hintmask 10111000
          491 749 -48 callgsubr
          hintmask 01111000
          -86 callsubr
          endchar
        </CharString>
        <CharString name="Zacute">
          42 callgsubr
          -60 241 hstemhm
          43 80 453 80 hintmask 10101100
          491 749 -48 callgsubr
          hintmask 01101100
          -86 callsubr
          175 232 rmoveto
          hintmask 10011100
          -107 callsubr
          endchar
        </CharString>
        <CharString name="Zcaron">
          42 callgsubr
          -60 241 hstemhm
          43 80 453 80 hintmask 10101100
          491 749 -48 callgsubr
          hintmask 01101100
          -86 callsubr
          145 114 -63 callgsubr
          hintmask 10011100
          -104 callsubr
        </CharString>
        <CharString name="Zdotaccent">
          42 callgsubr
          39 142 hstemhm
          43 80 170 141 142 80 hintmask 10111110
          491 749 -48 callgsubr
          hintmask 01111110
          -86 callsubr
          47 170 -97 callgsubr
          endchar
        </CharString>
        <CharString name="Zdotbelow">
          154 37 callgsubr
          98 81 -67 67 682 60 hstemhm
          43 80 175 116 162 80 hintmask 11011110
          491 749 -48 callgsubr
          hintmask 10111110
          -86 callsubr
          52 -920 -90 callsubr
        </CharString>
        <CharString name="a">
          -27 -14 46 -24 24 -11 -21 228 39 59 142 -46 46 -2 callgsubr
          183 90 hintmask 1001100011000000
          -51 callgsubr
          hintmask 1001100101000000
          -79 callgsubr
          hintmask 1001011001000000
          50 53 15 35 81 14 -77 -69 vhcurveto
          -37 vlineto
          15 -31 -39 13 -57 hhcurveto
          -100 -71 -52 -85 -88 66 -56 99 61 42 32 35 30 hvcurveto
          hintmask 0011101001000000
          -53 vlineto
          hintmask 0101101001000000
          17 callgsubr
          hintmask 0011101001000000
          -34 callgsubr
          hintmask 1001101001000000
          -195 -67 rmoveto
          -60 -39 43 61 58 44 34 53 37 39 -11 -15 31 hvcurveto
          -100 vlineto
          -38 -24 -35 -32 -46 hhcurveto
          endchar
        </CharString>
        <CharString name="a.ss01">
          -38 -102 36 52 46 198 47 49 142 -47 47 -2 callgsubr
          184 90 hintmask 1111000110000000
          425 242 rmoveto
          177 -70 49 -122 -55 -59 -10 -30 vhcurveto
          hintmask 1111001010000000
          -79 callgsubr
          hintmask 1110110010000000
          50 53 14 35 81 15 -76 -69 vhcurveto
          -37 vlineto
          15 -31 -39 13 -58 hhcurveto
          -100 -71 -52 -85 -88 66 -56 99 61 44 21 34 30 hvcurveto
          -56 3 13 -28 39 hhcurveto
          -35 31 -24 52 40 23 14 21 14 vhcurveto
          -3 5 rlineto
          -2 -4 -13 -2 -13 hhcurveto
          -44 -49 22 130 hvcurveto
          -198 134 rmoveto
          37 40 -11 -17 31 hvcurveto
          -102 vlineto
          -35 -25 -37 -23 -44 hhcurveto
          -60 -39 43 61 57 44 27 53 hvcurveto
          endchar
        </CharString>
        <CharString name="aacute">
          -41 callsubr
          257 -89 callsubr
          41 681 -52 callsubr
          endchar
        </CharString>
        <CharString name="abreve">
          -41 callsubr
          77 35 callsubr
          36 94 -63 84 -62 87 -57 32 138 89 -44 90 hintmask 1001101010001010
          -51 callgsubr
          hintmask 1001101010100100
          -79 callgsubr
          hintmask 1001011011000010
          -85 callsubr
          hintmask 0011101011000010
          -53 vlineto
          hintmask 0101101011000100
          17 callgsubr
          hintmask 0011101011000010
          -34 callgsubr
          hintmask 1001100101000010
          -72 callgsubr
          58 643 rmoveto
          hintmask 1001101010010100
          1 -5 1 -6 -5 vvcurveto
          -55 callsubr
        </CharString>
        <CharString name="acircumflex">
          -41 callsubr
          263 -89 callsubr
          45 681 -76 callgsubr
          -70 -57 -83 hvcurveto
          -6 -4 0 -7 -5 vvcurveto
          -15 11 -11 14 6 7 2 5 6 vhcurveto
          53 41 40 56 15 13 15 -13 41 -56 53 -41 rrcurveto
          -5 6 5 -2 5 hhcurveto
          13 15 7 18 7 -2 7 -4 3 hvcurveto
          57 -82 15 70 -44 hhcurveto
          -3 -2 0 -2 -4 hvcurveto
          endchar
        </CharString>
        <CharString name="acute">
          -286 567 -21 179 -20 hstem
          161 713 -52 callsubr
          endchar
        </CharString>
        <CharString name="acute.cap">
          -281 880 -21 131 -20 hstem
          183 981 -62 callgsubr
          endchar
        </CharString>
        <CharString name="adieresis">
          -41 callsubr
          77 129 51 callsubr
          -84 132 -80 32 138 135 -90 90 hintmask 1001101000101000
          -51 callgsubr
          hintmask 1001101010010000
          -79 callgsubr
          hintmask 1001011100001000
          -85 callsubr
          hintmask 0011101100001000
          -53 vlineto
          hintmask 0101101100010000
          17 callgsubr
          hintmask 0011101100001000
          -34 callgsubr
          hintmask 1001101100001000
          -72 callgsubr
          -158 577 rmoveto
          -36 29 -28 35 vhcurveto
          hintmask 1001101001010000
          9 callgsubr
        </CharString>
        <CharString name="ae">
          58 callgsubr
          -2 callgsubr
          184 97 199 93 hintmask 1010101001100000
          26 callsubr
          hintmask 1010010011100000
          40 callgsubr
          hintmask 1010100101100000
          -79 callgsubr
          hintmask 1001011001100000
          2 callsubr
          hintmask 0110101001100000
          31 -22 14 -27 vhcurveto
          -4 hlineto
          hintmask 1001101001100000
          3 callsubr
          hintmask 1010011001100000
          27 callgsubr
          endchar
        </CharString>
        <CharString name="aeacute">
          58 callgsubr
          257 -20 -2 callgsubr
          184 97 199 93 hintmask 1010101100110000
          26 callsubr
          hintmask 1010011001110000
          40 callgsubr
          hintmask 1010101010110000
          -79 callgsubr
          hintmask 1001011100110000
          2 callsubr
          hintmask 0110101100110000
          31 -22 14 -27 vhcurveto
          -4 hlineto
          hintmask 1001101100110000
          3 callsubr
          hintmask 1010011100110000
          27 callgsubr
          -55 472 -52 callsubr
          endchar
        </CharString>
        <CharString name="agrave">
          -41 callsubr
          257 -89 callsubr
          -20 681 rmoveto
          8 -7 -11 4 -10 hhcurveto
          -102 callgsubr
        </CharString>
        <CharString name="amacron">
          -41 callsubr
          120 68 -56 56 -2 callgsubr
          183 90 hintmask 1001101000110000
          -51 callgsubr
          hintmask 1001101001010000
          -79 callgsubr
          hintmask 1001011010010000
          -85 callsubr
          hintmask 0011101010010000
          -53 vlineto
          hintmask 0101101010010000
          17 callgsubr
          hintmask 0011101010010000
          -34 callgsubr
          hintmask 1001100110010000
          -72 callgsubr
          -64 568 rmoveto
          hintmask 1001101010010000
          58 26 -12 62 hhcurveto
          55 29 10 26 13 -7 18 -7 8 hvcurveto
          -5 -29 -30 -2 -23 hhcurveto
          hintmask 1001100110010000
          -74 callgsubr
        </CharString>
        <CharString name="ampersand">
          283 -10 63 207 185 -48 48 321 54 hstemhm
          54 96 -33 87 181 82 -60 80 94 89 -89 219 hintmask 1101100110000000
          670 294 rmoveto
          101 -55 50 -82 -79 -47 -46 -60 -49 32 -30 41 8 10 1 2 11 vhcurveto
          1 4 rlineto
          -9 4 -14 11 39 vvcurveto
          hintmask 1011011001000000
          44 17 32 29 24 24 -23 -75 -91 -35 -59 -47 -38 vhcurveto
          -87 64 -90 110 -58 116 rrcurveto
          91 71 112 59 121 vvcurveto
          99 -74 69 -95 -93 -88 -66 -129 -60 19 -71 32 -72 vhcurveto
          hintmask 1101101001000000
          -62 -49 -52 -59 -93 vvcurveto
          -131 103 -100 164 65 63 16 28 54 vhcurveto
          -28 51 53 -16 51 hhcurveto
          31 66 6 47 hvcurveto
          18 6 27 11 36 vvcurveto
          29 -17 28 -47 12 vhcurveto
          -3 -3 rlineto
          -55 -6 -23 -54 -65 hhcurveto
          -24 -26 7 13 -28 hvcurveto
          hintmask 1101101010000000
          66 54 43 77 90 vvcurveto
          -344 -242 rmoveto
          -102 -74 64 100 55 22 42 33 36 hvcurveto
          59 -105 84 -101 91 -68 rrcurveto
          -17 -40 -41 -6 -32 hhcurveto
          hintmask 1101011010000000
          -122 571 rmoveto
          110 59 33 43 45 34 -37 -62 -91 -73 -52 -77 -54 vhcurveto
          -20 52 -11 53 48 vvcurveto
          endchar
        </CharString>
        <CharString name="aogonek">
          -27 -235 36 185 46 -24 24 -11 -21 238 39 49 142 -46 46 -2 callgsubr
          111 77 -5 90 hintmask 1100110001010000
          -51 callgsubr
          hintmask 1100110010100000
          -79 callgsubr
          hintmask 1100101100010000
          -85 callsubr
          hintmask 1001110100010000
          -53 vlineto
          hintmask 1010110100100000
          -42 -40 -30 -27 -57 -82 callgsubr
          46 27 37 33 58 hvcurveto
          hintmask 1001110100010000
          46 17 -8 -25 callsubr
          hintmask 1100110100010000
          -72 callgsubr
          endchar
        </CharString>
        <CharString name="apostrophe">
          -384 584 -21 255 -20 hstemhm
          4 134 -72 72 hintmask 11010000
          55 697 rmoveto
          13 callgsubr
          hintmask 11100000
          77 callgsubr
        </CharString>
        <CharString name="approxequal">
          23 161 74 -9 74 21 74 -9 74 3 -20 hstemhm
          66 39 -27 27 hintmask 10010010
          105 325 66 callgsubr
          hintmask 10101100
          69 92 -65 96 hhcurveto
          36 37 14 -12 callsubr
          hintmask 10010010
          -76 -102 65 -78 hhcurveto
          -38 -25 -24 -42 hvcurveto
          hintmask 01101010
          75 callsubr
          -2 -160 66 callgsubr
          hintmask 10101100
          69 92 -65 96 hhcurveto
          36 37 14 -12 callsubr
          hintmask 01101100
          29 callsubr
        </CharString>
        <CharString name="aring">
          -41 callsubr
          78 50 78 52 -2 callgsubr
          4 49 78 51 1 90 hintmask 1001101100111100
          -51 callgsubr
          hintmask 1001101101011100
          -79 callgsubr
          hintmask 1001011110011100
          -85 callsubr
          hintmask 0011101110011100
          -53 vlineto
          hintmask 0101101110011100
          17 callgsubr
          hintmask 0011101110011100
          -34 callgsubr
          hintmask 1001101110011100
          -72 callgsubr
          -74 604 -43 callsubr
          endchar
        </CharString>
        <CharString name="aringacute">
          -41 callsubr
          48 50 78 52 209 -20 -2 callgsubr
          -6 49 78 51 11 90 hintmask 1001101110010110
          -51 callgsubr
          hintmask 1001101110100110
          -79 callgsubr
          hintmask 1001011111001110
          -85 callsubr
          hintmask 0011101111001110
          -53 vlineto
          hintmask 0101101111001110
          17 callgsubr
          hintmask 0011101111001110
          -34 callgsubr
          hintmask 1001101111001110
          -72 callgsubr
          -84 574 -43 callsubr
          76 287 -52 callsubr
          endchar
        </CharString>
        <CharString name="asciicircum">
          -43 507 -21 269 -20 hstem
          270 743 rmoveto
          8 -5 -10 4 -13 hhcurveto
          -12 -8 -5 -7 -5 hvcurveto
          2 -4 -2 0 -3 hhcurveto
          -60 20 -124 -93 -111 hvcurveto
          -6 -5 0 -6 -5 vvcurveto
          -8 4 -8 5 -4 vhcurveto
          -3 4 5 -3 7 hhcurveto
          6 7 2 5 6 hvcurveto
          73 77 56 101 19 22 19 -22 57 -101 73 -77 rrcurveto
          -5 6 7 -2 6 hhcurveto
          8 3 3 3 5 hvcurveto
          9 4 0 8 8 vvcurveto
          5 -1 7 -5 4 vhcurveto
          93 -110 19 124 -60 hhcurveto
          -3 -2 0 -2 -4 hvcurveto
          endchar
        </CharString>
        <CharString name="asciitilde">
          44 161 74 -9 74 3 -20 hstemhm
          74 39 hintmask 01010000
          113 165 66 callgsubr
          hintmask 10110000
          69 92 -65 96 hhcurveto
          36 37 14 -12 callsubr
          hintmask 01010000
          29 callsubr
        </CharString>
        <CharString name="asterisk">
          -42 363 -21 86 96 244 -20 hstemhm
          60 236 -102 81 -81 236 -215 60 hintmask 11110000
          80 624 rmoveto
          -1 -2 0 -2 -2 vvcurveto
          -12 8 -15 17 -4 vhcurveto
          26 -6 10 11 83 -36 -92 -43 -5 16 -23 -6 rrcurveto
          -16 -5 -9 -12 -12 vvcurveto
          -3 1 -3 1 -2 vhcurveto
          -13 -9 -7 -11 -11 vvcurveto
          -17 14 -11 14 8 8 2 6 8 vhcurveto
          -4 4 8 -3 8 hhcurveto
          36 -26 28 79 92 hvcurveto
          hintmask 11101000
          -14 -97 -26 4 -34 vvcurveto
          hintmask 11100010
          -14 11 -13 10 -2 vhcurveto
          -23 12 -14 18 18 12 15 22 vhcurveto
          hintmask 11110000
          10 1 11 12 15 vvcurveto
          35 -22 -18 -16 109 vhcurveto
          -76 86 -21 -29 35 hhcurveto
          8 8 3 4 4 hvcurveto
          -6 8 8 -2 7 hhcurveto
          hintmask 11100100
          15 14 11 17 11 -7 11 -13 9 hvcurveto
          1 2 1 3 3 vvcurveto
          18 -17 12 -29 -15 -23 3 29 -61 vhcurveto
          82 36 10 -11 27 6 rrcurveto
          17 4 8 15 12 2 -1 2 2 vvcurveto
          12 8 7 11 11 vvcurveto
          16 -15 12 -14 -7 -8 -3 -5 -8 vhcurveto
          5 -3 -7 3 -8 hhcurveto
          -8 -11 -4 -8 -7 hvcurveto
          -15 -18 12 -10 -71 -62 rrcurveto
          hintmask 11110000
          14 104 23 -16 35 vvcurveto
          hintmask 11100010
          15 -11 12 -10 1 vhcurveto
          22 -12 15 -18 -18 -12 -14 -23 vhcurveto
          hintmask 11101000
          -10 -3 -11 -12 -14 vvcurveto
          -34 26 3 13 -93 vhcurveto
          -73 63 11 11 -14 18 rrcurveto
          8 -8 -10 4 -9 hhcurveto
          -7 -7 -3 -5 -3 hvcurveto
          5 -8 -8 3 -8 hhcurveto
          -13 -15 -12 -16 -11 6 -11 13 -8 hvcurveto
          endchar
        </CharString>
        <CharString name="at">
          353 -188 62 -48 48 108 46 331 46 119 50 hstemhm
          58 81 90 91 219 74 123 81 hintmask 1011111110000000
          456 524 rmoveto
          201 79 -161 -141 -123 -33 -71 -39 -40 -11 23 91 hvcurveto
          258 vlineto
          -44 -24 -16 -34 hvcurveto
          31 -27 -32 24 -55 hhcurveto
          -109 -93 -72 -145 -115 73 -91 108 56 63 25 61 38 hvcurveto
          -51 8 27 -35 65 hhcurveto
          93 57 104 148 163 -112 177 -248 -238 -161 -155 -233 -262 226 -112 152 53 14 14 14 6 hvcurveto
          hintmask 0111111110000000
          -10 18 17 -4 14 hhcurveto
          43 28 35 34 6 -1 12 -2 9 hvcurveto
          -35 -28 -61 -13 -67 hhcurveto
          -210 -121 128 189 182 105 151 212 hvcurveto
          -27 -497 rmoveto
          -80 -29 71 82 100 24 79 87 80 28 -65 -82 -102 -25 -83 -85 hvcurveto
          endchar
        </CharString>
        <CharString name="atilde">
          -41 callsubr
          105 19 callsubr
          36 94 -63 84 -32 32 183 90 hintmask 1001101001001100
          -51 callgsubr
          hintmask 1001101001010100
          -79 callgsubr
          hintmask 1001011001100100
          -85 callsubr
          hintmask 0011101001100100
          -53 vlineto
          hintmask 0101101001100100
          17 callgsubr
          hintmask 0011101001100100
          -34 callgsubr
          hintmask 1001100101100100
          -72 callgsubr
          -111 525 15 callgsubr
          hintmask 1001101001100100
          -67 callgsubr
          hintmask 1001100011100100
          -56 callsubr
        </CharString>
        <CharString name="b">
          55 -14 47 -25 25 -12 -21 421 47 268 -2 callsubr
          hstemhm
          26 71 callgsubr
          267 97 hintmask 1001111010000000
          181 57 rmoveto
          -48 32 46 -23 63 hhcurveto
          131 93 99 150 149 -91 84 -122 -72 -45 -29 -51 -34 hvcurveto
          421 -100 callsubr
          hintmask 0011110110000000
          61 5 -23 -219 hvcurveto
          -395 vlineto
          -52 -37 -17 -32 vhcurveto
          -30 vlineto
          hintmask 0101111010000000
          31 17 8 54 hhcurveto
          hintmask 0011111010000000
          19 8 -1 -7 29 hvcurveto
          227 vmoveto
          134 72 60 69 75 52 -70 -126 vhcurveto
          hintmask 1001111010000000
          -87 -25 -105 -103 -96 -44 90 104 vhcurveto
          endchar
        </CharString>
        <CharString name="backslash">
          -15 -93 -21 936 -20 hstem
          492 -84 rmoveto
          -115 327 -134 221 -140 358 -77 -33 rcurveline
          87 -246 229 -418 76 -239 rrcurveto
          endchar
        </CharString>
        <CharString name="bar">
          -254 -154 -21 986 -20 hstemhm
          103 70 -70 83 hintmask 11100000
          181 -173 rmoveto
          -6 52 -2 65 70 vvcurveto
          hintmask 11010000
          216 13 267 204 27 callsubr
          -225 -10 -185 -202 vvcurveto
          -68 3 -76 5 -78 vhcurveto
          endchar
        </CharString>
        <CharString name="braceleft">
          75 callgsubr
          122 95 -39 39 cntrmask 11100000
          hintmask 11110000
          28 305 rmoveto
          58 -1 36 -58 -165 vvcurveto
          -64 vlineto
          hintmask 11101000
          -89 10 -49 46 vhcurveto
          -37 30 -22 38 31 31 65 callsubr
          -11 -11 -15 -8 -18 hhcurveto
          -30 -26 25 151 hvcurveto
          51 vlineto
          124 -73 95 -55 16 vhcurveto
          55 25 73 86 125 vvcurveto
          51 vlineto
          151 26 25 30 18 15 -9 -10 11 vhcurveto
          5 4 rlineto
          35 -14 -31 16 -31 hhcurveto
          -38 -30 -23 -36 hvcurveto
          hintmask 11110000
          -46 -10 -48 -90 hvcurveto
          -64 vlineto
          -164 -38 -59 -58 -1 vhcurveto
          endchar
        </CharString>
        <CharString name="braceright">
          75 callgsubr
          127 39 -39 95 cntrmask 11100000
          hintmask 11101000
          318 332 rmoveto
          -58 1 -38 59 164 vvcurveto
          64 vlineto
          hintmask 11110000
          90 -10 48 -46 vhcurveto
          36 -30 23 -38 -31 -31 -16 -35 -14 vhcurveto
          5 -4 rlineto
          10 11 15 9 18 hhcurveto
          30 26 -25 -151 hvcurveto
          -51 vlineto
          -125 73 -86 55 -25 vhcurveto
          -55 -16 -73 -95 -124 vvcurveto
          -51 vlineto
          -151 -26 -25 -30 -18 -15 8 11 -11 vhcurveto
          -5 -4 rlineto
          -35 14 31 -16 31 hhcurveto
          38 30 22 37 hvcurveto
          hintmask 11101000
          46 10 49 89 hvcurveto
          64 vlineto
          165 36 58 58 1 vhcurveto
          endchar
        </CharString>
        <CharString name="bracketleft">
          -166 -170 68 -54 -21 925 65 7 -20 hstemhm
          99 88 -88 245 hintmask 01100100
          88 761 rmoveto
          8 -165 3 -135 -131 vvcurveto
          -141 -4 -138 -7 -169 vhcurveto
          55 -59 rlineto
          hintmask 10101000
          3 34 38 4 44 hhcurveto
          hintmask 01100100
          25 26 -2 -5 20 hvcurveto
          6 8 8 19 13 vvcurveto
          hintmask 10101000
          28 -24 7 -52 -41 18 -1 -2 -75 vhcurveto
          11 106 6 162 164 vvcurveto
          156 -5 157 -12 108 vhcurveto
          -2 75 -18 -1 41 hhcurveto
          hintmask 10010100
          52 24 7 28 13 -8 19 -6 8 hvcurveto
          hintmask 10101000
          -5 -20 -26 -2 -25 hhcurveto
          hintmask 10011000
          -44 -38 4 3 -34 hvcurveto
          endchar
        </CharString>
        <CharString name="bracketright">
          -166 -170 65 -51 -21 922 68 7 -20 hstemhm
          22 245 -88 88 hintmask 10011000
          223 820 rmoveto
          hintmask 10101000
          -3 -34 -38 -4 -44 hhcurveto
          hintmask 10011000
          -25 -26 2 5 -20 hvcurveto
          -6 -8 -8 -19 -13 vvcurveto
          hintmask 10100100
          -28 24 -7 52 41 -18 1 2 75 vhcurveto
          -12 -108 -5 -157 -156 vvcurveto
          -164 6 -162 11 -106 vhcurveto
          2 -75 18 1 -41 hhcurveto
          hintmask 01101000
          -52 -24 32 callgsubr
          hintmask 10101000
          5 20 26 2 25 hhcurveto
          hintmask 01011000
          44 38 -4 -3 34 hvcurveto
          55 59 rlineto
          -7 169 -4 138 141 vvcurveto
          131 3 135 8 165 vhcurveto
          endchar
        </CharString>
        <CharString name="breve">
          -161 545 35 callsubr
          41 87 113 89 hintmask 01011000
          239 675 rmoveto
          1 -5 1 -6 -5 vvcurveto
          hintmask 10111000
          -55 callsubr
        </CharString>
        <CharString name="breve.cap">
          -161 869 52 -52 121 hstemhm
          47 81 113 83 hintmask 01110000
          239 990 23 callsubr
          hintmask 10110000
          1 callsubr
          hintmask 01110000
          -36 callsubr
        </CharString>
        <CharString name="brokenbar">
          -299 -154 -21 986 -20 hstemhm
          80 70 -70 83 hintmask 11010000
          155 438 rmoveto
          4 115 4 49 99 27 callsubr
          vvcurveto
          -103 -3 -26 -3 -91 vhcurveto
          -240 vmoveto
          -2 -74 -2 -3 -75 vvcurveto
          -68 4 -76 5 -78 vhcurveto
          79 hlineto
          hintmask 11100000
          -6 52 -2 67 70 vvcurveto
          79 2 18 3 87 vhcurveto
          endchar
        </CharString>
        <CharString name="bullet">
          -157 162 203 hstem
          87 201 vstem
          87 264 rmoveto
          -57 46 -45 55 54 46 45 57 57 -46 44 -54 -55 -46 -44 -57 vhcurveto
          endchar
        </CharString>
        <CharString name="c">
          23 callgsubr
          hstemhm
          42 97 212 73 hintmask 10111000
          -74 callsubr
          hintmask 11011000
          -31 callgsubr
          hintmask 10111000
          32 -54 0 -26 vhcurveto
          endchar
        </CharString>
        <CharString name="cacute">
          23 callgsubr
          257 -20 hstemhm
          42 97 212 73 hintmask 10111100
          -74 callsubr
          hintmask 11011100
          -31 callgsubr
          hintmask 10111100
          32 -54 0 -26 vhcurveto
          28 245 -52 callsubr
          endchar
        </CharString>
        <CharString name="caron">
          -177 566 -21 185 -20 hstem
          203 563 -105 callsubr
        </CharString>
        <CharString name="caron.alt">
          -367 606 -21 215 -20 hstem
          20 125 vstem
          20 737 rmoveto
          -30 21 -25 28 -6 vhcurveto
          -9 -46 -24 -26 0 vvcurveto
          23 -19 rlineto
          62 60 24 61 31 vvcurveto
          35 -29 28 -33 -34 -29 -28 -35 vhcurveto
          endchar
        </CharString>
        <CharString name="caron.cap">
          78 callsubr
          863 -63 callgsubr
          -104 callsubr
        </CharString>
        <CharString name="ccaron">
          23 callgsubr
          262 -20 hstemhm
          42 97 212 73 hintmask 10111100
          -74 callsubr
          hintmask 11011100
          -31 callgsubr
          hintmask 10111100
          32 -54 0 -26 vhcurveto
          19 95 -105 callsubr
        </CharString>
        <CharString name="ccedilla">
          -68 -245 36 111 39 46 45 84 callgsubr
          47 hstemhm
          42 97 165 52 -52 77 -30 73 hintmask 1110111000000000
          274 468 rmoveto
          -131 -101 -81 -164 -149 83 -76 113 -10 hvcurveto
          -16 -78 -65 callsubr
          hintmask 1111010100000000
          -32 callgsubr
          52 vlineto
          hintmask 1111010010000000
          84 5 56 39 51 vvcurveto
          31 -22 11 -17 7 vhcurveto
          hintmask 1110110100000000
          -4 hlineto
          -63 -11 -33 -36 -63 hhcurveto
          -88 -47 68 126 120 42 75 91 hvcurveto
          hintmask 1111010010000000
          55 24 -28 -40 -29 -12 -17 -18 -6 hvcurveto
          -4 vlineto
          -31 callgsubr
          hintmask 1110111000000000
          32 -54 0 -26 vhcurveto
          endchar
        </CharString>
        <CharString name="ccircumflex">
          23 callgsubr
          263 -20 hstemhm
          42 97 212 73 hintmask 10111100
          -74 callsubr
          hintmask 11011100
          -31 callgsubr
          hintmask 10111100
          32 -54 0 -26 vhcurveto
          19 245 -76 callgsubr
          -70 -57 -83 hvcurveto
          -6 -4 0 -7 -5 vvcurveto
          -15 11 -11 14 6 7 2 5 6 vhcurveto
          53 41 40 56 15 13 15 -13 41 -56 53 -41 rrcurveto
          -5 6 5 -2 5 hhcurveto
          13 15 7 18 7 -2 7 -4 3 hvcurveto
          57 -82 15 70 -44 hhcurveto
          -3 -2 0 -2 -4 hvcurveto
          endchar
        </CharString>
        <CharString name="cdotaccent">
          23 callgsubr
          77 142 hstemhm
          42 97 56 141 15 73 hintmask 10111110
          -74 callsubr
          hintmask 11011110
          -31 callgsubr
          hintmask 10111110
          32 -54 0 -26 vhcurveto
          -79 148 -97 callgsubr
          endchar
        </CharString>
        <CharString name="cedilla">
          -304 -235 36 111 39 84 -20 hstemhm
          138 52 -52 77 hintmask 11110000
          80 35 rmoveto
          -24 -115 -65 callsubr
          hintmask 11101000
          -32 callgsubr
          90 vlineto
          endchar
        </CharString>
        <CharString name="cent">
          -42 -154 186 -46 46 84 callgsubr
          189 -142 -20 hstemhm
          56 97 49 89 -70 70 -70 89 55 73 hintmask 1010111001000000
          368 436 rmoveto
          31 -50 1 -27 vhcurveto
          hintmask 1010110011000000
          10 26 9 14 26 vvcurveto
          hintmask 1001010101000000
          21 -7 17 -12 1 vhcurveto
          22 -14 15 -21 -21 -14 -14 -23 vhcurveto
          hintmask 1010111001000000
          -12 -3 -7 -15 -20 vvcurveto
          -28 9 -13 11 -34 vhcurveto
          -98 -23 -68 -79 -135 vvcurveto
          hintmask 1010110101000000
          -135 68 -75 97 -21 vhcurveto
          hintmask 1010111001000000
          -10 -31 -9 -13 -27 vvcurveto
          hintmask 1010110101000000
          60 callsubr
          hintmask 0110110011000000
          12 1 7 17 21 vvcurveto
          hintmask 0101011001000000
          25 -9 14 -10 25 vhcurveto
          88 4 59 40 52 vvcurveto
          31 -22 11 -17 7 vhcurveto
          -4 hlineto
          -63 -11 -33 -36 -63 hhcurveto
          -88 -47 68 126 120 42 75 91 55 24 -28 -40 -29 -12 -17 -18 -6 hvcurveto
          -4 vlineto
          hintmask 1010111001000000
          -31 callgsubr
          endchar
        </CharString>
        <CharString name="circumflex">
          -177 567 -21 185 -20 hstem
          203 713 -76 callgsubr
          -70 -57 -83 hvcurveto
          -6 -4 0 -7 -5 vvcurveto
          -15 11 -11 14 6 7 2 5 6 vhcurveto
          53 41 40 56 15 13 15 -13 41 -56 53 -41 rrcurveto
          -5 6 5 -2 5 hhcurveto
          13 15 7 18 7 -2 7 -4 3 hvcurveto
          57 -82 15 70 -44 hhcurveto
          -3 -2 0 -2 -4 hvcurveto
          endchar
        </CharString>
        <CharString name="circumflex.cap">
          78 callsubr
          972 rmoveto
          11 -3 -12 7 -13 hhcurveto
          -12 -10 -8 -10 -3 hvcurveto
          -106 callsubr
        </CharString>
        <CharString name="colon">
          -245 -5 154 130 154 hstem
          67 153 vstem
          67 72 -35 callgsubr
          284 vmoveto
          48 callsubr
        </CharString>
        <CharString name="comma">
          -266 -82 -21 252 -20 hstem
          56 153 vstem
          56 72 rmoveto
          40 callsubr
          80 callsubr
        </CharString>
        <CharString name="commaaccent">
          -367 36 callgsubr
          -20 hstem
          20 125 vstem
          20 -120 -96 callsubr
        </CharString>
        <CharString name="copyright">
          291 51 58 58 59 232 134 -22 63 56 66 hstemhm
          59 68 86 85 204 65 128 69 hintmask 1101111110000000
          411 51 -25 callgsubr
          301 233 rmoveto
          -122 -93 -86 -152 -151 89 -77 118 47 62 20 40 hvcurveto
          28 10 27 22 31 -39 20 -20 hvcurveto
          -56 -3 -16 -45 -64 hhcurveto
          -73 -54 58 110 117 59 59 71 44 30 -17 -44 -28 -11 -12 -14 -8 hvcurveto
          hintmask 1110111110000000
          -2 7 10 -1 7 hhcurveto
          38 28 26 42 50 -25 16 -28 hvcurveto
          hintmask 1101111110000000
          31 -62 10 -24 vhcurveto
          endchar
        </CharString>
        <CharString name="currency">
          126 73 117 -105 -21 56 70 285 69 -69 113 9 -20 hstemhm
          65 121 -69 69 285 69 -69 122 hintmask 0111011010000000
          329 120 rmoveto
          43 43 17 27 35 hvcurveto
          hintmask 1001011010000000
          -47 25 11 -44 36 hhcurveto
          4 3 1 2 2 hvcurveto
          hintmask 0111011001000000
          -8 8 10 -4 9 hhcurveto
          18 17 18 18 9 -4 9 -8 8 hvcurveto
          2 3 0 3 3 vvcurveto
          34 -42 13 -47 25 vhcurveto
          hintmask 1001011010000000
          28 37 18 44 44 vvcurveto
          45 -16 43 -27 35 vhcurveto
          46 23 40 14 34 vvcurveto
          3 0 3 -2 3 vhcurveto
          hintmask 1001011001000000
          8 8 4 9 9 vvcurveto
          18 -17 18 -18 -9 -10 -4 -8 -8 vhcurveto
          hintmask 1000101010000000
          2 -2 -3 1 -4 hhcurveto
          -35 -12 -43 -45 -23 hvcurveto
          hintmask 1001011010000000
          27 -36 -44 17 -44 hhcurveto
          -45 -42 -17 -26 -35 hvcurveto
          hintmask 1000101010000000
          45 -24 -11 42 -35 hhcurveto
          -4 -3 -1 -2 -2 hvcurveto
          hintmask 1001011010000000
          8 -8 -10 4 -9 hhcurveto
          -18 -17 -18 -18 -9 4 -9 8 -8 hvcurveto
          -2 -3 0 -3 -3 vvcurveto
          -34 39 -13 46 -24 vhcurveto
          hintmask 1001010110000000
          -27 -35 -16 -43 -44 vvcurveto
          -46 18 -44 28 -36 vhcurveto
          -47 -25 -41 -13 -34 vvcurveto
          -3 0 -3 2 -3 vhcurveto
          hintmask 0111011010000000
          -8 -8 -4 -9 -9 vvcurveto
          -18 17 -18 18 9 10 4 8 8 vhcurveto
          hintmask 1001011010000000
          -2 2 3 -1 4 hhcurveto
          36 11 44 46 24 hvcurveto
          hintmask 0111011010000000
          -27 36 43 -16 43 hhcurveto
          -143 212 rmoveto
          80 62 63 80 79 64 -64 -79 -79 -64 -63 -79 -80 -62 68 74 vhcurveto
          endchar
        </CharString>
        <CharString name="d">
          39 -102 62 callsubr
          43 -20 hstem
          42 95 265 90 vstem
          -99 callsubr
          endchar
        </CharString>
        <CharString name="dagger">
          -101 -152 -21 593 68 323 -20 hstemhm
          33 216 -80 80 -80 93 -93 229 hintmask 11101000
          144 432 rmoveto
          11 10 0 -1 11 hvcurveto
          -3 -131 -4 -123 -130 vvcurveto
          70 callsubr
          126 4 143 4 138 vhcurveto
          -1 11 12 0 12 hhcurveto
          hintmask 11100010
          73 33 7 28 14 -8 18 -6 8 hvcurveto
          -8 callsubr
          -60 hhcurveto
          hintmask 11100100
          2 75 1 72 66 27 callsubr
          vvcurveto
          -56 -1 -54 -1 -52 vhcurveto
          2 -16 -19 1 -19 hhcurveto
          hintmask 11110000
          -80 callgsubr
          endchar
        </CharString>
        <CharString name="daggerdbl">
          -35 -152 -21 292 68 -56 68 246 68 -56 56 -56 68 286 -20 hstemhm
          41 250 -82 82 hintmask 1011001010000000
          159 131 rmoveto
          20 16 -1 -1 14 hvcurveto
          -82 vlineto
          70 callsubr
          34 0 36 1 37 vhcurveto
          hintmask 1101001100000000
          -2 18 21 0 28 -95 callgsubr
          -21 -19 0 1 -17 hvcurveto
          258 vlineto
          -1 16 19 0 24 -95 callgsubr
          -18 -16 0 1 -15 hvcurveto
          2 65 1 64 58 vvcurveto
          40 -1 37 -2 33 vhcurveto
          hintmask 1100011010000000
          -83 hlineto
          2 -54 1 -50 -48 -48 -1 -46 -44 vvcurveto
          2 -25 -25 2 -30 hhcurveto
          hintmask 1010101100000000
          -80 callgsubr
          23 18 -1 -1 17 hvcurveto
          -260 vlineto
          2 -22 -23 2 -27 hhcurveto
          -80 callgsubr
          endchar
        </CharString>
        <CharString name="dcaron">
          39 -102 62 callsubr
          48 -20 hstemhm
          42 95 265 90 71 85 callsubr
          hintmask 1111111010000000
          -99 callsubr
          338 661 rmoveto
          -89 callgsubr
          hintmask 1111111100000000
          -22 callgsubr
          endchar
        </CharString>
        <CharString name="dcroat">
          39 -102 36 52 46 388 48 112 68 88 -2 callsubr
          hstemhm
          42 95 265 90 -90 194 hintmask 1111111100000000
          342 580 rmoveto
          20 20 -2 -2 20 hvcurveto
          -167 vlineto
          44 -39 -40 15 -56 hhcurveto
          -113 -112 -70 -167 -144 76 -101 144 45 51 11 44 45 hvcurveto
          -55 3 13 -29 39 hhcurveto
          -33 30 -26 52 27 34 7 28 17 vhcurveto
          -3 5 rlineto
          -3 -6 -16 -1 -9 hhcurveto
          -75 -17 64 123 hvcurveto
          447 vlineto
          hintmask 1111111010000000
          71 33 7 28 14 -8 18 -6 8 hvcurveto
          hintmask 1111111100000000
          -5 -26 -32 -2 -32 hhcurveto
          173 -100 callsubr
          54 10 -19 -74 2 hvcurveto
          3 -24 -27 2 -30 hhcurveto
          -80 callgsubr
          -75 -548 41 callgsubr
        </CharString>
        <CharString name="ddotbelow">
          39 37 callgsubr
          10 62 callsubr
          43 -20 hstem
          42 95 79 116 70 90 vstem
          -99 callsubr
          -51 -203 -90 callsubr
        </CharString>
        <CharString name="degree">
          -48 423 66 254 66 hstem
          44 73 250 73 vstem
          242 423 rmoveto
          106 92 75 121 122 -92 68 -106 -106 -92 -68 -122 -119 92 -77 106 hvcurveto
          66 vmoveto
          -69 -56 53 77 76 56 48 69 68 57 -48 -76 -77 -57 -53 -68 hvcurveto
          endchar
        </CharString>
        <CharString name="dieresis">
          -31 545 129 hstem
          78 57 callgsubr
          vstem
          78 609 rmoveto
          -101 callsubr
          218 hmoveto
          -101 callsubr
          endchar
        </CharString>
        <CharString name="dieresis.cap">
          -31 861 129 hstem
          78 57 callgsubr
          vstem
          78 925 rmoveto
          -101 callsubr
          218 hmoveto
          -101 callsubr
          endchar
        </CharString>
        <CharString name="divide">
          -29 -35 154 71 68 -56 56 82 154 hstemhm
          175 153 hintmask 10111000
          175 42 -35 callgsubr
          375 vmoveto
          -66 callgsubr
          -20 -215 rmoveto
          hintmask 11011000
          81 21 -12 96 -95 callgsubr
          hintmask 10111000
          -88 -46 12 -76 hhcurveto
          -80 callgsubr
          endchar
        </CharString>
        <CharString name="dollar">
          46 -123 184 412 172 -12 51 -51 182 hstemhm
          44 82 -55 55 -55 87 91 89 -70 70 -70 89 73 102 -88 88 hintmask 1100100100100000
          415 645 rmoveto
          hintmask 1010100001100000
          23 -25 13 -48 3 vhcurveto
          8 20 7 13 22 vvcurveto
          hintmask 1001100010100000
          21 -7 17 -12 1 vhcurveto
          22 -14 15 -21 -21 -14 -14 -23 vhcurveto
          hintmask 1001010100100000
          -12 -3 -7 -15 -20 vvcurveto
          -22 7 -14 8 -23 vhcurveto
          -89 -11 -104 -42 -125 -174 359 -9 -145 vvcurveto
          -99 -116 -15 -36 -73 -79 52 87 24 6 27 14 29 vhcurveto
          -4 5 rlineto
          hintmask 1001100100100000
          -80 -10 -18 -55 -54 vvcurveto
          -59 35 -59 72 -1 vhcurveto
          -30 76 -6 37 vhcurveto
          -8 -23 -7 -13 -23 vvcurveto
          hintmask 1001100010100000
          60 callsubr
          hintmask 1001001001010000
          12 1 7 16 22 vvcurveto
          24 -9 14 -9 23 vhcurveto
          117 15 76 59 111 179 -374 14 142 vvcurveto
          92 106 7 36 97 47 -40 -47 -21 -9 -22 -18 -21 vhcurveto
          hintmask 1100100100100000
          4 -9 rlineto
          72 3 33 39 39 vvcurveto
          45 -41 46 -70 vhcurveto
          endchar
        </CharString>
        <CharString name="dotaccent">
          -261 545 142 hstem
          65 141 vstem
          65 8 callgsubr
          endchar
        </CharString>
        <CharString name="dotaccent.cap">
          -261 848 142 hstem
          65 141 vstem
          65 919 -97 callgsubr
          endchar
        </CharString>
        <CharString name="dotbelow">
          -261 37 callgsubr
          hstem
          78 116 vstem
          78 -171 -90 callsubr
        </CharString>
        <CharString name="dotlessi">
          -27 callgsubr
          hstemhm
          35 71 callgsubr
          hintmask 10111000
          191 468 rmoveto
          -30 hlineto
          -102 callsubr
          hintmask 10110100
          -88 callsubr
          -172 -69 callsubr
          hintmask 01111000
          -30 vlineto
          hintmask 10111000
          -37 callsubr
          hintmask 01111000
          -52 callgsubr
          hintmask 10111000
          30 -92 callsubr
          endchar
        </CharString>
        <CharString name="dotlessj">
          -275 25 callgsubr
          465 25 43 -20 hstemhm
          -160 81 168 90 hintmask 10111100
          179 468 -49 callgsubr
          hintmask 01111100
          -71 callgsubr
          endchar
        </CharString>
        <CharString name="e">
          -37 callgsubr
          66 callsubr
          hintmask 10010110
          -87 callsubr
          hintmask 01101110
          -78 callsubr
          hintmask 10101110
          -92 callgsubr
          endchar
        </CharString>
        <CharString name="eacute">
          -37 callgsubr
          257 -88 callgsubr
          57 292 -52 callsubr
          endchar
        </CharString>
        <CharString name="ebreve">
          -37 callgsubr
          77 35 callsubr
          42 97 -12 87 113 89 -75 75 -75 93 hintmask 1001010110001000
          -87 callsubr
          hintmask 0110110110100000
          -78 callsubr
          hintmask 1010101010010000
          -92 callgsubr
          64 254 rmoveto
          hintmask 1010110101100000
          1 -5 1 -6 -5 vvcurveto
          -55 callsubr
        </CharString>
        <CharString name="ecaron">
          -37 callgsubr
          262 -88 callgsubr
          38 142 -105 callsubr
        </CharString>
        <CharString name="ecircumflex">
          -37 callgsubr
          263 -88 callgsubr
          31 292 -76 callgsubr
          -70 -57 -83 hvcurveto
          -6 -4 0 -7 -5 vvcurveto
          -15 11 -11 14 6 7 2 5 6 vhcurveto
          53 41 40 56 15 13 15 -13 41 -56 53 -41 rrcurveto
          -5 6 5 -2 5 hhcurveto
          13 15 7 18 7 -2 7 -4 3 hvcurveto
          57 -82 15 70 -44 hhcurveto
          -3 -2 0 -2 -4 hvcurveto
          endchar
        </CharString>
        <CharString name="edieresis">
          -37 callgsubr
          77 129 hstemhm
          42 97 -52 128 90 129 -93 93 hintmask 1001011001000000
          -87 callsubr
          hintmask 0110111010000000
          -78 callsubr
          hintmask 1010110101000000
          -92 callgsubr
          -174 188 rmoveto
          -101 callsubr
          hintmask 1010111010000000
          218 hmoveto
          -101 callsubr
          endchar
        </CharString>
        <CharString name="edotaccent">
          -37 callgsubr
          77 142 hstemhm
          42 97 62 141 -1 93 hintmask 1001011010000000
          -87 callsubr
          hintmask 0110111100000000
          -78 callsubr
          hintmask 1010111010000000
          -92 callgsubr
          hintmask 1010111100000000
          -60 195 -97 callgsubr
          endchar
        </CharString>
        <CharString name="edotbelow">
          -56 37 callgsubr
          98 45 -45 135 91 44 -44 224 -15 47 hstemhm
          42 97 69 116 17 93 hintmask 1100101110000000
          -87 callsubr
          hintmask 1011011110000000
          -78 callsubr
          hintmask 1101011110000000
          -92 callgsubr
          -53 -592 -90 callsubr
        </CharString>
        <CharString name="egrave">
          -37 callgsubr
          257 -88 callgsubr
          -74 292 rmoveto
          8 -7 -11 4 -10 hhcurveto
          -102 callgsubr
        </CharString>
        <CharString name="eight">
          86 -14 50 732 52 hstemhm
          58 99 -77 77 287 90 -75 75 -75 102 hintmask 11100010
          58 178 rmoveto
          -56 17 -100 105 vhcurveto
          -34 80 -2 29 161 111 63 144 121 -91 61 -95 52 vhcurveto
          hintmask 11010100
          96 35 63 58 100 vvcurveto
          96 -58 64 -52 vhcurveto
          27 -34 13 -64 -124 -122 -49 -150 -115 76 -54 84 -46 vhcurveto
          hintmask 11100100
          -124 -68 -58 -65 -95 vvcurveto
          401 -1 rmoveto
          -123 -104 -18 -47 -109 -42 97 64 77 60 66 74 39 vhcurveto
          87 -46 81 -48 -108 vvcurveto
          -292 457 rmoveto
          89 78 45 71 vhcurveto
          hintmask 11101000
          81 47 -58 -95 -88 -40 -47 -73 -29 hvcurveto
          -86 47 -78 47 89 vvcurveto
          endchar
        </CharString>
        <CharString name="ellipsis">
          278 -5 154 hstem
          56 153 120 153 120 153 cntrmask 01110000
          56 72 -35 callgsubr
          273 hmoveto
          -66 callgsubr
          273 hmoveto
          48 callsubr
        </CharString>
        <CharString name="emacron">
          -37 callgsubr
          114 68 -56 56 66 callsubr
          hintmask 1001010110000000
          -87 callsubr
          hintmask 0110110110000000
          -78 callsubr
          hintmask 1010101110000000
          -92 callgsubr
          -70 173 rmoveto
          hintmask 1010110110000000
          58 26 -12 62 hhcurveto
          55 29 10 26 13 -7 18 -7 8 hvcurveto
          -5 -29 -30 -2 -23 hhcurveto
          hintmask 1010101110000000
          -74 callgsubr
        </CharString>
        <CharString name="emdash">
          310 190 47 callsubr
          hintmask 01000000
          231 202 rmoveto
          hintmask 10000000
          123 135 -12 135 hhcurveto
          103 62 callgsubr
          -5 -44 -53 -2 -50 hhcurveto
          hintmask 01000000
          -123 -129 12 -143 hhcurveto
          -109 -40 32 callgsubr
          6 46 67 1 35 hhcurveto
          endchar
        </CharString>
        <CharString name="endash">
          28 60 callgsubr
          69 70 -12 69 hhcurveto
          73 33 7 28 14 -7 18 -7 8 hvcurveto
          -8 callsubr
          -36 hhcurveto
          hintmask 01000000
          -66 -64 12 -90 hhcurveto
          -80 callgsubr
          endchar
        </CharString>
        <CharString name="eng">
          56 25 callgsubr
          86 -10 callgsubr
          hstemhm
          101 90 -9 81 168 90 hintmask 1011101010000000
          191 231 rmoveto
          138 76 52 62 61 41 -52 -125 vhcurveto
          -294 vlineto
          -99 -23 -53 -66 vhcurveto
          hintmask 0111100110000000
          -57 -22 39 41 25 8 19 17 6 hvcurveto
          4 vlineto
          -71 callgsubr
          244 vlineto
          181 -69 78 -108 vhcurveto
          hintmask 1011011010000000
          -77 -50 -40 -40 -26 hvcurveto
          0 callsubr
        </CharString>
        <CharString name="eogonek">
          -56 -235 36 186 44 -44 134 91 44 -44 224 -15 47 hstemhm
          42 97 25 77 100 93 hintmask 1100101110000000
          -87 callsubr
          hintmask 1011011110000000
          27 -41 5 -34 -144 -83 -91 -149 -131 62 -91 120 -17 vhcurveto
          -36 -35 -24 -27 -23 callsubr
          27 46 hvcurveto
          76 6 65 31 52 vvcurveto
          31 -22 14 -31 vhcurveto
          hintmask 1101011110000000
          -92 callgsubr
          endchar
        </CharString>
        <CharString name="equal">
          32 109 68 -56 56 98 47 callsubr
          hintmask 10010000
          185 287 rmoveto
          hintmask 10100000
          81 21 -12 96 -95 callgsubr
          hintmask 01010000
          -88 -46 12 -76 hhcurveto
          -80 callgsubr
          -166 vmoveto
          hintmask 10100000
          81 21 -12 96 -95 callgsubr
          hintmask 01100000
          -88 -46 12 -76 hhcurveto
          -80 callgsubr
          endchar
        </CharString>
        <CharString name="eth">
          96 -14 51 392 54 337 -20 hstem
          40 105 317 105 vstem
          279 651 rmoveto
          36 39 76 -72 72 -112 8 -99 rlinecurve
          53 -42 -70 23 -69 hhcurveto
          -131 -119 -95 -163 -149 113 -90 150 155 109 98 209 151 -75 181 -136 110 hvcurveto
          79 85 rlineto
          -78 hlineto
          -48 -51 -36 22 -39 17 -43 12 rlinecurve
          -2 -55 24 -3 28 -14 30 -21 rlinecurve
          -70 -76 rlineto
          261 -420 rmoveto
          -108 -60 -86 -100 -101 -56 85 106 107 49 94 108 108 52 -88 -110 vhcurveto
          endchar
        </CharString>
        <CharString name="etilde">
          -37 callgsubr
          105 19 callsubr
          42 97 -36 36 202 93 hintmask 1001010011010000
          -87 callsubr
          hintmask 0110110011010000
          -78 callsubr
          hintmask 1010101011010000
          -92 callgsubr
          -119 136 15 callgsubr
          hintmask 1010110011010000
          -67 callgsubr
          hintmask 1010100110110000
          -56 callsubr
        </CharString>
        <CharString name="exclam">
          -217 0 142 609 58 hstemhm
          75 141 -113 85 hintmask 11010000
          110 254 rmoveto
          71 hlineto
          14 378 rlineto
          89 3 22 30 60 hhcurveto
          23 -33 35 -64 -72 -17 -50 -53 -18 1 -48 2 -47 vhcurveto
          hintmask 11100000
          -22 -522 -97 callgsubr
          endchar
        </CharString>
        <CharString name="exclamdown">
          -215 -250 58 609 142 hstemhm
          100 141 -113 84 hintmask 11010000
          206 305 rmoveto
          -71 hlineto
          -14 -378 rlineto
          -89 -3 -22 -30 -60 hhcurveto
          -23 33 -35 64 72 17 50 53 18 -1 48 -2 47 vhcurveto
          hintmask 11100000
          22 522 47 callgsubr
        </CharString>
        <CharString name="f">
          -159 48 callgsubr
          81 hintmask 10110110
          21 468 rmoveto
          -47 79 -448 -84 callgsubr
          486 vlineto
          hintmask 11001110
          3 callgsubr
          hintmask 10110110
          7 callsubr
          65 callgsubr
          -81 vlineto
          endchar
        </CharString>
        <CharString name="f_f">
          155 48 callgsubr
          126 -90 90 188 81 hintmask 1011010110000000
          21 468 rmoveto
          -47 79 -448 -84 callgsubr
          489 224 -448 -84 callgsubr
          486 vlineto
          hintmask 1100111010000000
          3 callgsubr
          hintmask 1011010110000000
          7 callsubr
          -72 -63 -20 -66 -37 vhcurveto
          -7 16 -13 14 -18 3 rrcurveto
          32 -30 21 -74 65 callgsubr
          -81 vlineto
          90 83 rmoveto
          hintmask 1100111010000000
          -3 callsubr
          hintmask 1101010110000000
          -2 11 10 -1 8 hhcurveto
          14 14 3 5 11 hvcurveto
          -5 -27 -2 -32 -35 vvcurveto
          -81 -224 vlineto
          endchar
        </CharString>
        <CharString name="f_i">
          72 -250 36 224 20 -9 -21 402 51 5 -20 30 -20 139 143 42 48 hstemhm
          100 90 232 90 hintmask 1100101111000000
          450 728 rmoveto
          4 4 3 3 11 vvcurveto
          57 -80 17 -67 65 callgsubr
          -91 -79 -47 79 -438 -84 callgsubr
          hintmask 1101001111000000
          470 166 vlineto
          43 23 -31 -60 hvcurveto
          -212 -69 callsubr
          hintmask 1011001111000000
          -30 vlineto
          hintmask 1101001111000000
          -37 callsubr
          hintmask 1011001111000000
          -52 callgsubr
          hintmask 1100011111000000
          30 -92 callsubr
          369 -30 vlineto
          hintmask 1101001111000000
          -9 -18 -25 -6 -19 hhcurveto
          -230 98 hlineto
          175 51 46 68 70 10 -49 -52 9 vhcurveto
          -52 9 9 -32 47 hhcurveto
          50 27 35 39 50 -46 19 -24 -8 -6 -2 -3 -4 hvcurveto
          endchar
        </CharString>
        <CharString name="f_l">
          74 -250 36 235 -21 395 43 -17 47 304 48 hstemhm
          100 90 232 90 hintmask 11011110
          21 468 rmoveto
          -47 79 -448 -84 callgsubr
          479 vlineto
          hintmask 11101110
          -7 29 28 -9 39 hhcurveto
          57 29 20 31 25 -18 12 -20 hvcurveto
          -33 -7 -27 -12 -26 hhcurveto
          -25 -26 11 8 -33 hvcurveto
          94 vlineto
          182 60 39 66 52 31 -25 -31 13 vhcurveto
          8 -20 2 -20 -59 vvcurveto
          -523 -69 callsubr
          -25 -40 callgsubr
          25 -92 callsubr
          715 -25 vlineto
          -16 -11 -12 -10 -14 -7 rrcurveto
          23 -20 -56 16 -62 hhcurveto
          -115 -92 -54 -217 hvcurveto
          hintmask 11011110
          -81 vlineto
          endchar
        </CharString>
        <CharString name="five">
          74 -14 51 394 53 258 63 4 -20 hstemhm
          47 97 -83 83 -45 90 266 101 -84 40 hintmask 1110001010000000
          242 484 rmoveto
          -19 -17 -1 -1 -17 hvcurveto
          215 vlineto
          33 3 12 32 vhcurveto
          176 hlineto
          64 8 -48 -55 hvcurveto
          40 hlineto
          72 6 56 16 vvcurveto
          hintmask 1101100100000000
          26 -18 0 -8 vhcurveto
          hintmask 1110100100000000
          -6 -111 -4 -99 hhcurveto
          hintmask 1101001100000000
          -50 -60 1 3 -45 hvcurveto
          -22 -39 rlineto
          -302 vlineto
          32 -37 rlineto
          219 105 -24 -169 -132 -64 -69 -104 hvcurveto
          hintmask 1110100100000000
          -55 -88 38 callsubr
          hintmask 1110010100000000
          -11 -2 0 -7 -12 vvcurveto
          -66 125 -34 100 164 106 92 158 182 -142 66 -172 vhcurveto
          endchar
        </CharString>
        <CharString name="florin">
          -26 -250 36 613 68 168 185 -48 48 hstemhm
          41 183 -90 90 188 44 -44 81 hintmask 11011010
          134 -27 rmoveto
          -123 -21 -64 -91 -12 -21 1 3 -8 vhcurveto
          -3 -5 rlineto
          -28 19 39 -7 30 hhcurveto
          64 38 26 33 hvcurveto
          47 9 42 81 hvcurveto
          475 vlineto
          -3 35 30 -5 61 -95 callgsubr
          -48 -35 4 3 -34 hvcurveto
          77 vlineto
          -3 callsubr
          hintmask 11100101
          7 callsubr
          65 callgsubr
          -70 vlineto
          hintmask 11101010
          -69 -24 -9 -25 -15 8 -18 6 -8 hvcurveto
          hintmask 11100110
          24 4 31 2 24 1 rrcurveto
          endchar
        </CharString>
        <CharString name="four">
          127 10 -7 callgsubr
          261 66 482 -20 hstemhm
          396 90 82 53 hintmask 10111100
          607 237 rmoveto
          6 3 12 8 14 vvcurveto
          29 -39 29 -100 7 vhcurveto
          482 -116 vlineto
          -99 -157 -129 -225 -129 -159 34 -54 rcurveline
          184 31 49 15 116 1 rrcurveto
          -150 vlineto
          -64 -73 -5 -36 vhcurveto
          81 callgsubr
          92 10 31 hhcurveto
          hintmask 01111100
          31 92 81 callsubr
          -32 -77 5 64 hvcurveto
          146 vlineto
          63 -8 19 -21 -40 vvcurveto
          -40 -19 -12 0 vhcurveto
          4 -6 rlineto
          0 68 15 50 vvcurveto
          16 -7 21 -7 5 vhcurveto
          -501 50 rmoveto
          78 95 127 212 85 137 rrcurveto
          -403 vlineto
          -144 -6 -131 -31 -15 -4 rrcurveto
          endchar
        </CharString>
        <CharString name="fourinferior">
          -103 -56 76 callgsubr
          222 68 33 47 hintmask 01111100
          370 82 -40 callsubr
        </CharString>
        <CharString name="foursuperior">
          -92 465 76 callgsubr
          224 68 33 47 hintmask 01111100
          372 603 -40 callsubr
        </CharString>
        <CharString name="fraction">
          -492 -6 -21 842 -20 hstem
          -236 -10 callsubr
          endchar
        </CharString>
        <CharString name="g">
          6 callgsubr
          hstemhm
          42 95 -72 72 276 79 hintmask 11010110
          -77 callsubr
          hintmask 11101010
          -60 callsubr
          endchar
        </CharString>
        <CharString name="gbreve">
          6 callgsubr
          107 35 callsubr
          42 95 -72 72 0 87 113 89 -13 79 hintmask 1101101010010000
          -77 callsubr
          hintmask 1110010100010000
          -60 callsubr
          58 643 rmoveto
          hintmask 1110101001100000
          1 -5 1 -6 -5 vvcurveto
          -55 callsubr
        </CharString>
        <CharString name="gcircumflex">
          6 callgsubr
          293 -20 hstemhm
          42 95 -72 72 276 79 hintmask 11011011
          -77 callsubr
          hintmask 11101101
          -60 callsubr
          32 681 -76 callgsubr
          -70 -57 -83 hvcurveto
          -6 -4 0 -7 -5 vvcurveto
          -15 11 -11 14 6 7 2 5 6 vhcurveto
          53 41 40 56 15 13 15 -13 41 -56 53 -41 rrcurveto
          -5 6 5 -2 5 hhcurveto
          13 15 7 18 7 -2 7 -4 3 hvcurveto
          57 -82 15 70 -44 hhcurveto
          -3 -2 0 -2 -4 hvcurveto
          endchar
        </CharString>
        <CharString name="gcommaaccent">
          6 callgsubr
          322 -20 hstemhm
          42 95 -72 72 97 125 54 79 hintmask 1101101110000000
          -77 callsubr
          hintmask 1110110110000000
          -60 callsubr
          -43 672 -96 callsubr
        </CharString>
        <CharString name="gdotaccent">
          6 callgsubr
          107 142 hstemhm
          42 95 -72 72 74 141 61 79 hintmask 1101101110000000
          -77 callsubr
          hintmask 1110110110000000
          -60 callsubr
          -66 584 -97 callgsubr
          endchar
        </CharString>
        <CharString name="germandbls">
          140 -95 64 -35 35 41 -7 callgsubr
          770 50 hstemhm
          101 90 150 75 24 95 0 109 hintmask 0110111010000000
          499 -56 rmoveto
          -7 14 12 -3 12 hhcurveto
          61 46 86 95 hvcurveto
          194 -228 11 66 59 119 57 144 vvcurveto
          129 -142 45 -49 -238 -5 -155 -158 vhcurveto
          -396 vlineto
          -52 -53 -17 -36 vhcurveto
          hintmask 1001111100000000
          -42 vlineto
          hintmask 1010111100000000
          -35 callsubr
          hintmask 1001111100000000
          -44 callsubr
          hintmask 1010111100000000
          42 vlineto
          -32 -57 17 52 hvcurveto
          436 vlineto
          114 25 109 108 64 52 -53 -71 vhcurveto
          -133 -99 -46 -71 -117 194 41 -210 vvcurveto
          -77 -38 -64 -101 -12 -13 1 2 -14 vhcurveto
          -4 -6 rlineto
          -44 18 36 -17 32 hhcurveto
          31 27 16 23 2 hvcurveto
          endchar
        </CharString>
        <CharString name="grave">
          -286 567 -21 179 -20 hstem
          100 713 rmoveto
          8 -7 -11 4 -10 hhcurveto
          -102 callgsubr
        </CharString>
        <CharString name="grave.cap">
          -281 880 -21 131 -20 hstem
          68 981 -93 callsubr
          -31 callsubr
        </CharString>
        <CharString name="greater">
          -99 8 73 callsubr
          374 266 rmoveto
          4 1 4 3 vvcurveto
          82 -166 -24 -120 151 vhcurveto
          5 -4 -7 1 -5 hhcurveto
          -16 -8 -7 -10 -14 vvcurveto
          -43 103 -74 181 -102 vhcurveto
          -84 -55 -196 -96 -67 vvcurveto
          -13 6 -13 13 -10 vhcurveto
          5 6 0 6 5 hvcurveto
          120 152 166 -26 83 3 -1 4 4 vvcurveto
          20 8 14 13 13 -9 14 -13 -1 -3 0 -1 -2 hvcurveto
          endchar
        </CharString>
        <CharString name="guillemotleft">
          97 -32 73 callsubr
          59 226 rmoveto
          -59 callsubr
          270 hmoveto
          -59 callsubr
          endchar
        </CharString>
        <CharString name="guillemotright">
          97 -32 73 callsubr
          570 226 rmoveto
          -57 callgsubr
          -270 hmoveto
          -57 callgsubr
          endchar
        </CharString>
        <CharString name="guilsinglleft">
          -173 -32 73 callsubr
          59 226 rmoveto
          -59 callsubr
          endchar
        </CharString>
        <CharString name="guilsinglright">
          -173 -32 73 callsubr
          300 226 rmoveto
          -57 callgsubr
          endchar
        </CharString>
        <CharString name="h">
          53 -120 -21 151 28 callgsubr
          245 90 hintmask 11011111
          -70 callsubr
          421 -25 vlineto
          5 callsubr
          hintmask 10111111
          -30 vlineto
          hintmask 11011111
          -37 callsubr
          hintmask 10111111
          -52 callgsubr
          hintmask 11011111
          30 -92 callsubr
          endchar
        </CharString>
        <CharString name="hbar">
          53 -120 -21 151 20 -9 -21 421 47 110 62 101 25 43 -20 hstemhm
          9 173 -90 90 -90 242 93 90 hintmask 1101111100100000
          -70 callsubr
          194 vlineto
          -2 19 21 -2 28 hhcurveto
          hintmask 1101111001100000
          55 29 8 24 13 -7 16 -7 8 hvcurveto
          -5 -29 -30 -2 -23 hhcurveto
          hintmask 1101111100100000
          -16 -19 1 2 -21 hvcurveto
          166 -25 vlineto
          -72 callsubr
          hintmask 1101111010100000
          53 11 -19 -72 2 hvcurveto
          hintmask 1101111100100000
          -59 -24 -8 -22 -15 8 -16 6 -8 hvcurveto
          hintmask 1101111010100000
          31 3 9 3 29 1 rrcurveto
          -489 -69 callsubr
          hintmask 1011111100100000
          -30 vlineto
          hintmask 1101111100100000
          -37 callsubr
          hintmask 1011111100100000
          -52 callgsubr
          hintmask 1101111100100000
          30 -92 callsubr
          endchar
        </CharString>
        <CharString name="hcircumflex">
          53 -120 -21 151 28 callgsubr
          245 90 hintmask 11011111
          -70 callsubr
          421 -25 vlineto
          5 callsubr
          hintmask 10111111
          -30 vlineto
          hintmask 11011111
          -37 callsubr
          hintmask 10111111
          -52 callgsubr
          hintmask 11011111
          30 -92 callsubr
          218 643 -76 callgsubr
          -70 -57 -83 hvcurveto
          -6 -4 0 -7 -5 vvcurveto
          -15 11 -11 14 6 7 2 5 6 vhcurveto
          53 41 40 56 15 13 15 -13 41 -56 53 -41 rrcurveto
          -5 6 5 -2 5 hhcurveto
          13 15 7 18 7 -2 7 -4 3 hvcurveto
          57 -82 15 70 -44 hhcurveto
          -3 -2 0 -2 -4 hvcurveto
          endchar
        </CharString>
        <CharString name="hdotbelow">
          53 37 callgsubr
          122 28 callgsubr
          76 116 53 90 hintmask 1101111110000000
          -70 callsubr
          421 -25 vlineto
          5 callsubr
          hintmask 1011111110000000
          -30 vlineto
          hintmask 1101111110000000
          -37 callsubr
          hintmask 1011111110000000
          -52 callgsubr
          hintmask 1101111110000000
          30 -92 callsubr
          76 -270 -90 callsubr
        </CharString>
        <CharString name="hungarumlaut">
          -40 616 -21 179 -20 hstem
          161 762 -90 callgsubr
        </CharString>
        <CharString name="hungarumlaut.cap">
          -66 859 131 hstem
          183 981 -80 callsubr
        </CharString>
        <CharString name="hyphen">
          -32 190 68 -56 56 hstemhm
          hintmask 01000000
          179 202 -4 callsubr
        </CharString>
        <CharString name="i">
          -27 callgsubr
          97 142 hstemhm
          35 156 -113 46 callgsubr
          hintmask 10111010
          4 callgsubr
          hintmask 10111100
          61 callgsubr
          hintmask 10111001
          -30 callsubr
          endchar
        </CharString>
        <CharString name="iacute">
          -27 callgsubr
          277 -20 hstemhm
          35 156 -156 225 -159 90 hintmask 10111100
          16 callgsubr
          hintmask 01111100
          -30 vlineto
          hintmask 10111100
          -37 callsubr
          hintmask 01111010
          -52 callgsubr
          hintmask 10111010
          30 vlineto
          hintmask 10111100
          -32 -37 17 52 hvcurveto
          9 614 -52 callsubr
          endchar
        </CharString>
        <CharString name="ibreve">
          -27 callgsubr
          97 35 callsubr
          -1 87 -51 71 callgsubr
          8 89 hintmask 1011101010100000
          191 468 rmoveto
          -30 hlineto
          -102 callsubr
          hintmask 1011101101100000
          -88 callsubr
          -172 -69 callsubr
          hintmask 0111101101100000
          -30 vlineto
          hintmask 1011101101100000
          -37 callsubr
          hintmask 0111101101100000
          -52 callgsubr
          hintmask 1011010010100000
          30 -92 callsubr
          6 576 rmoveto
          1 -5 1 -6 -5 vvcurveto
          hintmask 1011101101100000
          -55 callsubr
        </CharString>
        <CharString name="icircumflex">
          -27 callgsubr
          283 -20 hstemhm
          34 71 callgsubr
          hintmask 10111100
          190 468 rmoveto
          -30 hlineto
          -102 callsubr
          hintmask 10111010
          -30 callsubr
          -20 614 -76 callgsubr
          -70 -57 -83 hvcurveto
          -6 -4 0 -7 -5 vvcurveto
          -15 11 -11 14 6 7 2 5 6 vhcurveto
          53 41 40 56 15 13 15 -13 41 -56 53 -41 rrcurveto
          -5 6 5 -2 5 hhcurveto
          13 15 7 18 7 -2 7 -4 3 hvcurveto
          57 -82 15 70 -44 hhcurveto
          -3 -2 0 -2 -4 hvcurveto
          endchar
        </CharString>
        <CharString name="idieresis">
          -27 callgsubr
          97 129 hstemhm
          -29 128 -64 71 callgsubr
          -2 128 hintmask 1011101000000000
          191 468 rmoveto
          -30 hlineto
          -102 callsubr
          hintmask 1011110100000000
          -88 callsubr
          -172 -69 callsubr
          hintmask 0111110100000000
          -30 vlineto
          hintmask 1011110100000000
          -37 callsubr
          hintmask 0111110100000000
          -52 callgsubr
          hintmask 1011101000000000
          30 -92 callsubr
          hintmask 1011110100000000
          -220 510 rmoveto
          hintmask 1011101000000000
          -36 29 -28 35 vhcurveto
          hintmask 1011110100000000
          35 29 28 36 hvcurveto
          hintmask 1011101000000000
          37 -29 28 -35 vhcurveto
          hintmask 1011110010000000
          -35 -29 -28 -37 hvcurveto
          218 hmoveto
          -101 callsubr
          endchar
        </CharString>
        <CharString name="idotbelow">
          -249 37 callgsubr
          122 -11 callgsubr
          97 142 hstemhm
          35 156 -113 127 -127 46 callgsubr
          hintmask 1101110010000000
          4 callgsubr
          hintmask 1101111000000000
          61 callgsubr
          hintmask 1101110001000000
          -88 callsubr
          -172 -69 callsubr
          hintmask 1011111000000000
          -30 vlineto
          hintmask 1101111000000000
          -37 callsubr
          hintmask 1011111000000000
          -52 callgsubr
          hintmask 1101111000000000
          30 -92 callsubr
          -102 -270 rmoveto
          -32 26 -26 32 vhcurveto
          hintmask 1101110100000000
          32 26 26 32 33 -26 26 -32 -32 -26 -26 -33 hvcurveto
          endchar
        </CharString>
        <CharString name="igrave">
          -27 callgsubr
          277 -20 hstemhm
          35 71 callgsubr
          hintmask 10111100
          191 468 rmoveto
          -30 hlineto
          -102 callsubr
          hintmask 10111010
          -30 callsubr
          -92 614 rmoveto
          8 -7 -11 4 -10 hhcurveto
          -102 callgsubr
        </CharString>
        <CharString name="ij">
          7 25 callgsubr
          75 -11 callgsubr
          97 142 hstemhm
          35 156 -113 46 callgsubr
          -69 81 145 46 callgsubr
          hintmask 1010111010010000
          4 callgsubr
          hintmask 1010111100010000
          61 callgsubr
          hintmask 1010111001010000
          -88 callsubr
          -172 -69 callsubr
          hintmask 1001111100010000
          -30 vlineto
          hintmask 1010111100010000
          -37 callsubr
          hintmask 1001111100010000
          -52 callgsubr
          hintmask 1010111100001000
          30 -92 callsubr
          270 369 rmoveto
          -25 hlineto
          -72 callsubr
          -88 callsubr
          -326 vlineto
          -99 -23 -53 -66 vhcurveto
          hintmask 0110111000101000
          -57 -22 39 41 25 8 19 17 6 hvcurveto
          4 vlineto
          -71 callgsubr
          hintmask 1010111100010000
          -113 651 -97 callgsubr
          endchar
        </CharString>
        <CharString name="imacron">
          -27 callgsubr
          140 47 callsubr
          35 71 callgsubr
          hintmask 10111010
          16 callgsubr
          hintmask 01111010
          -30 vlineto
          hintmask 10111010
          -37 callsubr
          hintmask 01111010
          -52 callgsubr
          hintmask 10110110
          30 -92 callsubr
          -116 501 rmoveto
          hintmask 10111010
          58 26 -12 62 hhcurveto
          55 29 10 26 13 -7 18 -7 8 hvcurveto
          -5 -29 -30 -2 -23 hhcurveto
          hintmask 10110110
          -74 callgsubr
        </CharString>
        <CharString name="iogonek">
          -249 -235 36 220 -21 395 -2 callsubr
          97 142 hstemhm
          35 77 -34 46 callgsubr
          hintmask 11111001
          191 468 rmoveto
          -30 hlineto
          hintmask 11111100
          -102 callsubr
          hintmask 11111001
          -88 callsubr
          -172 -69 callsubr
          -30 vlineto
          22 33 5 3 28 hvcurveto
          hintmask 11111100
          -46 -45 -34 -34 -53 -82 callgsubr
          46 28 37 33 58 hvcurveto
          -3 29 35 -5 23 hhcurveto
          30 vlineto
          hintmask 11111001
          -32 -37 17 52 hvcurveto
          hintmask 11111010
          -113 517 -97 callgsubr
          endchar
        </CharString>
        <CharString name="itilde">
          -27 callgsubr
          125 19 callsubr
          35 71 callgsubr
          hintmask 1011100110000000
          191 468 rmoveto
          -30 hlineto
          -102 callsubr
          hintmask 1011100101000000
          -88 callsubr
          -172 -69 callsubr
          hintmask 0111100110000000
          -30 vlineto
          hintmask 1011100110000000
          -37 callsubr
          hintmask 0111100110000000
          -52 callgsubr
          hintmask 1011010110000000
          30 -92 callsubr
          -177 458 15 callgsubr
          hintmask 1011100110000000
          -67 callgsubr
          hintmask 1011001110000000
          -56 callsubr
        </CharString>
        <CharString name="j">
          -275 25 callgsubr
          465 25 43 -20 97 142 hstemhm
          -160 81 145 46 callgsubr
          hintmask 10111101
          179 468 -49 callgsubr
          hintmask 01111101
          -71 callgsubr
          hintmask 10111110
          -113 651 -97 callgsubr
          endchar
        </CharString>
        <CharString name="jcircumflex">
          -275 25 callgsubr
          465 25 43 -20 283 -20 hstemhm
          -160 81 168 90 hintmask 10111110
          179 468 -49 callgsubr
          hintmask 01111110
          -71 callgsubr
          -19 748 -76 callgsubr
          -70 -57 -83 hvcurveto
          -6 -4 0 -7 -5 vvcurveto
          -15 11 -11 14 6 7 2 5 6 vhcurveto
          53 41 40 56 15 13 15 -13 41 -56 53 -41 rrcurveto
          -5 6 5 -2 5 hhcurveto
          13 15 7 18 7 -2 7 -4 3 hvcurveto
          57 -82 15 70 -44 hhcurveto
          -3 -2 0 -2 -4 hvcurveto
          endchar
        </CharString>
        <CharString name="k">
          -17 8 46 callsubr
          hintmask 10111001
          182 8 callsubr
          hintmask 01111100
          -30 vlineto
          hintmask 10111100
          22 69 8 22 hhcurveto
          hintmask 01111100
          21 70 -8 21 hhcurveto
          hintmask 10111100
          -38 callgsubr
          563 -25 vlineto
          -25 -36 -29 -18 -66 hhcurveto
          -30 vlineto
          hintmask 10111010
          -88 callsubr
          -513 -69 callsubr
          hintmask 01111100
          -30 -40 callgsubr
          hintmask 10111001
          30 -92 callsubr
          endchar
        </CharString>
        <CharString name="kcommaaccent">
          -17 36 callgsubr
          72 0 46 callsubr
          -125 125 hintmask 1010111001000000
          182 8 callsubr
          hintmask 1001111100100000
          -30 vlineto
          hintmask 1010111100100000
          22 69 8 22 hhcurveto
          hintmask 1001111100100000
          21 70 -8 21 hhcurveto
          hintmask 1010111100100000
          -38 callgsubr
          563 -25 vlineto
          -25 -36 -29 -18 -66 hhcurveto
          -30 vlineto
          hintmask 1010111010100000
          -88 callsubr
          -513 -69 callsubr
          hintmask 1001111100100000
          -30 -40 callgsubr
          hintmask 1010111001000000
          30 -92 callsubr
          hintmask 1100111100100000
          28 -219 -96 callsubr
        </CharString>
        <CharString name="kgreenlandic">
          -19 8 22 -9 -21 385 30 -1 44 hstemhm
          36 71 callgsubr
          0 153 hintmask 10100010
          192 8 callsubr
          hintmask 01101000
          -30 vlineto
          hintmask 10101000
          22 69 8 22 hhcurveto
          hintmask 01101000
          21 70 -8 21 hhcurveto
          hintmask 10011000
          -38 callgsubr
          212 -25 vlineto
          hintmask 10101000
          -25 -36 -29 -18 -66 hhcurveto
          -30 vlineto
          hintmask 10100100
          -88 callsubr
          -162 -69 callsubr
          hintmask 01101000
          -30 -40 callgsubr
          hintmask 10100010
          30 -92 callsubr
          endchar
        </CharString>
        <CharString name="l">
          63 callgsubr
          43 -20 hstemhm
          95 90 hintmask 10111000
          -41 callgsubr
          hintmask 01111000
          -30 vlineto
          hintmask 10111000
          -37 callsubr
          hintmask 01111000
          -52 callgsubr
          hintmask 10111000
          30 -92 callsubr
          endchar
        </CharString>
        <CharString name="lacute">
          63 callgsubr
          224 -20 hstemhm
          40 145 -90 90 hintmask 10111000
          203 981 -62 callgsubr
          -18 -172 rmoveto
          -25 hlineto
          -72 callsubr
          hintmask 10110100
          -88 callsubr
          -518 -69 callsubr
          hintmask 01111000
          -30 vlineto
          hintmask 10111000
          -37 callsubr
          hintmask 01111000
          -52 callgsubr
          hintmask 10110100
          30 -92 callsubr
          endchar
        </CharString>
        <CharString name="lcaron">
          63 callgsubr
          48 -20 hstemhm
          95 90 75 85 callsubr
          hintmask 10111100
          -41 callgsubr
          hintmask 01111100
          -30 vlineto
          hintmask 10111100
          -37 callsubr
          hintmask 01111100
          -52 callgsubr
          hintmask 10111010
          30 -92 callsubr
          117 594 rmoveto
          -89 callgsubr
          hintmask 10111100
          -22 callgsubr
          endchar
        </CharString>
        <CharString name="lcommaaccent">
          -252 36 callgsubr
          74 11 -21 30 -20 731 25 43 -20 hstemhm
          77 125 -107 90 hintmask 10011101
          -41 callgsubr
          hintmask 10101110
          -30 vlineto
          hintmask 10011110
          -37 callsubr
          hintmask 10101110
          -52 callgsubr
          hintmask 10011101
          30 -92 callsubr
          hintmask 11001110
          -108 -219 -96 callsubr
        </CharString>
        <CharString name="ldot">
          -178 88 callsubr
          342 154 245 25 43 -20 hstemhm
          95 90 77 153 hintmask 10111110
          -41 callgsubr
          hintmask 01111110
          -30 vlineto
          hintmask 10111110
          -37 callsubr
          hintmask 01111110
          -52 callgsubr
          hintmask 10111110
          30 -92 callsubr
          77 320 rmoveto
          48 callsubr
        </CharString>
        <CharString name="less">
          -99 8 73 callsubr
          59 266 rmoveto
          1 -2 -3 0 -1 hhcurveto
          -13 -9 -14 -13 -13 8 -14 20 hvcurveto
          -4 -1 -4 -3 vvcurveto
          -83 166 26 120 -152 vhcurveto
          -6 5 6 0 5 hhcurveto
          13 10 6 13 13 vvcurveto
          67 -196 96 -84 55 vhcurveto
          181 102 103 74 43 vvcurveto
          14 -7 10 -16 8 vhcurveto
          -5 -7 -1 -5 -4 hvcurveto
          -120 -151 -166 24 -82 -3 1 -4 -4 vvcurveto
          endchar
        </CharString>
        <CharString name="lira">
          57 -97 53 -53 217 -103 63 110 68 83 68 177 231 -55 55 hstemhm
          82 144 -111 88 -61 84 209 50 -3 53 -53 77 hintmask 1011110100100000
          395 -44 rmoveto
          -60 -88 59 27 -36 hvcurveto
          10 38 4 63 1 57 rrcurveto
          -3 38 37 -7 40 -95 callgsubr
          -34 -32 6 3 -39 hvcurveto
          8 vlineto
          25 -1 26 -3 26 vhcurveto
          -3 40 37 -8 41 -95 callgsubr
          -37 -35 7 3 -44 hvcurveto
          hintmask 1011101010100000
          -6 53 -7 53 56 58 callsubr
          hintmask 1011110100010000
          80 callgsubr
          hintmask 1011110010100000
          57 callsubr
          -45 4 -44 5 -44 vhcurveto
          hintmask 1011110100100000
          -30 -4 -12 -10 -17 vvcurveto
          -15 8 -18 6 -8 vhcurveto
          11 2 12 2 13 1 3 -27 3 -28 2 -27 rrcurveto
          -42 -3 -16 -10 -20 vvcurveto
          -15 8 -18 6 -8 vhcurveto
          hintmask 1011110001001000
          14 2 16 2 16 1 -1 -40 -4 -41 -9 -42 rrcurveto
          6 callsubr
          hintmask 0101110100010000
          -1 callgsubr
          hintmask 1011110100100000
          -44 -18 -43 -69 vhcurveto
          endchar
        </CharString>
        <CharString name="logicalnot">
          303 47 211 -68 47 callsubr
          684 68 hintmask 00110000
          235 202 rmoveto
          hintmask 01010000
          117 127 -12 129 hhcurveto
          31 27 0 2 21 hvcurveto
          -2 -63 -1 33 -39 vvcurveto
          hintmask 10010000
          -52 7 -24 28 13 19 8 6 8 vhcurveto
          -5 20 -2 26 25 vvcurveto
          43 4 19 3 33 vhcurveto
          -2 12 -6 18 -7 8 rrcurveto
          -5 -44 -53 -2 -50 hhcurveto
          hintmask 00110000
          -117 -123 12 -135 hhcurveto
          -109 -40 32 callgsubr
          6 46 67 1 35 hhcurveto
          endchar
        </CharString>
        <CharString name="lslash">
          -179 88 callsubr
          741 25 43 -20 hstemhm
          11 236 -90 90 -90 236 hintmask 10111000
          247 392 rmoveto
          hintmask 10110010
          76 37 70 36 31 vvcurveto
          16 -22 19 -14 6 vhcurveto
          hintmask 10111000
          -23 -19 -30 -20 -57 -32 rrcurveto
          343 -25 vlineto
          -72 callsubr
          hintmask 10110100
          -88 callsubr
          -194 vlineto
          hintmask 10111000
          -72 -35 -74 -40 -29 vvcurveto
          -18 25 -18 12 -5 vhcurveto
          hintmask 10110100
          24 20 37 23 48 26 rrcurveto
          -248 -69 callsubr
          hintmask 01111000
          -30 vlineto
          hintmask 10111000
          -37 callsubr
          hintmask 01111000
          -52 callgsubr
          hintmask 10111000
          30 -92 callsubr
          endchar
        </CharString>
        <CharString name="m">
          336 -102 36 76 20 -9 -10 callgsubr
          hstemhm
          101 90 214 90 210 95 hintmask 1101101110000000
          495 255 rmoveto
          139 84 27 38 64 24 -58 -111 vhcurveto
          -157 86 callsubr
          32 30 -9 callsubr
          99 vlineto
          190 -70 69 -104 -77 -52 -42 -38 -22 vhcurveto
          64 -25 -49 16 -60 hhcurveto
          -89 -32 -35 -45 -29 hvcurveto
          hintmask 1101011110000000
          70 -25 vlineto
          -72 callsubr
          -88 callsubr
          -167 -69 callsubr
          hintmask 1011101110000000
          -30 vlineto
          hintmask 1101101110000000
          -37 callsubr
          hintmask 1011101110000000
          -52 callgsubr
          hintmask 1101101110000000
          -13 callsubr
          130 65 50 60 52 37 -37 -130 vhcurveto
          -155 -69 callsubr
          hintmask 1011101110000000
          -30 vlineto
          hintmask 1101101110000000
          -37 callsubr
          hintmask 1011101110000000
          -52 callgsubr
          hintmask 1101101110000000
          30 -92 callsubr
          endchar
        </CharString>
        <CharString name="macron">
          -153 588 47 callsubr
          hintmask 01000000
          120 600 rmoveto
          hintmask 10000000
          58 26 -12 62 hhcurveto
          55 29 10 26 13 -7 18 -7 8 hvcurveto
          -5 -29 -30 -2 -23 hhcurveto
          hintmask 01000000
          -74 callgsubr
        </CharString>
        <CharString name="macron.cap">
          -153 890 47 callsubr
          hintmask 01000000
          120 902 rmoveto
          hintmask 10000000
          58 26 -12 62 hhcurveto
          55 29 10 26 13 -7 18 -7 8 hvcurveto
          -5 -29 -30 -2 -23 hhcurveto
          hintmask 01000000
          -74 callgsubr
        </CharString>
        <CharString name="minus">
          33 189 47 callsubr
          hintmask 01000000
          187 201 rmoveto
          hintmask 10000000
          81 21 -12 96 -95 callgsubr
          hintmask 01000000
          -88 -46 12 -76 hhcurveto
          -80 callgsubr
          endchar
        </CharString>
        <CharString name="mu">
          105 59 callgsubr
          106 59 callsubr
          hintmask 11001111
          106 -53 rmoveto
          -90 10 -48 46 vhcurveto
          -36 30 -23 38 31 26 -9 callsubr
          61 vlineto
          hintmask 10101111
          -23 28 34 -14 41 hhcurveto
          73 44 46 66 15 hvcurveto
          -18 vlineto
          hintmask 10011111
          -31 2 -49 64 vhcurveto
          93 25 hlineto
          -55 -14 36 39 hvcurveto
          358 -100 callsubr
          -88 callsubr
          -6 vlineto
          -140 -58 -82 -76 -61 -40 54 160 -54 callsubr
          63 3 -15 -144 hvcurveto
          endchar
        </CharString>
        <CharString name="multiply">
          -70 88 -21 323 -20 hstem
          183 141 rmoveto
          11 11 16 14 18 16 rrcurveto
          -60 51 46 -53 31 hhcurveto
          22 12 32 15 3 hvcurveto
          -26 18 -32 29 -16 17 -12 11 -13 16 -15 17 rrcurveto
          55 48 55 51 31 vvcurveto
          20 -29 14 -17 2 vhcurveto
          -17 -24 -24 -27 -25 -25 -41 -39 rcurveline
          56 -48 -51 55 -31 hhcurveto
          -21 -13 -29 -17 -2 hvcurveto
          24 -17 26 -24 26 -25 13 -13 13 -14 13 -15 rrcurveto
          -59 -51 -54 -46 -31 vvcurveto
          -22 32 -12 15 -3 vhcurveto
          18 26 29 32 17 16 rrcurveto
          endchar
        </CharString>
</ttFont>
